<?xml version="1.0" encoding="UTF-8"?>
<svg width="1440px" height="1024px" viewBox="0 0 1440 1024" version="1.1" xmlns="http://www.w3.org/2000/svg" xmlns:xlink="http://www.w3.org/1999/xlink">
    <!-- Generator: Sketch 58 (84663) - https://sketch.com -->
    <title>Desktop HD</title>
    <desc>Created with Sketch.</desc>
    <defs>
        <polygon id="path-1" points="0 0 197 0 197 470 0 470"></polygon>
    </defs>
    <g id="Desktop-HD" stroke="none" stroke-width="1" fill="none" fill-rule="evenodd">
        <g id="Group-7" transform="translate(173.500000, 773.500000) rotate(-45.000000) translate(-173.500000, -773.500000) translate(42.000000, 500.000000)" stroke="#231F20">
            <polygon id="Stroke-1" stroke-width="0.01" points="0.993163697 545.493164 262.993164 545.493164 262.993164 0.493163697 0.993163697 0.493163697"></polygon>
            <path d="M131.286057,1.20027048 L131.286057,546.20027" id="Stroke-3" stroke-width="0.01"></path>
            <path d="M131.63961,539.754401 L131.63961,545.754401" id="Stroke-5"></path>
            <path d="M131.99294,20.4931637 C131.99294,20.4931637 132.370325,26.8790697 132.370325,48.6607112 C132.370325,87.0116374 105.93681,89.0700806 87.1780168,91.8004754 C64.4115791,95.1152788 58.3181928,100.519284 36.4132973,110.503916 C34.3514869,111.443229 32.1552905,112.559993 30.8795453,115.191015 C29.7473904,117.523917 29.5725047,120.585556 29.4454825,123.47684 C26.5571069,189.29497 27.9801243,255.548449 33.6869212,320.940694 C34.4564183,329.751777 35.6695729,339.511637 40.3970097,344.754753 C43.9370647,348.682357 48.6368881,349.070385 53.0219171,348.847979 C87.1614487,347.132609 103.654092,319.237155 137.348125,327.769047 C160.82331,333.712506 172.395221,357.533663 196.133655,360.110266 C206.34514,361.217566 217.598575,357.443754 223.982824,345.291841 C228.609011,336.480757 229.941825,324.80205 230.991139,313.646234 C236.495436,255.188813 238.511224,195.366195 231.543409,137.26841 C229.95287,124.009196 227.776924,110.46606 222.511943,99.6130955 C217.270895,88.8121837 208.316746,81.8820916 199.375484,83.867188 C183.933996,87.2931946 178.017337,91.1853085 162.664212,96.4023973 C152.771204,99.7645212 143.597988,106.749032 138.971801,121.174697 C137.769692,124.924849 137.493556,129.174233 137.237671,133.321877 C134.586772,176.210843 131.97085,220.008362 138.474757,261.941453 C139.658457,269.581353 141.248997,277.410535 144.763279,283.167078 C147.68295,287.946452 151.662981,290.851933 155.541761,293.648577 C166.992173,301.903644 178.63588,310.250986 191.152174,313.305526 C195.851997,314.453049 201.623226,314.119439 204.125012,307.970136 C205.295826,305.093048 205.444939,301.553472 205.562756,298.174786 C206.85507,260.819956 208.149224,223.434369 207.821543,186.03222 C207.679794,169.761054 207.212205,153.324267 204.364329,137.63751 C203.546969,133.132595 202.280428,128.253848 199.496984,126.256922 C197.948785,125.142523 196.166792,125.123595 194.452912,125.125961 C180.609327,125.147255 166.809924,125.232432 152.979226,126.062908 C127.03355,127.619753 112.009947,131.308389 86.2299522,136.132717 C81.1048804,137.093324 45.2551507,140.398663 45.2533098,153.466228 C45.2533098,174.327486 113.096079,172.678365 113.096079,185.194646 C113.096079,197.710927 41.1315297,203.969068 48.0017768,216.485349 C54.8720239,229.00163 113.096079,227.352509 113.096079,246.126931 C113.096079,264.901352 41.1315297,250.719389 48.0017768,264.482566 C54.8720239,278.243377 100.454604,300.649649 108.974299,319.594425 C118.674013,341.16549 121.437207,405.412578 131.99294,412.602933 C142.548674,419.795654 215.293766,370.411946 188.806865,342.604034 C162.319963,314.793757 142.706991,337.136147 158.216592,364.177465 C173.726194,391.22115 198.504737,415.960325 194.775069,448.561807 C191.045402,481.165654 131.99294,505.585415 131.99294,525.493164" id="Stroke-6"></path>
        </g>
        <g id="Group-7" transform="translate(215.500000, -70.500000) rotate(45.000000) translate(-215.500000, 70.500000) translate(-29.000000, -407.000000)" stroke="#231F20">
            <polygon id="Stroke-1" stroke-width="0.01" points="0 672 489 672 489 0 0 0"></polygon>
            <path d="M244.5,0 L244.5,672" id="Stroke-3" stroke-width="0.01"></path>
            <path d="M244.000719,653 C244.000719,638.1033 256.172344,610.307174 273.74809,599.29164 C298.10297,584.031535 507.485745,521.028728 402.473133,590.200699 C359.458195,618.534665 318.914211,617.645049 266.954422,615.400659 C202.485795,612.615523 139.467763,589.017453 79.083476,569.480797 C66.2577745,565.332165 53.3245138,560.6486 43.2023259,552.767072 C41.1383531,551.15646 39.0627523,549.127207 39.2168235,546.749084 C39.3621737,544.504694 41.4494025,542.725463 43.5424454,541.356153 C58.2315365,531.747723 78.307306,531.241863 96.8132933,532.03554 C181.549552,535.669591 250.596711,562.986022 334.452147,541.524773 C356.548285,535.873097 378.897331,525.808231 389.138706,508.216519 C398.560306,492.020283 395.885862,472.759815 391.438146,455.092515 C386.99043,437.425215 380.952583,419.411953 384.353778,401.576033 C387.757879,383.737205 404.182452,366.049555 425.418116,366.133865 C435.65077,366.174566 445.453187,370.343549 452.909652,376.303392 C465.499887,386.359536 471.889481,401.750467 469.508645,416.301206 C465.717912,439.486448 442.246762,456.589743 418.38898,468.253592 C368.571653,492.604638 330.097455,500.896088 272.803314,504.579561 C246.009458,506.300648 218.660365,506.568114 192.732796,500.564662 C166.805228,494.564118 142.194532,481.612362 128.621731,461.883828 C116.089637,443.66706 116.484989,402.619732 92.4004612,393.447388 C70.0775777,384.94371 39.7139212,402.579031 26.3533309,416.673332 C9.28340355,434.68078 20.1730404,449.278034 42.7837174,457.642165 C103.342424,480.048267 207.41026,521.51133 257.558985,461.994303 C271.90505,444.972411 274.942869,422.69132 274.399259,402.294121 C273.736462,377.248245 274.335305,352.208183 276.454511,327.124512 C279.105699,295.767017 283.634811,264.519997 290.015685,233.554979 C292.466289,221.678902 316.899657,160.684998 301.887889,152.841263 C296.35586,149.951466 289.847078,154.605958 285.001103,158.28071 C260.230522,177.041132 221.020852,175.215385 197.520632,155.722338 C175.270424,137.267176 169.3256,107.435982 178.122194,82.0790307 C188.837411,51.1866938 211.546926,50.5616371 243.663506,47.9393063 C271.169578,45.6920094 243.663506,19.2390287 243.663506,12" id="Stroke-6"></path>
        </g>
        <g id="Group-7" transform="translate(1287.500000, 20.500000) rotate(-50.000000) translate(-1287.500000, -20.500000) translate(1105.000000, -276.000000)" stroke="#231F20">
            <polygon id="Stroke-1" stroke-width="0.01" points="0.994250398 591.369223 364.99425 591.369223 364.99425 0.369222704 0.994250398 0.369222704"></polygon>
            <path d="M183.377273,0.690616509 L183.377273,591.690617" id="Stroke-3" stroke-width="0.01"></path>
            <path d="M183.726467,581.037388 C185.317533,541.334156 183.403715,517.615015 160.337028,527.708374 C150.485526,532.019342 150.129994,512.409604 145.023956,496.090411 C139.92296,479.771219 224.642855,386.691102 225.399305,367.78684 C226.155755,348.88006 220.056246,320.424145 214.761095,310.265278 C209.463422,300.106411 210.883027,298.697976 210.509845,268.584191 C210.136663,238.470406 216.195828,238.029483 216.195828,220.183437 C216.195828,202.337391 205.136527,195.489226 202.985687,193.020057 C200.834847,190.548369 194.316769,195.17932 189.987352,191.782953 C185.662979,188.384066 186.590891,162.74754 185.352834,160.585757 C184.114778,158.423974 176.676351,162.064739 173.093299,157.592519 C169.512768,153.1203 178.466617,141.48749 179.364271,132.540531 C180.256882,123.593572 173.990953,98.5415837 219.652806,91.3860323 C265.317179,84.2279614 254.575587,153.1203 255.707741,162.064739 C256.839895,171.014217 236.665369,172.803105 238.455635,187.116727 C240.248422,201.432869 253.677933,198.747018 259.946383,219.324267 C266.214834,239.904036 229.501786,248.850995 189.21073,247.956551 C148.919674,247.062107 93.2550292,267.656993 94.9040905,285.78523 C96.5556733,303.913466 137.827593,342.641628 149.371023,363.244073 C157.018733,376.890012 157.775184,395.255087 156.600164,416.638596 C155.989961,431.91721 153.604622,451.101142 146.415824,464.742042 C138.51092,479.735945 121.894232,482.396601 112.900039,495.420208 C90.1107181,528.428968 128.455176,580.792991 166.855107,571.767926 C187.924765,566.811951 183.726467,444.230301 181.673965,389.22326 C180.854478,367.313163 168.713453,350.82516 171.446759,348.784316 C201.061782,326.687772 188.10127,305.755265 188.10127,305.755265 C164.711831,283.49243 148.367465,294.943832 115.542572,247.666801 C104.558916,231.843962 108.141968,208.462443 102.604753,205.83958 C97.0675379,203.219237 88.9659569,207.293367 102.587103,216.38394 C116.21077,225.471994 147.419381,203.463635 150.087129,199.961446 C152.757398,196.464296 132.615652,179.908265 131.624702,174.450898 C130.628709,168.99353 136.801343,168.162075 131.491063,163.586553 C126.183304,159.011032 116.88401,160.900702 107.201448,154.20623 C97.5188865,147.511758 82.1427766,143.520775 68.859512,160.013817 C64.4443647,160.590796 43.9496087,183.024961 62.8432119,207.565479 C81.7342935,232.105997 73.2317939,407.658883 56.2318376,416.15484 C39.2268383,424.648278 73.2317939,366.131489 75.1229192,328.375878 C77.0115231,290.622786 36.3926718,227.38686 33.5585052,185.856947 C30.7268602,144.329554 100.625375,128.284993 104.402583,135.833596 C108.179791,143.384719 86.87059,148.781617 68.859512,160.013817 C55.654414,168.25026 -10.5702748,131.693959 36.0497477,103.028921 C82.6647272,74.3638827 107.65784,93.9786599 129.254492,60.0301039 C143.110137,38.2585831 110.852581,28.8883382 94.4905644,36.7241708 C74.094147,46.4925063 141.241705,67.5635894 157.278448,62.5547034 C173.315191,57.548337 183.726467,31.0526405 183.726467,21.0373882" id="Stroke-6"></path>
        </g>
        <g id="Group-3" transform="translate(1287.500000, 777.000000) rotate(40.000000) translate(-1287.500000, -777.000000) translate(1189.000000, 542.000000)">
            <mask id="mask-2" fill="white">
                <use xlink:href="#path-1"></use>
            </mask>
            <g id="Clip-2"></g>
            <path d="M109.425872,0 C109.425872,20.2420655 108.089161,27.8821477 113.436007,40.0585286 C123.69449,63.4562802 119.093716,105.393688 118.772491,100.49407 C118.440903,95.5944519 110.296289,87.1135455 108.016626,82.5461051 C102.845936,72.1863198 95.7789801,37.4841531 79.3135956,40.1000508 C71.3865855,41.3560969 69.3970613,45.1242353 69.3970613,51.6120768 C69.3970613,86.324624 112.202916,122.615014 97.6856073,157.971155 C95.5199274,163.234092 93.592576,164.157961 91.7792076,157.971155 C89.9554772,151.78435 83.1682986,125.179009 76.681621,122.085606 C65.8946699,116.947236 51.8436559,100.141131 39.5852859,100.130751 C34.642562,100.12037 26.332154,99.1653599 22.6432447,97.7847472 C18.9336112,96.4145151 9.04816322,96.4145151 7.81507275,101.667072 C1.69106884,127.743004 45.9683425,122.594253 53.83318,143.147735 C55.7501694,148.17192 72.3502612,171.590432 72.0497602,174.061002 C71.738897,176.531572 71.9565012,176.936414 69.4074234,175.659606 C64.817011,173.365506 55.2735126,159.922698 52.5793653,151.296464 C49.0355255,140.002429 34.6218378,140.614882 31.0572737,139.421119 C27.4098129,138.196214 14.3017503,141.34152 2.29207092,147.704795 C-0.132661598,149.002363 -1.34502786,153.424476 2.31279512,157.908872 C11.0480494,168.611215 16.052946,161.66663 25.244133,161.791196 C29.0884738,161.843099 33.9275767,161.85348 39.1604397,167.054133 C46.911294,174.746118 51.4084475,190.088566 51.5017064,197.552179 C51.5017064,200.126554 50.5380307,206.209555 48.9422665,206.531351 C47.3465024,206.853148 37.119105,190.202752 34.8808904,188.604148 C32.6426758,187.005544 27.8450213,183.538441 24.9747182,182.874086 C22.0940531,182.199351 14.1152324,177.081741 10.5921168,179.645736 C7.07936331,182.199351 0.924273087,185.251231 3.82566242,192.081631 C8.25028115,202.493319 15.1928913,198.476047 23.2546088,203.65594 C30.6117032,208.389469 34.8808904,217.856528 37.212364,223.275173 C40.2691849,230.354705 35.9689114,258.724739 42.2276227,274.399364 C53.8849905,303.57908 67.3039162,327.911081 87.4063994,351.962807 C90.7637214,355.969698 94.1314054,360.00773 96.659759,364.585551 C98.835801,368.519778 110.772946,411.754754 116.596449,409.481414 C121.021067,407.758244 101.913346,353.115047 100.628445,348.402279 C91.3543613,314.489034 90.5150308,281.302427 94.9396496,246.371889 C96.5457758,233.6661 96.9291737,201.797822 109.840356,194.303068 C134.139492,180.206286 125.994878,168.289418 125.010478,145.130419 C124.4302,131.178965 125.735825,107.158381 143.019816,103.494048 C156.625259,100.618636 152.718746,117.611591 153.38192,126.050975 C154.51139,140.38651 158.956733,155.033461 162.666366,168.102569 C170.551928,195.974336 184.893081,210.559003 172.800505,239.313117 C165.028926,257.79049 150.584152,277.337059 156.905036,298.440709 C162.023916,315.527089 173.225351,333.080593 182.457986,348.153146 C186.385224,354.557943 199.192786,364.928109 196.674794,375.671975 C196.31212,377.249818 195.845826,378.81728 195.255186,380.343221 C191.763156,389.426199 184.219544,394.855225 175.618997,398.685646 C164.469373,403.637167 153.413007,407.581774 143.299592,414.640546 C134.160216,421.024582 126.689139,428.488195 120.699842,437.89297 C116.824415,443.550368 109.425872,450.546856 109.425872,470" id="Stroke-1" stroke="#030404" mask="url(#mask-2)"></path>
        </g>
    </g>
</svg>