<svg id="Layer_1" data-name="Layer 1" xmlns="http://www.w3.org/2000/svg" viewBox="0 0 18.4 29.7"><defs><style>.cls-1,.cls-2{fill:none;stroke:#231f20;stroke-miterlimit:10;}.cls-1{stroke-opacity:0;stroke-width:0.01px;}</style></defs><line class="cls-1" x1="9.1" y1="0.098" x2="9.1" y2="29.598"/><path class="cls-2" d="M9.2-.1c0,.5-.1,1.3-.1,2.1.1.9,7.2-.7,7.2.9S1.5,3,1.5,4.2c0,1.4,14.6-.2,14.9,1.2S1.8,5.9,2,7.1c.1,1.3,15.2,0,15.2.8-.1,1.2-6,1-6,1.9,0,.6-.1.6-1.8.6-1.8,0-4.2.2-4.2,3.1v3.9c0,1.6,1.9,1.9,3.8,1.9h5.9c1.6,0,3.1-.6,3.1-3.1V13.5c0-1.4-2.8-2-6.7-2s-4.6-.1-4.6,1.9v3.5c0,1.6,2.9,1,3.9,1s.8,1.2.8,1.8-1.5.9-2.1,1.5c-.7.7,1.4.7,2.5.7s2.4.1,1.8-.5a2.814,2.814,0,0,0-2.3-.7,14.1,14.1,0,0,1-4.2,1.4c-1.1.1-.6.4-2.9.7S2.1,21.5,2.9,21c.7-.4,3.5.8,3.3,2.1S.6,24.3.6,22.9s2.7-3.3,2.2-6.3-2.4-2.2-1.6-.4,4.2,8.9,4.6,10.1-2.3,2.4-2.4,1.2c-.1-1.1,2-1.3,2.7-1.2a3.379,3.379,0,0,1,3.2,3.3" transform="translate(-0.1 0.098)"/></svg>