<?xml version="1.0" encoding="utf-8"?>
<!-- Generator: Adobe Illustrator 24.1.0, SVG Export Plug-In . SVG Version: 6.00 Build 0)  -->
<svg version="1.1" id="Layer_1" xmlns="http://www.w3.org/2000/svg" xmlns:xlink="http://www.w3.org/1999/xlink" x="0px" y="0px"
	 viewBox="0 0 18.3 29.5" style="enable-background:new 0 0 18.3 29.5;" xml:space="preserve">
<style type="text/css">
	.st0{opacity:0;fill:none;stroke:#231F20;stroke-width:1.000000e-02;stroke-miterlimit:10;}
	.st1{fill:none;stroke:#231F20;stroke-miterlimit:10;}
</style>
<line class="st0" x1="9.1" y1="0" x2="9.1" y2="29.5"/>
<rect x="0" y="0" class="st0" width="18.3" height="29.5"/>
<path class="st1" d="M9.1,0c0,0.7-0.1,0.9-0.2,1.1C8.6,1.9,7.6,2,6.9,2.1C6,2.1,5.1,2.1,4.3,1.8c-0.2,0-0.4-0.1-0.5-0.2
	C3.6,1.6,3.4,1.5,3.3,1.3c0-0.1,0-0.2,0-0.3c0-0.2-0.2-0.4-0.4-0.5s-0.5,0-0.7,0C1.2,1,0.6,2.2,0.8,3.3c0,0.1,0.1,0.3,0.1,0.4
	c0.2,0.2,0.5,0.2,0.7,0.1C2.2,3.7,2.7,3.4,3.1,3S4,2.3,4.5,2s1.2-0.3,1.7,0c0.2,0.1,0.4,0.4,0.3,0.6C6.5,3,6,3.1,5.7,3.1
	c-0.5,0-1,0-1.5,0c-0.4,0-0.7-0.1-1.1,0c-0.4,0.1-0.8,0.5-1,1C2,4.5,1.9,4.9,1.9,5.3c0,0.2,0,0.5,0.2,0.7c0.3,0.3,0.8,0.1,1.1-0.1
	C4,5.4,4.7,4.8,5.4,4.2C5.6,4,5.8,3.9,6,3.8s0.5-0.1,0.6,0.1c0.3,0.3-0.1,0.9,0.5,0.9c0.2,0,0.7-0.3,0.4-0.6c-0.4-0.3-1-1.3-0.7,1.5
	c0.2,2.8-0.7,1.7,0.1,3.2s4.7,10.9,5.3,12.4c0.6,1.4,1.7,0.9,1.5,0.5C13.6,21.5,8.1,8.1,7.9,7.6S9.4,5.1,10,6.5
	c0.6,1.4,5.9,14.8,6.3,15.7c0.4,0.9-0.5,1.8-1,1.3c-0.4-0.5-0.2-1.3-0.6-1.2c-0.5,0.1-1.1,0.1-0.8,0.8s0.6,1,0.3,1.1
	c-0.3,0.1-0.8,0-0.7,0.6c0.2,0.7,0.4,2.2,0.9,2.1c0.5-0.1,3.2-0.3,2.9-1.1c-0.3-0.7-0.1-1.6-0.6-1.4c-0.9,0.3-1.7,0.8-2.6,1.1
	c-0.5,0.2-1.2,0.6-1.8,0.6c-0.7,0-1.5-0.3-2.1-0.5c-0.2-0.1-0.4-0.1-0.7,0c-0.8,0.3-0.5,2.5-0.5,3.8"/>
</svg>
