<svg id="Layer_1" data-name="Layer 1" xmlns="http://www.w3.org/2000/svg" viewBox="0 0 18.26 29.605"><defs><style>.cls-1,.cls-2{fill:none;stroke:#231f20;stroke-miterlimit:10;}.cls-1{stroke-opacity:0;stroke-width:0.01px;}</style></defs><line class="cls-1" x1="9.116" y1="0.039" x2="9.116" y2="29.575"/><path class="cls-2" d="M9.132.005A3.455,3.455,0,0,1,7.52,3.2C6.7,3.757,5.746,4.055,4.9,4.566A8.084,8.084,0,0,0,2.654,6.484,10.178,10.178,0,0,0,.838,10.335a12.35,12.35,0,0,0,1.555,9.346,7.93,7.93,0,0,0,4.648,3.26,8.057,8.057,0,0,0,6.4-.938c2.607-1.7,3.738-4.76,4.161-7.715a15.019,15.019,0,0,0-.268-5.9,6.222,6.222,0,0,0-2.223-3.643,5.279,5.279,0,0,0-3.575-.772,12.621,12.621,0,0,0-3.562,1.08A4.92,4.92,0,0,0,6.054,6.3,4.538,4.538,0,0,0,5.23,8.36a17.276,17.276,0,0,0-.321,3.2,3.576,3.576,0,0,0,.452,2.067A3.418,3.418,0,0,0,6.634,14.64a2.7,2.7,0,0,0,2.019.4,1.939,1.939,0,0,0,1.115-1.076,4.426,4.426,0,0,0,.323-1.553c.107-1.67-.11-3.359.145-5.012.071-.457.212-1.294.6-1.539a1.724,1.724,0,0,1,.9-.186q.851-.016,1.7.019a2.238,2.238,0,0,1,.938.181,1.926,1.926,0,0,1,.637.594A6.416,6.416,0,0,1,16.04,10.88c-.1.671-.321,1.323-.376,2a1.584,1.584,0,0,1-.258.979,1.17,1.17,0,0,1-.4.254,5.219,5.219,0,0,1-2.732.414,1.747,1.747,0,0,1-.725-.215,1.165,1.165,0,0,1-.443-1.367,1.33,1.33,0,0,1,1.216-.819c.651,0,1.36.425,1.9.069a.77.77,0,0,0-.376-1.414,2.5,2.5,0,0,0-.725.148,1.308,1.308,0,0,1-1.247-.28.778.778,0,0,1,.011-1.1.842.842,0,0,1,.072-.062,1.161,1.161,0,0,1,.472-.124,9.25,9.25,0,0,1,1.664-.024.879.879,0,0,0-.309-.941,3.458,3.458,0,0,0-.964-.408C10.333,6.958,9.828,6.9,7.35,8.027c-.155.071-.348.1-.432.247-.168.3.22.635.562.634s.671-.17,1.012-.141a.875.875,0,0,1,.541,1.5c-.629.621-1.941.128-2.416.874a.365.365,0,0,0-.068.235.353.353,0,0,0,.069.16A1.436,1.436,0,0,0,7.452,12a1.966,1.966,0,0,1,.882.4.6.6,0,0,1,.059.846l-.016.018a.832.832,0,0,1-.441.133,9.886,9.886,0,0,1-1.746.01,3.806,3.806,0,0,0-1.848.091,2.122,2.122,0,0,0-.84.72,4.214,4.214,0,0,0-.7,1.845,2.321,2.321,0,0,0,.317,1.81,1.05,1.05,0,0,0,1.471.2.965.965,0,0,0,.149-.137c.374-.585-.059-1.563.521-1.944a.812.812,0,0,1,.849.043,2.393,2.393,0,0,1,.618.643l.466.619a.392.392,0,0,1,.084.157.333.333,0,0,1-.069.236,3.7,3.7,0,0,1-.7.664.976.976,0,0,0-.391.839,1.05,1.05,0,0,0,.675.671,4.4,4.4,0,0,0,3.243.14,1.058,1.058,0,0,0,.666-.5,1.189,1.189,0,0,0,.019-.653l-.233-1.473c-.072-.449-.261-1.01-.715-1.027a.674.674,0,0,0-.363.1,1.438,1.438,0,0,0-.356,1.895,3.829,3.829,0,0,0,1.6,1.369,1.173,1.173,0,0,0,.562.2c.452,0,.733-.491.851-.927a4.45,4.45,0,0,0-.014-2.344c-.055-.192-.115-.423.016-.574a.5.5,0,0,1,.253-.137,2.1,2.1,0,0,1,1.11-.011.465.465,0,0,1,.22.108.522.522,0,0,1,.09.421,13.96,13.96,0,0,1-1.978,6.084A35.129,35.129,0,0,0,9.42,27.253a6.688,6.688,0,0,0-.282,2.293" transform="translate(-0.016 0.034)"/></svg>