<?xml version="1.0" encoding="utf-8"?>
<!-- Generator: Adobe Illustrator 24.1.0, SVG Export Plug-In . SVG Version: 6.00 Build 0)  -->
<svg version="1.1" id="Layer_1" xmlns="http://www.w3.org/2000/svg" xmlns:xlink="http://www.w3.org/1999/xlink" x="0px" y="0px"
	 viewBox="0 0 18.3 29.7" style="enable-background:new 0 0 18.3 29.7;" xml:space="preserve">
<style type="text/css">
	.st0{opacity:0;fill:none;stroke:#231F20;stroke-width:1.000000e-02;stroke-miterlimit:10;}
	.st1{fill:none;stroke:#231F20;stroke-miterlimit:10;}
</style>
<rect x="0" y="0.1" class="st0" width="18.3" height="29.5"/>
<line class="st0" x1="9.1" y1="0.1" x2="9.1" y2="29.6"/>
<path class="st1" d="M9.1,29.6v-0.3c0-5.2,0.2-10.4,0.1-15.5c0-0.2,0-0.5,0.2-0.6c0.1,0,0.2-0.1,0.3-0.1c0.7,0,1.4,0.5,1.7,1.2
	c0.3,0.7,0.1,1.5-0.4,2.1c-1,1-2.9,0.6-3.6-0.6s-0.4-2.8,0.4-4c0.3-0.4,0.6-0.7,1-0.9c0.7-0.4,1.5-0.3,2.2,0
	c3.3,1.4,2.9,5.7,0.6,7.7c-1,0.8-2.3,1.3-3.6,1.1c-1.9-0.2-3.1-1.8-3.4-3.6c-0.5-2.2,0.2-4.6,1.8-6.3s4-2.4,6.2-2
	c2.4,0.4,4.1,2.2,4.2,4.7c0,1.2-0.3,2.4-0.7,3.6c-0.9,2.6-2.3,5.3-4.9,6.3c-2.9,1.1-5.7-0.6-7.2-3c-2.2-3.4-2.3-7.1,0.1-10.4
	c0.9-1.3,2-2.4,2.9-3.6c1-1.3,2.1-3.1,2.1-5.2"/>
</svg>
