<?xml version="1.0" encoding="utf-8"?>
<!-- Generator: Adobe Illustrator 24.1.0, SVG Export Plug-In . SVG Version: 6.00 Build 0)  -->
<svg version="1.1" id="Layer_1" xmlns="http://www.w3.org/2000/svg" xmlns:xlink="http://www.w3.org/1999/xlink" x="0px" y="0px"
	 viewBox="0 0 18.3 29.5" style="enable-background:new 0 0 18.3 29.5;" xml:space="preserve">
<style type="text/css">
	.st0{opacity:0;fill:none;stroke:#231F20;stroke-width:1.000000e-02;stroke-miterlimit:10;}
	.st1{fill:none;stroke:#231F20;stroke-miterlimit:10;}
</style>
<rect x="0" y="0" class="st0" width="18.3" height="29.5"/>
<line class="st0" x1="9.1" y1="0" x2="9.1" y2="29.5"/>
<path class="st1" d="M9.1,0c0,0.8,0,1.4,0,2.6c0,2.1-1.8,2.2-3.2,2.3C4.4,5.1,4,5.4,2.5,6C2.3,6,2.2,6.1,2.1,6.2C2,6.3,2,6.5,2,6.7
	c-0.2,3.6-0.1,7.2,0.3,10.7c0.1,0.5,0.1,1,0.5,1.3c0.2,0.2,0.6,0.2,0.9,0.2c2.4-0.1,3.5-1.6,5.9-1.1c1.6,0.3,2.4,1.6,4.1,1.8
	c0.7,0.1,1.5-0.1,1.9-0.8c0.3-0.5,0.4-1.1,0.5-1.7c0.4-3.2,0.5-6.4,0-9.6c-0.1-0.7-0.3-1.5-0.6-2c-0.4-0.6-1-1-1.6-0.9
	c-1.1,0.2-1.5,0.4-2.6,0.7c-0.7,0.2-1.3,0.6-1.7,1.3C9.5,6.7,9.5,7,9.5,7.2c-0.2,2.3-0.4,4.7,0.1,7c0.1,0.4,0.2,0.8,0.4,1.2
	c0.2,0.3,0.5,0.4,0.8,0.6c0.8,0.4,1.6,0.9,2.5,1.1c0.3,0.1,0.7,0,0.9-0.3c0.1-0.2,0.1-0.3,0.1-0.5c0.1-2,0.2-4.1,0.2-6.1
	c0-0.9,0-1.8-0.2-2.6c-0.1-0.2-0.1-0.5-0.3-0.6c-0.1-0.1-0.2-0.1-0.4-0.1c-1,0-1.9,0-2.9,0.1C8.8,6.9,7.7,7.1,5.9,7.3
	C5.6,7.4,3.1,7.6,3.1,8.3c0,1.1,4.7,1,4.7,1.7s-5,1-4.5,1.7c0.5,0.7,4.5,0.6,4.5,1.6s-5,0.2-4.5,1s3.7,2,4.2,3
	c0.7,1.2,0.9,4.7,1.6,5s5.8-2.3,4-3.8c-1.8-1.5-3.2-0.3-2.1,1.2s2.8,2.8,2.5,4.6c-0.3,1.8-4.4,3.3-4.4,5.3"/>
</svg>
