<?xml version="1.0" encoding="utf-8"?>
<!-- Generator: Adobe Illustrator 24.1.0, SVG Export Plug-In . SVG Version: 6.00 Build 0)  -->
<svg version="1.1" id="Layer_1" xmlns="http://www.w3.org/2000/svg" xmlns:xlink="http://www.w3.org/1999/xlink" x="0px" y="0px"
	 viewBox="0 0 18.3 29.5" style="enable-background:new 0 0 18.3 29.5;" xml:space="preserve">
<style type="text/css">
	.st0{opacity:0;fill:none;stroke:#231F20;stroke-width:1.000000e-02;stroke-miterlimit:10;}
	.st1{fill:none;stroke:#231F20;stroke-miterlimit:10;}
</style>
<rect x="0" y="0" class="st0" width="18.3" height="29.5"/>
<line class="st0" x1="9.1" y1="0" x2="9.1" y2="29.5"/>
<path class="st1" d="M9.1,29.5c0-1.5-0.8-4.2-0.3-5.5c1.1-2.7,2.8-5.2,4.3-7.7c0.5-0.8,0.9-1.7,0.6-2.5c-0.2-0.5-0.7-0.9-1.1-1.2
	c-1.3-0.9-2.7-1.7-4.1-2.5C7.5,9.7,6.4,9,6.2,7.9c-0.1-0.5,0.1-1,0.3-1.5C7.3,5,8.8,2.7,9.9,3.1c1,0.3-1.1,1.9-1.4,3
	c-0.3,1.2,0.9,2.2,1.9,2.9c2.2,1.4,4.2,3.1,6.2,4.8c0.5,0.4,1,0.9,0.9,1.6c0,0.5-0.5,0.8-0.7,1.2c-1.2,2.9-1.2,5.1-1.3,8.1
	c0,0.2,0,0.4-0.1,0.5c-0.2,0.2-0.5,0.3-0.8,0.3c-1.4,0-14.5,0.5-13.7-2.2c0.7-2.3,10.5-7,9.8-8.7C10,12.8,3,11.3,3,9
	c0-3.1,2.6-5.3,5-6.9C8.5,1.7,9.1,1,9.1,0"/>
</svg>
