<?xml version="1.0" encoding="utf-8"?>
<!-- Generator: Adobe Illustrator 24.1.0, SVG Export Plug-In . SVG Version: 6.00 Build 0)  -->
<svg version="1.1" id="Layer_1" xmlns="http://www.w3.org/2000/svg" xmlns:xlink="http://www.w3.org/1999/xlink" x="0px" y="0px"
	 viewBox="0 0 18.3 29.5" style="enable-background:new 0 0 18.3 29.5;" xml:space="preserve">
<style type="text/css">
	.st0{opacity:0;fill:none;stroke:#231F20;stroke-width:1.000000e-02;stroke-miterlimit:10;}
	.st1{fill:none;stroke:#231F20;stroke-miterlimit:10;}
</style>
<rect x="0" y="0" class="st0" width="18.3" height="29.5"/>
<line class="st0" x1="9.1" y1="0" x2="9.1" y2="29.5"/>
<path class="st1" d="M9.1,29.5c0-1.2,0.5-1.7,0.7-2c0.4-0.6,0.8-1.1,1.4-1.5c0.6-0.4,1.3-0.7,2-1c0.5-0.2,1-0.6,1.2-1.2
	c0-0.1,0.1-0.2,0.1-0.3c0.2-0.7-0.6-1.3-0.9-1.7c-0.6-0.9-1.3-2.1-1.6-3.1c-0.4-1.3,0.5-2.6,1-3.7c0.8-1.8-0.1-2.7-0.6-4.5
	c-0.2-0.8-0.5-1.7-0.6-2.6c0-0.5,0.2-1.6-0.7-1.4c-1.1,0.2-1.2,1.7-1.1,2.6c0.1,1.5,0.6,2.2-1,3.1c-0.8,0.5-0.8,2.5-0.9,3.3
	c-0.3,2.2-0.2,4.3,0.4,6.4c0.1,0.3,1.3,3.7,1,3.8c-0.4,0.1-1.1-2.6-1.3-2.8c-0.2-0.3-0.4-0.5-0.6-0.8c-1.3-1.5-2.1-3-2.8-4.9
	c-0.4-1-0.1-2.8-0.3-3.2c-0.1-0.3-0.4-0.9-0.9-1.2c-0.5-0.3-0.9-0.1-1.2-0.7c-0.2-0.4,0.2-0.6,0.4-0.8c0.2-0.2,0.7,0.2,0.9,0.2
	s0.5,0.3,0.6,0.4C4.6,12,5.2,13,5.3,13c0.1,0,0.2-0.4,0.2-0.6c0-0.5-0.3-1.4-0.8-1.9c-0.3-0.3-0.6-0.3-0.9-0.3
	c-0.6,0-0.9,0.4-1.4-0.2c-0.2-0.3-0.2-0.6,0-0.6C3.1,8.9,4,8.7,4.2,8.8c0.2,0.1,1.1,0,1.4,0.7c0.2,0.5,0.8,1.4,1.1,1.5
	c0.2,0.1,0.1,0.1,0.2-0.1c0-0.2-1-1.6-1.1-1.9C5.1,7.7,2.3,8,2.7,6.4c0.1-0.3,0.7-0.3,0.9-0.2c0.2,0.1,0.8,0.1,1.1,0.1
	c0.8,0,1.7,1.1,2.3,1.4c0.4,0.2,0.8,1.9,1,2.3c0.1,0.4,0.2,0.3,0.4,0c0.9-2.2-1.8-4.5-1.8-6.7c0-0.4,0.1-0.6,0.6-0.7
	c1-0.2,1.5,2,1.8,2.7C9.2,5.5,9.7,6,9.7,6.3S10,4,9.4,2.5C9,1.8,9.1,1.3,9.1,0"/>
</svg>
