<?xml version="1.0" encoding="UTF-8"?>
<svg width="577px" height="1024px" viewBox="0 0 577 1024" version="1.1" xmlns="http://www.w3.org/2000/svg" xmlns:xlink="http://www.w3.org/1999/xlink">
    <!-- Generator: Sketch 58 (84663) - https://sketch.com -->
    <title>Day Eight Update 2</title>
    <desc>Created with Sketch.</desc>
    <defs>
        <polygon id="path-1" points="0.734028531 0.824746166 107.734029 0.824746166 107.734029 255.824746 0.734028531 255.824746"></polygon>
        <polygon id="path-3" points="0 0 197 0 197 470 0 470"></polygon>
    </defs>
    <g id="Day-Eight-Update-2" stroke="none" stroke-width="1" fill="none" fill-rule="evenodd">
        <g id="Group-7" transform="translate(114.899801, 34.899801) rotate(45.000000) translate(-114.899801, -34.899801) translate(-12.600199, -140.100199)" stroke="#231F20">
            <polygon id="Stroke-1" stroke-width="0.01" points="0.473827714 349.4261 254.473828 349.4261 254.473828 0.426100499 0.473827714 0.426100499"></polygon>
            <path d="M127.473828,0.426100499 L127.473828,349.4261" id="Stroke-3" stroke-width="0.01"></path>
            <path d="M126.413541,339.658334 C126.413541,331.919486 132.741709,317.479377 141.879542,311.756799 C154.541924,303.829162 263.402438,271.099155 208.805173,307.034048 C186.441212,321.753565 165.361928,321.291409 138.347436,320.125447 C104.829455,318.678566 72.0656547,306.41935 40.6711695,296.270042 C34.0029397,294.114825 27.2787886,291.681709 22.0161467,287.587249 C20.9430635,286.750535 19.8639348,285.696336 19.9440382,284.4609 C20.0196074,283.294938 21.1047817,282.370626 22.1929788,281.659268 C29.8300062,276.667681 40.2676297,276.404887 49.8891054,276.817202 C93.9444613,278.705094 129.842873,292.896002 173.44028,281.746866 C184.928315,278.810816 196.547842,273.58211 201.872451,264.443202 C206.770849,256.029245 205.380375,246.023417 203.067956,236.845241 C200.755537,227.667064 197.616391,218.309161 199.384711,209.043386 C201.154543,199.776102 209.693867,190.587353 220.734533,190.631152 C226.054608,190.652297 231.150997,192.818087 235.027699,195.91423 C241.573507,201.138405 244.895531,209.134005 243.657706,216.693125 C241.686861,228.737877 229.48394,237.623052 217.080005,243.682431 C191.179403,256.332818 171.176225,260.640232 141.388342,262.5538 C127.457908,263.447906 113.2388,263.586854 99.7587586,260.468057 C86.2787175,257.350769 73.4833337,250.622322 66.426678,240.373333 C59.9110981,230.909708 60.1166464,209.585589 47.5948233,204.820549 C35.9888993,200.402882 20.202485,209.564445 13.2561604,216.886445 C4.38130877,226.241328 10.0429563,233.824613 21.7985073,238.169786 C53.2836757,249.809773 107.389741,271.349867 133.46264,240.430725 C140.921324,231.587839 142.500721,220.012795 142.218092,209.416434 C141.873496,196.405082 142.184842,183.39675 143.286641,170.365764 C144.665024,154.07552 147.019762,137.842669 150.337251,121.756318 C151.611349,115.586687 164.314538,83.9003058 156.509747,79.8254795 C153.633582,78.3242277 150.249591,80.7422399 147.730113,82.6512763 C134.851603,92.3973305 114.466044,91.4488535 102.248009,81.3222003 C90.6798701,71.7347291 87.5890881,56.2374005 92.1625386,43.0644446 C97.733503,27.0158516 109.540441,26.6911341 126.238221,25.3288312 C140.538944,24.1613587 126.238221,10.4190146 126.238221,6.65833355" id="Stroke-6"></path>
        </g>
        <g id="Group-7" transform="translate(721.500000, 54.000000) rotate(-40.000000) translate(-721.500000, -54.000000) translate(639.000000, -80.000000)" stroke="#231F20" stroke-width="0.01">
            <polygon id="Stroke-1" points="0.367895994 266.961773 164.367896 266.961773 164.367896 0.961773155 0.367895994 0.961773155"></polygon>
        </g>
        <g id="Group-3" transform="translate(696.000000, 991.000000) rotate(40.000000) translate(-696.000000, -991.000000) translate(642.000000, 863.000000)">
            <mask id="mask-2" fill="white">
                <use xlink:href="#path-1"></use>
            </mask>
            <g id="Clip-2"></g>
            <path d="M60.1683854,0.824746166 C60.1683854,11.8071434 59.4423543,15.9522944 62.3464788,22.5586287 C67.9183456,35.2531535 65.4194478,58.0064278 65.2449752,55.3481245 C65.0648744,52.6898211 60.6411499,48.0884783 59.4029573,45.6103989 C56.5945113,39.9896643 52.7561141,21.1618931 43.8129865,22.5811567 C39.5074531,23.2626285 38.4268486,25.307044 38.4268486,28.8270431 C38.4268486,47.6604464 61.6767292,67.3499135 53.7916934,86.5325007 C52.6154104,89.3879239 51.5685749,89.8891718 50.5836489,86.5325007 C49.5930948,83.1758295 45.9066577,68.7410171 42.3834369,67.0626815 C36.5245345,64.2748422 28.8927655,55.1566365 22.2346661,55.1510045 C19.5500393,55.1453725 15.0362644,54.6272287 13.0326437,53.8781729 C11.0177666,53.134749 5.64851312,53.134749 4.97876348,55.9845403 C1.65252785,70.1321208 25.7016054,67.3386495 29.9733699,78.4900067 C31.0145774,81.215894 40.0308709,93.9216828 39.8676546,95.2620985 C39.6988102,96.6025141 39.8170013,96.8221621 38.4324768,96.1294262 C35.9392071,94.8847546 30.7556826,87.5913164 29.292364,82.9111256 C27.3675373,76.7835111 19.5387831,77.115799 17.6027,76.4681192 C15.6215919,75.8035433 8.50198429,77.5100389 1.97896045,80.9624541 C0.661973754,81.6664539 0.00348040644,84.0656853 1.99021675,86.4987087 C6.73474574,92.3052992 9.45314135,88.5374922 14.4453089,88.6050761 C16.5333519,88.6332361 19.1616971,88.6388681 22.003912,91.4604994 C26.2137669,95.6338104 28.6563833,103.957904 28.7070366,108.007311 C28.7070366,109.404047 28.1836188,112.704398 27.316884,112.87899 C26.4501491,113.053582 20.8951668,104.019856 19.6794868,103.152528 C18.4638067,102.285201 15.8579741,100.404113 14.298977,100.043665 C12.7343518,99.6775854 8.40067763,96.9010101 6.48710721,98.2921137 C4.57916495,99.6775854 1.23604488,101.333393 2.81192639,105.039248 C5.2151457,110.688143 8.98600505,108.508559 13.3647044,111.318926 C17.3606897,113.887118 19.6794868,119.023501 20.9458201,121.963404 C22.6061239,125.804427 20.2704423,141.196679 23.6698439,149.700997 C30.0015107,165.532545 37.2899627,178.73395 48.2085703,191.78329 C50.0320904,193.957242 51.8612386,196.148089 53.2345067,198.631801 C54.4164179,200.766328 60.9000447,224.223602 64.063064,222.990194 C66.4662833,222.055283 56.0879779,192.408442 55.3900875,189.851515 C50.3528948,171.451775 49.8970148,153.446276 52.3002341,134.494601 C53.1725971,127.601034 53.3808386,110.310799 60.3935113,106.244496 C73.591519,98.5962416 69.1677945,92.1307073 68.6331204,79.5657184 C68.3179441,71.9963123 69.0270908,58.9638676 78.4148421,56.9757721 C85.8046008,55.4157085 83.6827889,64.6352902 84.0429904,69.214105 C84.6564585,76.991895 87.0709342,84.9386451 89.0858112,92.0293313 C93.3688321,107.151247 101.158189,115.064205 94.5901402,130.664842 C90.369029,140.689799 82.5233903,151.294852 85.9565608,162.744706 C88.736866,172.014975 94.8208943,181.538685 99.8355744,189.716347 C101.968643,193.19129 108.925034,198.817656 107.557394,204.646775 C107.360409,205.502839 107.107142,206.353271 106.786338,207.181174 C104.889652,212.109173 100.79236,215.054708 96.1209966,217.132916 C90.065109,219.819379 84.0598748,221.959539 78.5668021,225.789298 C73.6027753,229.252977 69.5448804,233.302384 66.2918107,238.404975 C64.1868833,241.474414 60.1683854,245.270381 60.1683854,255.824746" id="Stroke-1" stroke="#030404" mask="url(#mask-2)"></path>
        </g>
        <g id="Group-3" transform="translate(494.500000, 970.000000) rotate(40.000000) translate(-494.500000, -970.000000) translate(396.000000, 735.000000)">
            <mask id="mask-4" fill="white">
                <use xlink:href="#path-3"></use>
            </mask>
            <g id="Clip-2"></g>
            <path d="M109.425872,0 C109.425872,20.2420655 108.089161,27.8821477 113.436007,40.0585286 C123.69449,63.4562802 119.093716,105.393688 118.772491,100.49407 C118.440903,95.5944519 110.296289,87.1135455 108.016626,82.5461051 C102.845936,72.1863198 95.7789801,37.4841531 79.3135956,40.1000508 C71.3865855,41.3560969 69.3970613,45.1242353 69.3970613,51.6120768 C69.3970613,86.324624 112.202916,122.615014 97.6856073,157.971155 C95.5199274,163.234092 93.592576,164.157961 91.7792076,157.971155 C89.9554772,151.78435 83.1682986,125.179009 76.681621,122.085606 C65.8946699,116.947236 51.8436559,100.141131 39.5852859,100.130751 C34.642562,100.12037 26.332154,99.1653599 22.6432447,97.7847472 C18.9336112,96.4145151 9.04816322,96.4145151 7.81507275,101.667072 C1.69106884,127.743004 45.9683425,122.594253 53.83318,143.147735 C55.7501694,148.17192 72.3502612,171.590432 72.0497602,174.061002 C71.738897,176.531572 71.9565012,176.936414 69.4074234,175.659606 C64.817011,173.365506 55.2735126,159.922698 52.5793653,151.296464 C49.0355255,140.002429 34.6218378,140.614882 31.0572737,139.421119 C27.4098129,138.196214 14.3017503,141.34152 2.29207092,147.704795 C-0.132661598,149.002363 -1.34502786,153.424476 2.31279512,157.908872 C11.0480494,168.611215 16.052946,161.66663 25.244133,161.791196 C29.0884738,161.843099 33.9275767,161.85348 39.1604397,167.054133 C46.911294,174.746118 51.4084475,190.088566 51.5017064,197.552179 C51.5017064,200.126554 50.5380307,206.209555 48.9422665,206.531351 C47.3465024,206.853148 37.119105,190.202752 34.8808904,188.604148 C32.6426758,187.005544 27.8450213,183.538441 24.9747182,182.874086 C22.0940531,182.199351 14.1152324,177.081741 10.5921168,179.645736 C7.07936331,182.199351 0.924273087,185.251231 3.82566242,192.081631 C8.25028115,202.493319 15.1928913,198.476047 23.2546088,203.65594 C30.6117032,208.389469 34.8808904,217.856528 37.212364,223.275173 C40.2691849,230.354705 35.9689114,258.724739 42.2276227,274.399364 C53.8849905,303.57908 67.3039162,327.911081 87.4063994,351.962807 C90.7637214,355.969698 94.1314054,360.00773 96.659759,364.585551 C98.835801,368.519778 110.772946,411.754754 116.596449,409.481414 C121.021067,407.758244 101.913346,353.115047 100.628445,348.402279 C91.3543613,314.489034 90.5150308,281.302427 94.9396496,246.371889 C96.5457758,233.6661 96.9291737,201.797822 109.840356,194.303068 C134.139492,180.206286 125.994878,168.289418 125.010478,145.130419 C124.4302,131.178965 125.735825,107.158381 143.019816,103.494048 C156.625259,100.618636 152.718746,117.611591 153.38192,126.050975 C154.51139,140.38651 158.956733,155.033461 162.666366,168.102569 C170.551928,195.974336 184.893081,210.559003 172.800505,239.313117 C165.028926,257.79049 150.584152,277.337059 156.905036,298.440709 C162.023916,315.527089 173.225351,333.080593 182.457986,348.153146 C186.385224,354.557943 199.192786,364.928109 196.674794,375.671975 C196.31212,377.249818 195.845826,378.81728 195.255186,380.343221 C191.763156,389.426199 184.219544,394.855225 175.618997,398.685646 C164.469373,403.637167 153.413007,407.581774 143.299592,414.640546 C134.160216,421.024582 126.689139,428.488195 120.699842,437.89297 C116.824415,443.550368 109.425872,450.546856 109.425872,470" id="Stroke-1" stroke="#030404" mask="url(#mask-4)"></path>
        </g>
        <g id="Group-7" transform="translate(58.500000, 1006.500000) rotate(-35.000000) translate(-58.500000, -1006.500000) translate(-73.000000, 733.000000)" stroke="#231F20">
            <polygon id="Stroke-1" stroke-width="0.01" points="0.993163697 545.493164 262.993164 545.493164 262.993164 0.493163697 0.993163697 0.493163697"></polygon>
            <path d="M131.286057,1.20027048 L131.286057,546.20027" id="Stroke-3" stroke-width="0.01"></path>
            <path d="M131.99294,20.4931637 C131.99294,20.4931637 132.370325,26.8790697 132.370325,48.6607112 C132.370325,87.0116374 105.93681,89.0700806 87.1780168,91.8004754 C64.4115791,95.1152788 58.3181928,100.519284 36.4132973,110.503916 C34.3514869,111.443229 32.1552905,112.559993 30.8795453,115.191015 C29.7473904,117.523917 29.5725047,120.585556 29.4454825,123.47684 C26.5571069,189.29497 27.9801243,255.548449 33.6869212,320.940694 C34.4564183,329.751777 35.6695729,339.511637 40.3970097,344.754753 C43.9370647,348.682357 48.6368881,349.070385 53.0219171,348.847979 C87.1614487,347.132609 103.654092,319.237155 137.348125,327.769047 C160.82331,333.712506 172.395221,357.533663 196.133655,360.110266 C206.34514,361.217566 217.598575,357.443754 223.982824,345.291841 C228.609011,336.480757 229.941825,324.80205 230.991139,313.646234 C236.495436,255.188813 238.511224,195.366195 231.543409,137.26841 C229.95287,124.009196 227.776924,110.46606 222.511943,99.6130955 C217.270895,88.8121837 208.316746,81.8820916 199.375484,83.867188 C183.933996,87.2931946 178.017337,91.1853085 162.664212,96.4023973 C152.771204,99.7645212 143.597988,106.749032 138.971801,121.174697 C137.769692,124.924849 137.493556,129.174233 137.237671,133.321877 C134.586772,176.210843 131.97085,220.008362 138.474757,261.941453 C139.658457,269.581353 141.248997,277.410535 144.763279,283.167078 C147.68295,287.946452 151.662981,290.851933 155.541761,293.648577 C166.992173,301.903644 178.63588,310.250986 191.152174,313.305526 C195.851997,314.453049 201.623226,314.119439 204.125012,307.970136 C205.295826,305.093048 205.444939,301.553472 205.562756,298.174786 C206.85507,260.819956 208.149224,223.434369 207.821543,186.03222 C207.679794,169.761054 207.212205,153.324267 204.364329,137.63751 C203.546969,133.132595 202.280428,128.253848 199.496984,126.256922 C197.948785,125.142523 196.166792,125.123595 194.452912,125.125961 C180.609327,125.147255 166.809924,125.232432 152.979226,126.062908 C127.03355,127.619753 112.009947,131.308389 86.2299522,136.132717 C81.1048804,137.093324 45.2551507,140.398663 45.2533098,153.466228 C45.2533098,174.327486 113.096079,172.678365 113.096079,185.194646 C113.096079,197.710927 41.1315297,203.969068 48.0017768,216.485349 C54.8720239,229.00163 113.096079,227.352509 113.096079,246.126931 C113.096079,264.901352 41.1315297,250.719389 48.0017768,264.482566 C54.8720239,278.243377 100.454604,300.649649 108.974299,319.594425 C118.674013,341.16549 121.437207,405.412578 131.99294,412.602933 C142.548674,419.795654 215.293766,370.411946 188.806865,342.604034 C162.319963,314.793757 142.706991,337.136147 158.216592,364.177465 C173.726194,391.22115 198.504737,415.960325 194.775069,448.561807 C191.045402,481.165654 131.99294,505.585415 131.99294,525.493164" id="Stroke-6"></path>
        </g>
        <g id="Group-7" transform="translate(533.899801, 69.399801) rotate(-40.000000) translate(-533.899801, -69.399801) translate(428.399801, -132.100199)" stroke="#231F20">
            <polygon id="Stroke-1" stroke-width="0.01" points="0.52146997 401.594901 210.52147 401.594901 210.52147 0.594900738 0.52146997 0.594900738"></polygon>
            <path d="M106.387495,1.09490074 L106.387495,402.094901" id="Stroke-3" stroke-width="0.01"></path>
            <path d="M106.018368,394.768294 C106.936037,367.826816 105.832217,351.731684 92.5281941,358.580749 C86.8462072,361.506049 86.6411496,348.199441 83.696173,337.125703 C80.7541051,326.051965 129.617447,262.890457 130.05374,250.062566 C130.490033,237.232964 126.972058,217.923594 123.918008,211.030077 C120.862504,204.13656 121.68128,203.180837 121.466043,182.746482 C121.250805,162.312128 124.74551,162.01293 124.74551,149.903113 C124.74551,137.793297 118.366909,133.146328 117.126383,131.47082 C115.885857,129.793603 112.126468,132.936034 109.629418,130.631356 C107.135278,128.324969 107.670464,110.928754 106.956398,109.46183 C106.242332,107.994906 101.952119,110.465425 99.8855454,107.430705 C97.820426,104.395984 102.984679,96.5022919 103.502413,90.4311413 C104.017238,84.3599907 100.40328,67.3604272 126.739369,62.5048745 C153.076912,57.6476121 146.881554,104.395984 147.534539,110.465425 C148.187524,116.538286 136.551594,117.752174 137.584154,127.464989 C138.618168,137.179514 146.36382,135.356972 149.979233,149.320105 C153.594646,163.284948 132.419901,169.356099 109.181491,168.749155 C85.9430811,168.142211 53.8377466,182.117312 54.7888649,194.418616 C55.7414376,206.719919 79.545574,232.999743 86.2034024,246.979974 C90.6143229,256.239718 91.0506157,268.701733 90.3729075,283.211971 C90.0209646,293.579602 88.6451879,306.59727 84.4989518,315.853595 C79.9396918,326.02803 70.3557928,327.833475 65.1682712,336.670922 C52.0242227,359.069724 74.1399059,394.602453 96.2875839,388.478302 C108.439793,385.115319 106.018368,301.934914 104.83456,264.608707 C104.36191,249.741142 97.3594099,238.552854 98.9358813,237.167996 C116.016745,222.173912 108.541595,207.969711 108.541595,207.969711 C95.0514209,192.862787 85.6245873,200.633381 66.6923874,168.552539 C60.3574156,157.815613 62.4239893,141.949581 59.2303258,140.169782 C56.0366624,138.391692 51.3639663,141.15628 59.2201457,147.324883 C67.0777794,153.491777 85.077767,138.557533 86.6164263,136.181048 C88.15654,133.807982 76.5395164,122.573532 75.9679728,118.870319 C75.3935206,115.167105 78.95367,114.602903 75.8908944,111.498085 C72.8295731,108.393267 67.46608,109.675543 61.8815319,105.132866 C56.2969838,100.590189 47.428605,97.8820212 39.767303,109.073728 C37.2208073,109.46525 25.4001804,124.688433 36.2973208,141.340928 C47.1930069,157.993422 42.2890755,277.118594 32.4841215,282.883708 C22.6762589,288.647113 42.2890755,248.939292 43.3798076,223.319412 C44.4690853,197.701243 21.0416151,154.791151 19.4069713,126.610138 C17.7737818,98.4308354 58.088693,87.5434552 60.2672485,92.6657214 C62.4458039,97.7896973 50.1554351,101.451878 39.767303,109.073728 C32.1510847,114.662743 -6.04489765,89.8566816 20.843829,70.4054058 C47.729647,50.9541301 62.1447619,64.2641575 74.600922,41.2276373 C82.5923522,26.4541053 63.9873719,20.0957249 54.5503582,25.412897 C42.7864494,32.0414103 81.5147089,46.3396453 90.7641168,42.9407584 C100.013525,39.5435812 106.018368,21.5643586 106.018368,14.7682945" id="Stroke-6"></path>
        </g>
    </g>
</svg>