<?xml version="1.0" encoding="utf-8"?>
<!-- Generator: Adobe Illustrator 24.1.0, SVG Export Plug-In . SVG Version: 6.00 Build 0)  -->
<svg version="1.1" id="Layer_1" xmlns="http://www.w3.org/2000/svg" xmlns:xlink="http://www.w3.org/1999/xlink" x="0px" y="0px"
	 viewBox="0 0 18.3 29.5" style="enable-background:new 0 0 18.3 29.5;" xml:space="preserve">
<style type="text/css">
	.st0{opacity:0;fill:none;stroke:#231F20;stroke-width:1.000000e-02;stroke-miterlimit:10;}
	.st1{fill:none;stroke:#231F20;stroke-miterlimit:10;}
</style>
<rect x="0" y="0" class="st0" width="18.3" height="29.5"/>
<line class="st0" x1="9.1" y1="0" x2="9.1" y2="29.5"/>
<path class="st1" d="M9.1,29.5c0-1.5,0.3-6-0.8-5.5c-0.5,0.2-0.5-0.8-0.8-1.6c-0.3-0.8,3.6-3.2,3.7-4.1c0-0.9-0.3-2.4-0.5-2.9
	c-0.3-0.5-0.2-0.6-0.2-2.1c0-1.5,0.3-1.5,0.3-2.4c0-0.9-0.6-1.2-0.7-1.4S9.7,9.7,9.4,9.5S9.3,8.1,9.2,8C9.1,7.9,8.8,8,8.6,7.8
	C8.4,7.6,8.9,7,8.9,6.6c0-0.4-0.3-1.7,2-2.1s1.7,3.1,1.8,3.5c0.1,0.4-1,0.5-0.9,1.3c0.1,0.7,0.8,0.6,1.1,1.6c0.3,1-1.5,1.5-3.5,1.4
	s-4.8,1-4.7,1.9c0.1,0.9,2.1,2.8,2.7,3.9c0.4,0.7,0.4,1.6,0.4,2.7c0,0.8-0.1,1.7-0.5,2.4c-0.4,0.8-1.2,0.9-1.7,1.5
	c-1.1,1.7,0.8,4.3,2.7,3.8c1.1-0.2,0.8-6.4,0.7-9.1c0-1.1-0.6-1.9-0.5-2c1.5-1.1,0.8-2.2,0.8-2.2c-1.2-1.1-2-0.5-3.6-2.9
	c-0.5-0.8-0.4-2-0.6-2.1c-0.3-0.1-0.7,0.1,0,0.5c0.7,0.5,2.2-0.6,2.4-0.8s-0.9-1-0.9-1.3c0-0.3,0.3-0.3,0-0.5C6.3,7.9,5.8,8,5.3,7.7
	S4.1,7.1,3.4,7.9c-0.2,0-1.2,1.2-0.3,2.4s0.5,10-0.3,10.4s0.8-2.5,0.9-4.4c0.1-1.9-1.9-5.1-2.1-7.1S5,6.4,5.2,6.7
	c0.2,0.4-0.9,0.6-1.8,1.2c-0.7,0.4-4-1.4-1.6-2.9s3.6-0.5,4.7-2.2c0.7-1.1-0.9-1.6-1.7-1.2c-0.7,0.3,0.8,0.9,1,1
	c1,0.3,2,0.7,2.8-0.2C9.1,1.8,9.1,1.1,9.1,0"/>
</svg>
