<svg width="302" height="335" viewBox="0 0 302 335" fill="none" xmlns="http://www.w3.org/2000/svg">
<g clip-path="url(#clip0)">
<path d="M-84.646 431.257C-68.646 415.257 -56.771 415.603 -48.909 414.141C-36.4763 411.444 -23.6279 411.279 -11.13 413.655C3.024 416.207 15.412 422.099 28.677 427.219C38.941 431.17 49.635 432.933 59.997 428.341C61.727 427.559 63.403 426.663 65.014 425.658C75.926 418.89 73.895 399.783 75.92 391.28C80.703 371.259 85.92 347.557 95.731 329.27C107.877 306.686 135.878 302.525 157.52 293.734C191.163 280.049 191.33 256.226 207.756 226.765C215.456 212.959 223.815 197.226 234.683 184.496C241.099 177.005 258.311 166.244 244.703 157.377C227.423 146.121 206.574 164.82 195.561 176.777C177.321 196.644 174.239 213.177 142.573 204.719C125.744 200.229 99.213 226.129 87.425 235.267C55.035 260.367 28.4 288.367 8.164 323.943C5.35 328.881 -23.857 389.613 -28.917 387.382C-35.602 384.442 -9.88299 339.001 -8.44499 333.969C-6.74499 328.126 -6.21199 322.007 -5.69199 315.953C-2.47999 279.564 6.462 248.461 20.854 214.819C28.586 196.753 55.476 176.944 58.773 168.612C61.311 162.219 65.573 150.9 63.393 140.939C61.014 130.021 51.983 127.591 56.902 115.381C60.107 107.35 67.709 109.924 72.716 110.714C77.723 111.504 80.101 122.314 81.938 125.252C83.775 128.19 84.867 134.991 85.393 138.136C85.92 141.308 80.667 163.451 82.24 164.5C83.813 165.549 89.629 161.36 91.75 159.239C97.813 153.018 106.713 136.67 106.665 123.946C106.62 115.336 102.62 111.337 99.499 108.137C92.012 100.437 82.171 102.019 83.759 86.0061C84.436 79.2711 89.073 76.6531 92.127 77.5861C107.305 82.2611 120.716 90.4861 122.698 94.5111C124.666 98.4441 137.084 109.84 130.698 122.049C125.83 131.376 122.645 150.322 124.549 155.998C125.6 159.144 125.743 158.633 128.049 156.852C130.328 155.098 135.902 122.118 138.44 116.38C148.868 92.9701 108.079 60.6661 134.591 44.2801C139.935 40.9551 148.091 49.1121 150.034 53.3061C151.95 57.5061 158.009 65.1321 162.101 69.2231C172.201 79.3471 169.974 104.781 174.635 117.923C177.445 125.814 161.162 153.323 157.563 159.911C153.989 166.5 156.336 167.328 162.454 164.776C203.524 147.676 198.054 82.4661 226.616 53.9051C231.959 48.5621 236.702 47.0971 244.28 52.6051C260.026 64.0561 237.313 98.4401 233.063 111.24C231.18 116.873 230.914 130.593 227.143 134.889C223.398 139.189 261.707 108.481 272.486 80.7331C278.098 66.3091 285.486 61.1251 302.143 44.4671" stroke="#231F20"/>
</g>
<defs>
<clipPath id="clip0">
<rect width="302" height="335" fill="white"/>
</clipPath>
</defs>
</svg>
