<svg width="295" height="291" viewBox="0 0 295 291" fill="none" xmlns="http://www.w3.org/2000/svg">
<g clip-path="url(#clip0)">
<path d="M516.569 269.264C484.624 240.19 463.539 225.208 455.827 251.475C452.533 262.692 435.958 249.283 418.803 242.132C401.648 234.98 383.341 99.3559 368.131 85.5142C352.921 71.6725 324.963 56.8637 312.807 54.1741C300.652 51.4845 300.466 49.32 275.127 28.5847C249.788 7.84936 253.659 2.49 238.801 -9.97842C223.943 -22.4468 210.514 -18.0274 206.954 -17.9593C203.395 -17.8911 202.696 -9.22925 196.846 -7.99715C190.997 -6.76504 170.296 -25.4571 167.632 -25.9413C164.967 -26.4255 162.797 -17.6782 156.574 -17.823C150.35 -17.9679 146.918 -33.5531 140.101 -40.5545C133.284 -47.5558 108.039 -59.841 133.984 -102.873C159.929 -145.905 209.782 -88.8159 218.022 -83.5073C226.262 -78.1987 213.658 -60.1419 226.822 -51.6298C239.987 -43.1177 247.14 -56.1793 268.653 -47.0196C290.166 -37.8599 271.967 -1.02677 243.073 31.9082C214.18 64.8432 192.438 125.599 208.684 136.895C224.93 148.191 286.011 140.88 311.228 145.664C327.933 148.831 343.753 161.037 360.735 176.96C373.03 188.147 387.337 203.541 393.667 219.062C400.629 236.125 391.235 251.825 395.795 268.418C407.357 310.47 477.747 315.129 497.062 276.839C507.661 255.828 402.666 173.651 355.434 136.917C336.618 122.287 314.406 120.876 314.62 117.172C316.911 77.0628 290.428 73.2278 290.428 73.2278C255.553 77.1495 253.667 98.7677 191.372 93.0653C170.524 91.1546 153.559 71.8297 147.507 74.6147C141.455 77.3996 139.189 86.9902 156.274 81.9986C173.359 77.007 176.836 35.6182 175.785 30.951C174.734 26.2839 146.881 31.4885 141.645 28.4992C136.41 25.51 140.025 19.7915 132.505 21.0174C124.985 22.2433 120.065 31.3027 107.73 34.6919C95.3961 38.0812 81.3192 48.0965 85.7752 70.6868C83.166 74.7732 87.5303 107.522 121.162 108.935C154.793 110.348 295.018 240.123 290.218 260.221C285.417 280.318 260.446 211.1 230.331 183.137C200.217 155.173 119.186 144.816 82.6281 118.151C46.0704 91.4852 81.5497 22.0588 90.4729 24.1837C99.396 26.3087 89.0053 47.8352 85.7739 70.6868C83.4053 87.4422 6.70155 117.052 15.4078 58.1824C24.114 -0.687475 57.9026 -7.7854 44.7218 -49.4999C36.2734 -76.2558 5.93554 -55.9391 1.02837 -36.8321C-5.08854 -13.0122 59.364 -54.2141 66.4019 -71.0711C73.4397 -87.928 58.6513 -115.117 50.3157 -122.117" stroke="#231F20"/>
</g>
<defs>
<clipPath id="clip0">
<rect width="295" height="291" fill="white"/>
</clipPath>
</defs>
</svg>
