<svg width="334" height="306" viewBox="0 0 334 306" fill="none" xmlns="http://www.w3.org/2000/svg">
<g clip-path="url(#clip0)">
<path d="M-23.516 10.679C-23.516 10.679 -18.734 14.93 -3.33202 30.33C23.786 57.448 6.55098 77.595 -4.78302 92.79C-18.538 111.233 -19.025 119.362 -27.454 141.912C-28.248 144.034 -29.011 146.376 -28.054 149.139C-27.206 151.589 -25.164 153.878 -23.21 156.012C21.3071 204.612 68.9519 250.252 119.42 292.64C126.194 298.326 133.953 304.37 141.003 304.734C146.284 305.008 149.881 301.959 152.825 298.701C175.752 273.348 167.689 241.961 197.547 224.169C218.347 211.769 243.376 220.433 261.984 205.469C269.984 199.031 275.276 188.405 271.198 175.298C268.239 165.798 260.923 156.598 253.777 147.966C216.333 102.739 175.458 59.013 129.449 22.858C118.949 14.607 107.838 6.569 96.438 2.618C85.094 -1.313 73.862 0.117999 68.944 7.844C60.447 21.185 59.015 28.121 51.848 42.667C47.23 52.039 45.682 63.467 52.611 76.936C54.411 80.436 57.223 83.636 59.974 86.752C88.427 118.952 117.547 151.773 151.797 176.825C158.036 181.39 164.697 185.802 171.252 187.387C176.696 188.702 181.565 187.942 186.286 187.177C200.219 184.918 214.355 182.587 225.365 175.896C229.5 173.384 233.345 169.068 230.765 162.95C229.558 160.088 227.165 157.48 224.855 155.007C199.355 127.68 173.835 100.329 147.155 74.113C135.549 62.713 123.596 51.413 110.49 42.338C106.728 39.73 102.383 37.176 99.003 37.73C97.12 38.037 95.847 39.284 94.636 40.497C84.863 50.297 75.165 60.119 65.973 70.486C48.727 89.933 40.712 103.165 25.894 124.805C22.949 129.105 -0.0630169 156.795 9.17598 166.037C23.927 180.788 70.733 131.65 79.583 140.5C88.433 149.35 41.972 204.662 55.683 208.655C69.394 212.648 109.395 170.31 122.671 183.586C135.947 196.862 75.032 237.72 89.622 242.594C104.212 247.468 152.285 231.078 171.706 238.45C193.818 246.844 241.206 290.32 253.749 287.94C266.292 285.56 282.818 199.204 244.426 198.27C206.034 197.336 207.962 227.001 238.05 235.155C268.138 243.309 303.15 243.283 323.57 268.973C343.99 294.663 319.498 353.689 333.575 367.765" stroke="#231F20"/>
</g>
<defs>
<clipPath id="clip0">
<rect width="334" height="306" fill="white"/>
</clipPath>
</defs>
</svg>
