<svg width="259" height="263" viewBox="0 0 259 263" fill="none" xmlns="http://www.w3.org/2000/svg">
<g clip-path="url(#clip0)">
<path d="M-2.12873 196.808C5.13661 189.556 24.6315 181.949 38.5765 185.143C57.8982 189.571 190.75 260.834 105.797 243.386C70.9968 236.238 51.6556 216.067 27.4069 189.678C-2.68031 156.94 -21.903 114.773 -41.8309 75.8595C-46.0579 67.5958 -50.0859 59.019 -51.1798 50.2545C-51.4005 48.4621 -51.4231 46.467 -50.188 45.384C-49.023 44.3624 -47.1363 44.5124 -45.4455 44.8652C-33.5964 47.3386 -23.5526 56.8654 -14.9191 66.261C24.6387 109.284 44.9924 156.197 96.3601 186.573C109.895 194.578 125.704 200.559 139.28 196.981C151.774 193.679 159.864 183.004 166.312 172.237C172.76 161.471 178.602 149.762 188.96 142.734C199.318 135.707 215.959 135.093 226.275 145.47C231.247 150.47 233.994 157.273 234.724 163.805C235.961 174.83 231.569 185.434 223.311 191.358C210.154 200.801 190.364 197.7 173.038 191.763C136.863 179.367 114.053 164.676 84.3109 138.573C70.403 126.368 56.9332 113.183 47.2151 97.637C37.4971 82.092 31.8112 63.8065 34.8114 47.5943C37.5847 32.6245 57.8023 12.8342 50.5246 -3.35719C43.784 -18.3647 20.3735 -24.5577 6.98207 -24.204C-10.1271 -23.7474 -11.9354 -11.3397 -4.98661 3.74242C13.6226 44.1322 44.1573 114.982 97.6467 110.421C112.947 109.119 125.296 99.75 134.98 89.556C146.805 77.0615 159.379 65.1776 172.644 53.959C189.183 40.0195 206.633 27.0118 224.896 15.0077C231.884 10.4193 273.551 -7.37958 270.053 -18.5072C268.764 -22.6069 263.318 -23.5068 259.163 -24.0795C237.931 -27.0038 219.697 -46.9837 217.743 -67.9144C216.837 -77.0036 218.86 -86.1364 223.562 -94.1858C228.263 -102.235 235.438 -108.849 244.2 -113.211C264.494 -123.034 275.876 -112.281 292.819 -97.9229C307.331 -85.6255 306.818 -111.896 310.346 -115.42" stroke="#231F20"/>
</g>
<defs>
<clipPath id="clip0">
<rect width="259" height="263" fill="white"/>
</clipPath>
</defs>
</svg>
