<?xml version="1.0" encoding="utf-8"?>
<!-- Generator: Adobe Illustrator 24.1.0, SVG Export Plug-In . SVG Version: 6.00 Build 0)  -->
<svg version="1.1" id="Layer_1" xmlns="http://www.w3.org/2000/svg" xmlns:xlink="http://www.w3.org/1999/xlink" x="0px" y="0px"
	 viewBox="0 0 18.3 29.5" style="enable-background:new 0 0 18.3 29.5;" xml:space="preserve">
<style type="text/css">
	.st0{opacity:0;fill:none;stroke:#231F20;stroke-width:1.000000e-02;stroke-miterlimit:10;}
	.st1{fill:none;stroke:#231F20;stroke-miterlimit:10;}
</style>
<rect x="0" y="0" class="st0" width="18.3" height="29.5"/>
<line class="st0" x1="9.1" y1="0" x2="9.1" y2="29.5"/>
<path class="st1" d="M9.1,29.5c0-1.6,0.5-2.8,1.1-3.2c0.9-0.7,8.7-3.4,4.8-0.4c-1.6,1.2-3.1,1.2-5.1,1.1c-2.4-0.1-4.8-1.2-7-2
	c-0.5-0.2-1-0.4-1.3-0.7c-0.1-0.1-0.2-0.2-0.1-0.3c0-0.1,0.1-0.2,0.2-0.2c0.5-0.4,1.3-0.4,2-0.4c3.2,0.2,5.7,1.4,8.9,0.4
	c0.8-0.2,1.7-0.7,2-1.5c0.4-0.7,0.3-1.6,0.1-2.3c-0.2-0.8-0.4-1.6-0.3-2.3c0.1-0.8,0.7-1.6,1.5-1.6c0.4,0,0.7,0.2,1,0.4
	c0.5,0.4,0.7,1.1,0.6,1.8c-0.1,1-1,1.8-1.9,2.3c-1.9,1.1-3.3,1.4-5.4,1.6c-1,0.1-2,0.1-3-0.2s-1.9-0.8-2.4-1.7
	c-0.5-0.8-0.5-2.6-1.4-3c-0.8-0.4-2,0.4-2.5,1c-0.6,0.8-0.2,1.4,0.6,1.8c2.3,1,6.1,2.8,8,0.2c0.5-0.7,0.6-1.7,0.6-2.6
	c0-1.1,0-2.2,0.1-3.3c0.1-1.4,0.3-2.7,0.5-4.1c0.1-0.5,1-3.2,0.4-3.5c-0.2-0.1-0.4,0.1-0.6,0.2C9.7,7.8,8.3,7.7,7.4,6.8
	C6.6,6,6.3,4.7,6.7,3.6C7.1,2.2,7.9,2.1,9.1,2c1-0.1,0-0.8,0-2"/>
</svg>
