<svg width="375" height="148" viewBox="0 0 375 148" fill="none" xmlns="http://www.w3.org/2000/svg">
<path d="M384.187 81.7339C367.085 83.7864 354.999 79.4489 346.564 93.4844C338.3 108.946 340.812 141.926 330.494 140.271C323.026 138.273 327.981 107.291 328.722 101.414C330.031 88.2336 331.341 75.0532 328.375 62.386C327.69 56.6802 319.99 28.6639 311.898 45.5524C310.815 48.5763 309.903 53.0268 307.395 56.2218C303.634 61.0144 297.933 61.6986 292.232 62.3827C262.133 64.5482 212.137 57.5254 209.403 70.8768C206.668 84.2282 226.222 90.5635 246.688 92.4482C268.75 95.5885 294.8 83.7798 299.363 97.7024C303.925 111.625 300.621 132.28 264.65 133.703C230.104 134.955 137.243 156.229 124.13 143.333C112.613 131.692 112.553 107.1 115.287 93.7486C120.928 68.4723 154.733 73.0971 175.37 76.4084C182.838 78.4061 191.903 81.6592 194.355 90.047C196.465 95.5819 192.875 101.801 187.688 106.764C182.329 110.302 176.8 112.412 171.271 114.523C130.797 126.616 88.9544 127.296 47.1115 127.977C41.4109 128.661 34.114 128.09 29.3249 124.324C24.7071 121.984 22.5971 116.449 20.6584 112.341C9.93736 83.2402 20.4224 50.1474 25.378 19.1653C26.1183 13.2883 26.6875 5.98491 20.4733 2.38968C17.4518 1.30529 13.0051 0.391974 10.1548 0.734063C4.45421 1.41824 -2.32911 5.12638 -4.49459 11.1744C-10.2507 23.4413 -0.158998 35.2533 10.5019 39.7619C19.7376 44.4415 29.8848 44.6707 40.3744 47.7528C43.3959 48.8372 47.8426 49.7505 49.6101 52.4324C52.9741 56.3697 52.2337 62.2467 49.897 66.8682C44.8812 73.2582 36.844 78.5639 31.657 83.5275C25.0449 88.6621 18.6039 95.2232 12.163 101.784C-0.890055 113.48 -19.3013 128.713 -36.4031 130.765" stroke="#231F20" stroke-miterlimit="10"/>
</svg>
