<svg width="375" height="160" viewBox="0 0 375 160" fill="none" xmlns="http://www.w3.org/2000/svg">
<path d="M-6.64545 0.729492C2.48606 4.46021 4.5616 6.83185 6.63715 9.20348C15.4728 17.3843 11.4428 30.9744 9.01308 40.6473C4.212 52.3987 -0.589087 64.1501 -8.77022 72.997C-9.83713 75.6084 -12.2085 77.6868 -14.0465 78.4596C-15.1134 81.071 -17.4848 83.1495 -20.6273 83.3893C-21.9318 82.8563 -23.2363 82.3234 -24.5408 81.7904C-27.1498 80.7245 -30.8257 82.27 -33.1971 84.3485C-35.5685 86.4269 -35.8644 90.877 -36.9313 93.4884C-35.7433 109.21 -23.29 123.44 -7.8736 126.691C-6.5691 127.224 -3.42664 126.984 -2.12214 127.517C1.55377 125.972 3.15414 122.055 2.91654 118.91C4.81277 110.543 3.56653 102.416 0.482342 95.061C-2.60185 87.7063 -3.84808 79.5789 -5.09431 71.4515C-6.34055 63.324 -2.60637 54.184 3.9744 49.2543C6.34581 47.1759 11.3262 46.1633 13.4018 48.535C18.6198 50.6668 17.257 57.7283 15.6566 61.6455C12.9894 68.174 10.3221 74.7026 7.65483 81.2311C5.52102 86.454 2.61616 89.8382 1.78684 95.594C0.957527 101.35 4.04172 108.704 9.49731 113.981C14.1819 117.418 18.8664 120.856 24.0844 122.988C26.6934 124.054 30.6069 125.652 34.2828 124.107C39.7967 121.789 39.855 114.194 38.8463 109.211C36.5915 96.1006 32.4986 83.7629 28.4058 71.4251C26.8637 67.7478 26.6261 64.6034 26.3885 61.459C26.1509 58.3146 27.7513 54.3975 30.8937 54.1577C36.4076 51.8395 42.1008 60.2601 45.3015 52.4258C46.3684 49.8144 45.1222 41.6869 39.6083 44.0052C33.561 47.6292 17.3153 50.1338 55.4417 61.1396C93.0346 73.451 73.884 79.3398 97.7192 76.8885C121.554 74.4372 264.982 73.6126 287.75 73.7727C309.214 73.3999 308.56 56.3722 302.275 56.8518C297.828 56.5587 93.6846 56.9563 86.0952 56.9029C78.5058 56.8496 61.4845 23.9933 82.9482 23.6204C104.412 23.2476 307.488 25.4614 321.363 25.0352C335.237 24.6089 342.176 41.157 332.986 45.0207C324.33 47.5788 314.961 40.7037 314.132 46.4595C312.769 53.521 309.568 61.3553 320.3 61.1689C331.032 60.9825 336.546 58.6642 336.25 63.1143C335.954 67.5644 331.982 73.56 340.343 75.452C350.541 76.5713 371.176 81.9543 372.538 74.8928C373.901 67.8312 385.695 31.5111 373.659 31.1646C362.927 31.351 352.254 23.9429 352.195 31.5374C351.308 44.8877 353.563 57.9982 352.675 71.3485C352.617 78.9429 354.101 90.2148 350.9 98.049C347.166 107.189 338.985 116.036 333.175 122.804C330.803 124.883 329.737 127.494 329.441 131.944C329.087 143.989 359.386 151.797 376.344 158.725" stroke="#231F20" stroke-miterlimit="10"/>
</svg>
