<svg width="99" height="81" viewBox="0 0 99 81" fill="none" xmlns="http://www.w3.org/2000/svg">
<path d="M93.1897 65.6342L93.1892 65.6349C87.7301 73.2716 76.7879 78.6383 66.4505 80.0697C58.0096 81.2239 50.0051 79.7444 42.0511 78.2743C40.291 77.949 38.5334 77.6241 36.774 77.3283C34.9695 77.0237 33.1801 76.7523 31.4194 76.4852C28.4478 76.0344 25.5584 75.5962 22.8179 75.032C18.4654 74.136 14.5815 72.938 11.503 70.9242C5.36183 66.9069 2.26257 59.5572 1.08013 51.4664L1.07993 51.4651C-0.119096 43.417 0.588642 34.7787 4.62137 26.1941L4.62177 26.1932C8.64108 17.595 15.9893 9.06519 25.7222 4.67998C35.4614 0.310043 47.6245 0.0832681 57.8977 2.59577L57.8988 2.59605C68.1726 5.08349 76.5212 10.3341 83.0289 16.6956C89.5125 23.0576 94.1213 30.5511 96.4268 39.2949C98.7171 48.0655 98.6511 58.0207 93.1897 65.6342Z" stroke="#FFF8EB"/>
</svg>