<svg xmlns="http://www.w3.org/2000/svg" viewBox="0 0 92.802 56.661"><defs><style>.cls-1{fill:#fff;}.cls-2{fill:none;stroke:#fff;stroke-linecap:round;stroke-miterlimit:10;}</style></defs><g id="Layer_2" data-name="Layer 2"><g id="Layer_3" data-name="Layer 3"><path class="cls-1" d="M41.255,1c2.228,0,4.353.016,6.477.032s4.26.032,6.494.032,4.328-.017,6.372-.051c.343-.006.69-.008,1.042-.008,2.753,0,5.727.164,9.171.353,4.438.245,9.468.522,15.456.522,3.608,0,4.571,4.457,4.571,7.091,0,7.15.354,11.792.638,15.522.109,1.432.212,2.786.285,4.125a58.388,58.388,0,0,1-.27,7.511c-.235,3.1-.526,6.962-.526,12.092,0,2.937-1.251,7.306-4.7,7.306-6.076,0-11.174-.469-15.671-.882-3.529-.324-6.577-.6-9.439-.6q-.3,0-.6,0c-4.792.07-8.916.442-12.9.8-3.952.356-8.039.724-12.756.793q-1.547.023-3.2.022c-2.622,0-5.421-.035-8.661-.076-4.008-.05-8.551-.107-13.807-.107-3.194,0-6.7-3.8-6.7-7.257,0-7.144-.209-11.792-.377-15.528-.065-1.441-.125-2.782-.168-4.123-.056-1.76-.194-3.48-.354-5.473C1.347,19.611,1,15.273,1,8.971,1,5.716,5.828,2.23,9.226,2.23c6.732,0,12.222-.381,17.065-.718,3.228-.225,6.015-.418,8.623-.462C36.948,1.016,39.022,1,41.255,1m0-1c-2.01,0-4.1.013-6.357.05C28.325.16,20.4,1.23,9.226,1.23,5.327,1.23,0,5.072,0,8.971,0,18.784.823,23.7.981,28.6s.544,9.807.544,19.619c0,3.9,3.8,8.257,7.7,8.257h0c9.411,0,16.526.183,22.463.183q1.667,0,3.218-.022c9.508-.139,16.152-1.455,25.659-1.594.2,0,.391,0,.589,0,6.458,0,14.261,1.486,25.107,1.486,3.9,0,5.7-4.406,5.7-8.306,0-9.812,1.06-14.751.794-19.657s-.921-9.78-.921-19.593c0-3.9-1.672-8.091-5.571-8.091C75.684.88,68.005.005,61.639.005c-.356,0-.709,0-1.057.008-2.253.038-4.347.051-6.356.051C49.764.064,45.716,0,41.255,0Z"/><path class="cls-2" d="M4.763,3.566c10.48,7.168,10.792,6.711,21.272,13.879S36.116,25.2,46.6,32.363"/><path class="cls-2" d="M47,32.4c10.633-7.37,10.231-7.95,20.864-15.32S78.512,9.736,89.145,2.366"/></g></g></svg>