<svg xmlns="http://www.w3.org/2000/svg" viewBox="0 0 60.031 66.172"><defs><style>.cls-1,.cls-2{fill:#fff;}.cls-2{font-size:48px;font-family:Courier;}</style></defs><g id="Layer_2" data-name="Layer 2"><g id="Layer_3" data-name="Layer 3"><path class="cls-1" d="M53.244,1c3.314,0,5.148,4.587,5.148,7.758,0,5.648-.135,9.959-.243,13.422-.112,3.563-.2,6.377-.112,9.226.06,1.981.2,3.916.355,6.157.284,4.035.639,9.056.639,16.4,0,3.256-2.377,6.885-5.787,6.885-6.161,0-10.708-.294-14.361-.529C36.234,60.147,33.946,60,31.71,60c-.369,0-.736,0-1.1.012-2.1.049-4.166.2-6.557.368-3.965.285-8.9.638-16.011.638-3.242,0-6.546-3.561-6.546-7.056,0-11.337-.034-17.045-.135-22.621-.029-1.565-.069-3.13-.112-4.814C1.131,22.024,1,16.921,1,8.758,1,5.4,4.75,1.569,8.039,1.569c5.784,0,10.155.144,13.668.26,2.554.084,4.761.157,6.873.157.7,0,1.4-.008,2.091-.026,2.035-.054,4.03-.19,6.339-.347C41.018,1.34,46.005,1,53.244,1m0-1c-11.3,0-16.949.811-22.6.96-.685.018-1.369.026-2.065.026C23.541.986,17.97.569,8.039.569,4.14.569,0,4.858,0,8.758c0,11.3.255,16.95.358,22.6s.135,11.3.135,22.6c0,3.9,3.647,8.056,7.546,8.056,11.3,0,16.94-.875,22.591-1.006C30.99,61,31.349,61,31.71,61c5.314,0,10.952.847,21.534.847,3.9,0,6.787-3.986,6.787-7.885,0-11.3-.822-16.936-.995-22.587s.356-11.316.356-22.617c0-3.9-2.249-8.758-6.148-8.758Z"/><text class="cls-2" transform="translate(16.24 46.532)">f</text></g></g></svg>