<svg xmlns="http://www.w3.org/2000/svg" viewBox="0 0 60.031 62.018"><defs><style>.cls-1{fill:#fff;}</style></defs><g id="Layer_2" data-name="Layer 2"><g id="Layer_3" data-name="Layer 3"><path class="cls-1" d="M53.244,1c3.314,0,5.148,4.587,5.148,7.758,0,5.648-.135,9.959-.243,13.422-.112,3.563-.2,6.377-.112,9.226.06,1.981.2,3.916.355,6.157.284,4.035.639,9.056.639,16.4,0,3.256-2.377,6.885-5.787,6.885-6.161,0-10.708-.294-14.361-.529C36.234,60.147,33.946,60,31.711,60c-.37,0-.737,0-1.1.012-2.1.049-4.166.2-6.557.368-3.965.285-8.9.638-16.011.638-3.242,0-6.546-3.561-6.546-7.056,0-11.337-.034-17.045-.135-22.621-.029-1.565-.069-3.13-.112-4.814C1.131,22.024,1,16.921,1,8.758,1,5.4,4.75,1.569,8.039,1.569c5.784,0,10.155.144,13.668.26,2.555.084,4.761.157,6.874.157.7,0,1.4-.008,2.09-.026,2.035-.054,4.029-.19,6.339-.347C41.017,1.34,46.005,1,53.244,1m0-1c-11.3,0-16.949.811-22.6.96-.685.018-1.369.026-2.064.026C23.542.986,17.97.569,8.039.569,4.14.569,0,4.858,0,8.758c0,11.3.255,16.95.358,22.6s.135,11.3.135,22.6c0,3.9,3.647,8.056,7.546,8.056,11.3,0,16.94-.875,22.591-1.006C30.99,61,31.349,61,31.711,61c5.313,0,10.952.847,21.533.847,3.9,0,6.787-3.986,6.787-7.885,0-11.3-.822-16.936-.995-22.587s.356-11.316.356-22.617c0-3.9-2.249-8.758-6.148-8.758Z"/><path class="cls-1" d="M30.641,16.285A14.931,14.931,0,0,1,45.389,31.36,14.522,14.522,0,0,1,30.641,45.967,14.638,14.638,0,0,1,15.663,31.36,15.044,15.044,0,0,1,30.641,16.285m0-1A16.11,16.11,0,0,0,14.663,31.36,15.714,15.714,0,0,0,30.641,46.967,15.517,15.517,0,0,0,46.389,31.36,15.914,15.914,0,0,0,30.641,15.285Z"/><path class="cls-1" d="M49.277,6.361a3.793,3.793,0,0,1,3.858,3.715,3.869,3.869,0,0,1-7.735,0,3.8,3.8,0,0,1,3.877-3.715m0-1A4.8,4.8,0,0,0,44.4,10.076a4.869,4.869,0,0,0,9.735,0,4.784,4.784,0,0,0-4.858-4.715Z"/></g></g></svg>