<?xml version="1.0" encoding="utf-8"?>
<!-- Generator: Adobe Illustrator 24.1.0, SVG Export Plug-In . SVG Version: 6.00 Build 0)  -->
<svg version="1.1" id="Layer_1" xmlns="http://www.w3.org/2000/svg" xmlns:xlink="http://www.w3.org/1999/xlink" x="0px" y="0px"
	 viewBox="0 0 18.5 29.5" style="enable-background:new 0 0 18.5 29.5;" xml:space="preserve">
<style type="text/css">
	.st0{opacity:0;fill:none;stroke:#231F20;stroke-width:1.000000e-02;stroke-miterlimit:10;}
	.st1{fill:none;stroke:#231F20;stroke-miterlimit:10;}
</style>
<line class="st0" x1="9.2" y1="0" x2="9.2" y2="29.5"/>
<rect x="0.1" y="0" class="st0" width="18.3" height="29.5"/>
<line class="st0" x1="9.2" y1="0" x2="9.2" y2="29.5"/>
<path class="st1" d="M9.2,29.5c0-0.8,0.1-1.7,0.1-2.5c-0.1-0.8-0.3-1.7,0-2.5c0.2-0.6,0.8-1.1,1.4-1.4c1.1-0.6,2.3-1.1,3.5-1.5
	c1-0.3,2.4-0.5,3-1.5c0.6-1,0.5-2.5,0.4-3.7c-0.2-3.1-1-6.2-2-9.1c-0.1-0.4-0.3-0.9-0.6-1.2c-0.9-1.1-13.5,5.1-13.5,5.8
	c0,0.7,6.7,3.2,7.7,3.2s5.1-7.4,6.2-7.4s2.2,8.4,2.3,9.8c0.1,1.5-13,3.7-14.8,3.9c-1.7,0.3-2.4-7.5-2.5-9.1c0-1.3,1.2-2.2,2.2-2.8
	c1.7-1,3.5-1.8,4.6-3.4c1.3-1.8,2-3.8,2-6"/>
</svg>
