<?xml version="1.0" encoding="utf-8"?>
<!-- Generator: Adobe Illustrator 24.1.0, SVG Export Plug-In . SVG Version: 6.00 Build 0)  -->
<svg version="1.1" id="Layer_1" xmlns="http://www.w3.org/2000/svg" xmlns:xlink="http://www.w3.org/1999/xlink" x="0px" y="0px"
	 viewBox="0 0 18.3 29.5" style="enable-background:new 0 0 18.3 29.5;" xml:space="preserve">
<style type="text/css">
	.st0{opacity:0;fill:none;stroke:#231F20;stroke-width:1.000000e-02;stroke-miterlimit:10;}
	.st1{fill:none;stroke:#231F20;stroke-miterlimit:10;}
</style>
<rect x="0" y="0" class="st0" width="18.3" height="29.5"/>
<line class="st0" x1="9.1" y1="0" x2="9.1" y2="29.5"/>
<path class="st1" d="M9.1,29.5c0-2.7-0.2-5.5,0-8.2c0.1-1.1,0.9-1.7,1.6-2.4c0.6-0.6,2-0.9,2.5,0.2c0.1,0.4,0,0.8-0.3,1.1
	c-0.8,0.8-2.6,0.6-2.5-0.8c0-0.7,0.5-1.3,1.1-1.7c0.9-0.7,2.2-1.2,3.3-1.2c0.5,0,0.9,0.1,1.3,0.4c0.2,0.2,0.4,0.5,0.4,0.8
	c-0.1,1.3-2.3,0.7-2.6-0.1c-0.6-1.4,0.3-3.6,1.3-4.6c0.3-0.3,0.7-0.5,1.1-0.6c0.4-0.1,0.8,0.1,1.1,0.4c0.7,0.8-0.4,1.8-1.2,1.7
	c-1-0.1-1.6-1.3-1.9-2.1c-0.5-1.3-0.5-2.7-0.2-4c0.1-0.3,0.2-0.7,0.5-0.8c0.3-0.1,0.6,0,0.8,0.1c0.5,0.3,0.9,0.7,0.9,1.3
	c0,0.6-0.5,1.1-1.1,1.3c-1,0.3-2-0.2-2.8-0.8c-0.5-0.4-1-0.9-1.4-1.5c-0.2-0.3-0.4-0.6-0.4-0.9c-0.1-0.5,0.2-1.1,0.6-1.3
	c0.3-0.2,0.7-0.2,1-0.1c0.4,0.2,0.7,0.7,0.6,1.2c-0.1,0.5-0.4,0.9-0.8,1.1c-0.4,0.3-0.9,0.4-1.3,0.5C9.4,8.5,8.3,8.6,7.1,8.5
	C6.7,8.5,6.3,8.4,6,8.2c-0.4-0.4-0.4-1,0-1.4c0.1-0.2,0.3-0.3,0.5-0.4c0.5-0.1,1,0.2,1.2,0.6C8,7.5,8,8.2,7.8,8.7
	c-0.2,0.6-0.6,1.1-1,1.5C6.4,10.6,6,11,5.6,11.3c-0.2,0.2-0.5,0.4-0.8,0.4c-0.5,0-0.8-0.4-1-0.9c-0.1-0.2-0.2-0.5-0.1-0.8
	C3.8,9.5,4.5,9.4,5,9.6c0.5,0.2,0.9,0.7,1.1,1.2c0.2,0.5,0.2,1.1,0.2,1.6c0,1-0.3,1.9-0.6,2.8c-0.1,0.3-0.2,0.5-0.4,0.7
	c-0.5,0.4-1.3,0.2-1.6-0.4c-0.2-0.5,0.1-1.1,0.5-1.4c0.5-0.3,1.1-0.2,1.6,0c0.5,0.2,0.9,0.6,1.2,1.1c0.8,1,1.2,2.3,1.3,3.6
	c0,0.2,0,0.4-0.1,0.6c-0.2,0.3-0.7,0.4-1,0.1c-0.3-0.2-0.4-0.7-0.3-1.1c0.1-0.4,0.4-0.7,0.8-0.8c0.7-0.3,1.5-0.3,2.2-0.6
	c0.8-0.3,1.8-1.2,2.4-1.9c0.4-0.4,0.7-0.8,0.8-1.3c0.1-0.5,0-1-0.1-1.4c-0.2-0.7-0.5-1.4-1.1-1.8c-0.4-0.3-0.9-0.4-1.3-0.5
	c-1-0.2-2.1,0-2.7,1c-0.3,0.6-0.4,1.2-0.4,1.9c0,0.5,0.1,1,0.4,1.4c0.2,0.3,0.5,0.6,0.8,0.8c0.3,0.2,0.6,0.3,0.9,0.3
	c0.5,0,1-0.4,1.4-0.8c0.2-0.2,0.5-0.5,0.5-0.8c0-0.2,0-0.5-0.1-0.7c-0.1-0.3-0.2-0.6-0.3-0.8c-0.1-0.2-0.2-0.4-0.4-0.5
	C10.4,12,10.2,12,10,12c-0.3,0-0.6,0.1-0.9,0.1c-0.2,0-0.4,0.1-0.5,0.3c-0.1,0.1-0.1,0.3,0,0.4c0,0.3,0.1,0.5,0.2,0.7
	c0.1,0.2,0.4,0.4,0.7,0.3c0.2,0,0.4-0.2,0.4-0.4c0.1-0.2,0.1-0.4,0.1-0.6c0-0.8-0.1-1.6-0.1-2.5C9.4,6.9,9.1,3.5,9.1,0"/>
</svg>
