<?xml version="1.0" encoding="utf-8"?>
<!-- Generator: Adobe Illustrator 24.1.0, SVG Export Plug-In . SVG Version: 6.00 Build 0)  -->
<svg version="1.1" id="Layer_1" xmlns="http://www.w3.org/2000/svg" xmlns:xlink="http://www.w3.org/1999/xlink" x="0px" y="0px"
	 viewBox="0 0 18.8 29.5" style="enable-background:new 0 0 18.8 29.5;" xml:space="preserve">
<style type="text/css">
	.st0{opacity:0;}
	.st1{fill:none;stroke:#231F20;stroke-width:1.000000e-02;stroke-miterlimit:10;}
	.st2{fill:none;stroke:#231F20;stroke-miterlimit:10;}
</style>
<g class="st0">
	<rect x="0.3" y="0" class="st1" width="18.3" height="29.5"/>
	<line class="st1" x1="9.5" y1="29.5" x2="9.5" y2="0"/>
</g>
<path class="st2" d="M9.5,28.4"/>
<path class="st2" d="M9.5,0c0,0.8,0,1.2,0,2.4c0,0,0,1.7,0,2.4c0,0.7-0.4,1.1-2.4,1.1c-1.3,0-2.9-0.1-3.9,0.8c-1.6,1.4-1,4.1-0.7,6
	c0.1,1,0.3,1.9,1.2,2.4c0.9,0.6,2,0.6,3.1,0.6c2.1,0,4.7-0.1,6.4,0c1.3,0,3.5,0.2,3.4-0.5c0-0.7-2.5-0.3-2.5-0.8
	c0.1-2.9,1.1-3-3-2.9c-1,0-3.8-4.9-1-4.9s2,4.6-0.6,4.6c-0.8,0-1.8-0.1-2.6,0.2c-0.9,0.3-0.6,1.4-0.5,2.1c0.2,1,0.9,1.3,1.8,1.3
	c1,0,1.2,0.2,1.3,0.9c0,0-0.1,0.4-0.1,0.4c0,0.9-2.7,0.7-3.2,0.7c-1.6,0-3.4-0.5-4.1,1.4C1.4,20,1,21.9,0.6,23.7c0,0.1,0,0.2,0,0.3
	c0.1,0.1,0.2,0.2,0.3,0.2c3.7,0.7,7.5,0.6,11.2,0.4c1.4,0,2.8,0,4.2-0.2c0.6-0.1,1.4-0.2,1.8-0.8c0.6-1.1,0.2-5.2-1.4-5.2
	c-2.2-0.1-4.4-0.3-6.6-0.3c-1.2,0-2.4-0.1-3.6,0c-0.9,0.1-2.6,0.1-3.1,1.1c-0.2,0.4-0.3,0.7-0.4,1.1c-0.1,0.4-0.3,0.9-0.1,1.3
	c0.5,1,2,0.7,2.9,0.6c1.9-0.2,3.8-0.6,5.7-0.5c1.1,0,1.3,2,0.4,2c-0.8,0-3.5-0.4-3.5,0.3s0.9,4.3,0.9,5.7"/>
</svg>
