<?xml version="1.0" encoding="utf-8"?>
<!-- Generator: Adobe Illustrator 24.1.0, SVG Export Plug-In . SVG Version: 6.00 Build 0)  -->
<svg version="1.1" id="Layer_1" xmlns="http://www.w3.org/2000/svg" xmlns:xlink="http://www.w3.org/1999/xlink" x="0px" y="0px"
	 viewBox="0 0 18.3 29.5" style="enable-background:new 0 0 18.3 29.5;" xml:space="preserve">
<style type="text/css">
	.st0{opacity:0;fill:none;stroke:#231F20;stroke-width:1.000000e-02;stroke-miterlimit:10;}
	.st1{fill:none;stroke:#231F20;stroke-miterlimit:10;}
</style>
<rect x="0" y="0" class="st0" width="18.3" height="29.5"/>
<line class="st0" x1="9.1" y1="0" x2="9.1" y2="29.5"/>
<path class="st1" d="M9.1,29.5c0-1.9,0.9-1.8,2.1-3.1c1.2-1.3,1.4-4.6,1.2-6.7c-0.1-1.5-2.8-0.5-2.8,0.6s2.9,0.3,2.9,0.3
	s3.2,5.7,3.3,3.2c0-2.5,0.6-6.8-1.6-6.8c-2.2-0.1-3.9-1.9-3.9-3.5c0-1.6,0-3.3,2.2-3.3c2.2,0,1.3,1.7,1.3,3.4s-1,3.1-2.8,3.1
	s-2.5,1.8-2.6,4.4c0,0.9-0.5,4.1,0.4,4.3s1.7-1.1,0.5-1.4S7.5,25,6.7,24.9s0.2-5,0-5.7c-0.2-0.7-2.4,0.4-2.4-0.9
	c0-1.3-0.9-5.4,0.7-6.1c1.6-0.7,1.5,0.4,1.9,2.8c0.4,2.4-3,2.1-3.8,2s-0.4-4.7-0.4-6s6.3-0.9,6.3-1.6c0-0.7-6,0.5-6-0.9
	S14,8.1,14,6.8S3.2,6.9,3.2,5.3s2.7-1.5,9.6-1.5s4.4,11.5,4.4,15.9S8,22.7,5.4,22.7c-5.1,0-4.2-9.3-4.2-12.2c0-1.5,0-3.1,0.3-4.6
	C1.7,5.4,1.8,4.8,2,4.3c0.2-0.4,0.3-0.8,0.7-1C2.9,3.2,3.2,3.1,3.4,3C4,2.8,4.7,2.8,5.3,2.7C6.2,2.5,7.2,2.3,8,1.9
	C8.6,1.5,9.1,1,9.1,0"/>
</svg>
