<?xml version="1.0" encoding="utf-8"?>
<!-- Generator: Adobe Illustrator 24.1.0, SVG Export Plug-In . SVG Version: 6.00 Build 0)  -->
<svg version="1.1" id="Layer_1" xmlns="http://www.w3.org/2000/svg" xmlns:xlink="http://www.w3.org/1999/xlink" x="0px" y="0px"
	 viewBox="0 0 18.3 29.5" style="enable-background:new 0 0 18.3 29.5;" xml:space="preserve">
<style type="text/css">
	.st0{opacity:0;fill:none;stroke:#231F20;stroke-width:1.000000e-02;stroke-miterlimit:10;}
	.st1{fill:none;stroke:#231F20;stroke-miterlimit:10;}
</style>
<rect x="0" y="0" class="st0" width="18.3" height="29.5"/>
<line class="st0" x1="9.1" y1="0" x2="9.1" y2="29.5"/>
<path class="st1" d="M9.1,29.5C9.1,28,9,27.8,9,26.8s6.9,0.5,6.9-0.8s-10-0.2-10-1.5c-0.1-1.3,9.9-0.8,9.8-2s-7.8-0.2-9-0.4
	c-1.2-0.2-0.4-7.5,0.2-7.5s1.5,5.2,2.6,5.2s1-4.8,1.7-4.8c0.7,0,0.5,4.6,2.6,5.2c2.2,0.7,2.4-4.6,2.4-6S5.5,13.4,5.5,12.4
	S16.9,12,17,10.5S6.1,10.9,5.7,9.4c-0.4-1.5,11.2-1,11-2.5S6.4,8.4,6.3,6.3c-0.1-2.2,8.9-2.9,10.5-2.6c1.6,0.3,0,22.7,0,23.7
	S6,28.6,5.3,27.9S3.7,26.6,2,26.4c-1.7-0.2-1.6,0.9-1.4,1.8s3.8-0.8,3.8-1.4c0-0.6-0.2-3.3-2.2-3.3c-2-0.1-1.7,1.2-1.5,1.7
	c0.2,0.6,3.1,0.2,3.4,0c0.3-0.2,0.1-3-0.9-3.8s-2.5,0.4-2.4,1.2s5.4,0.4,3.7-2.5s-3.8-0.9-3.7,0s3.8-0.5,3.5-2.1
	c-0.3-1.5-3.8-1.1-3.5-0.6s3.6-0.1,3.6-1.1s0-0.9-1.6-2s-2.1,0-2,0.6c0.1,0.6,3.4,0.3,3.4-0.2s0-2.5-1.4-3.5c-1.4-0.9-1.9-0.4-2,0.4
	c-0.1,0.8,3.4,1.9,3.4,0.2S3.6,8.1,1.8,8.4s-1,1.2-0.1,1.8c0.9,0.6,2.6,0.4,2.5-1.3S3.8,6.1,2.1,5.8C0.5,5.4,0.5,7.1,1.8,7.4
	s2.7-0.6,2.9-1.1s-0.6-3-2.4-3c-1.8,0-1.1,1.6,0,1.6c1.1,0,2.2-0.3,3.2-0.6C6.3,3.9,7.3,3.6,8,3c0.8-0.7,1.1-1.6,1.1-3"/>
</svg>
