<?xml version="1.0" encoding="utf-8"?>
<!-- Generator: Adobe Illustrator 24.1.0, SVG Export Plug-In . SVG Version: 6.00 Build 0)  -->
<svg version="1.1" id="Layer_1" xmlns="http://www.w3.org/2000/svg" xmlns:xlink="http://www.w3.org/1999/xlink" x="0px" y="0px"
	 viewBox="0 0 18.3 29.5" style="enable-background:new 0 0 18.3 29.5;" xml:space="preserve">
<style type="text/css">
	.st0{opacity:0;fill:none;stroke:#231F20;stroke-width:1.000000e-02;stroke-miterlimit:10;}
	.st1{fill:none;stroke:#231F20;stroke-miterlimit:10;}
</style>
<rect x="0" y="0" class="st0" width="18.3" height="29.5"/>
<path class="st1" d="M9.1,0c0,1.6,0,9.8,0,11.5s0.2,3.2-1.1,3.2s-0.2-2.3-1.2-2.3s-0.4-0.1-1.1-0.1s-0.5,1.4-0.5,2.4
	s-1.3,1.3-1.3,0.7c0-0.6,0-1.9,0.9-1.9s-1.3,3.1,3.1,3.1c1.4,0,3,0,4.1,0s0-3.3,1-3.3c0.7,0,0.7,1.3,0.7,1.7c0,0.4-0.3,0.5-0.7,0.5
	s-0.5-0.2-0.5-0.8s0.3-2.2-0.9-2.2c-1.2,0-1,0.6-1,2.4c0,1.3,0,3,0,4.2s2.5,0.7,3.7,0.7s1.1-12.5,1.1-14.8s-3.1-0.7-3.1,2
	s1.3,3.5,4,3.5c1.6,0,1.6,11.6,0,11.6c-2.4,0-11.8,0.1-13.2,0.1s-1.7-3.9-1.7-8.2s0.9-4.6,3-4.6s2.1-5.6-0.6-5.6s-0.7,9.3-0.7,13.8
	s6.2,4.1,6.2,5.6s0,1.4,0,1.4s0,3.4,0,4.8"/>
</svg>
