<svg xmlns="http://www.w3.org/2000/svg" viewBox="0 0 83.881 56.899"><defs><style>.cls-1,.cls-2{fill:none;stroke:#bbb;stroke-linecap:round;stroke-linejoin:round;}.cls-1{stroke-width:1.295px;}.cls-2{stroke-width:1.416px;}.cls-3{fill:#bbb;}</style></defs><g id="Layer_2" data-name="Layer 2"><g id="Layer_3" data-name="Layer 3"><line class="cls-1" x1="6.176" y1="12.527" x2="9.546" y2="13.384"/><line class="cls-1" x1="8.852" y1="8.334" x2="10.63" y2="11.322"/><line class="cls-1" x1="6.437" y1="17.423" x2="9.426" y2="15.645"/><line class="cls-2" x1="12.246" y1="17.404" x2="16.384" y2="14.778"/><line class="cls-2" x1="13.607" y1="10.654" x2="16.405" y2="14.678"/><path class="cls-3" d="M31.734,1.416a36.365,36.365,0,0,1,3.725.234c9.168.951,19.212,6.915,19.617,9.708.022.15.079.548-1.054,1.016a1.2,1.2,0,0,1-.449.071c-1.1,0-2.841-.792-4.685-1.63-1.217-.554-2.476-1.126-3.781-1.585a10.075,10.075,0,0,0-3.326-.625c-6.476,0-8.208,7.781-9.6,14.034-.845,3.8-1.8,8.1-3.474,8.662a1.912,1.912,0,0,1-.6.107c-.214,0-.864,0-1.732-1.074-1.525-1.89-2.752-5.885-3.367-10.961a41.64,41.64,0,0,1,.1-12.176c.864-4,3.524-5.781,8.628-5.781m0-1.416c-4.2,0-8.768,1.137-10.012,6.9-1.565,7.255.339,25.926,6.38,25.926a3.288,3.288,0,0,0,1.055-.181c5.669-1.907,3.282-22.622,12.624-22.622a8.63,8.63,0,0,1,2.856.545c3.378,1.189,6.709,3.294,8.936,3.294a2.572,2.572,0,0,0,.989-.178c7.267-3-7.42-12.244-18.957-13.44A37.534,37.534,0,0,0,31.734,0Z"/><path class="cls-3" d="M38.162,24.257h0c2.757,0,7.5,3.177,8.09,4.687.651,1.675-.481,5.163-2.753,8.483-2.614,3.82-5.952,6.387-8.307,6.387q-.065,0-.129,0c-3.38-.137-5.893-.967-7.076-2.338a3.549,3.549,0,0,1-.787-2.842c.184-1.732,1.86-2.162,4.4-2.622,1.863-.338,3.975-.721,4.274-2.654a13.108,13.108,0,0,0,.048-2.073c-.043-2.072-.116-5.539,1.5-6.862a1.183,1.183,0,0,1,.741-.163m0-1.416a2.539,2.539,0,0,0-1.637.482c-2.838,2.321-1.8,8.15-2.053,9.816-.357,2.307-8.16.436-8.68,5.343-.479,4.527,3.716,6.521,9.214,6.744.062,0,.123,0,.186,0,6.094,0,14.263-11.951,12.38-16.8-.851-2.189-6.231-5.59-9.41-5.59Z"/><path class="cls-3" d="M60.842,6.962l.025,1.419a3.072,3.072,0,0,1,2.016,2.3c1.171,5.826-1.935,11.126-7.914,13.5a8.517,8.517,0,0,1-3.131.517c-5.858,0-13.293-4.047-13.723-6.687a5.014,5.014,0,0,1,1.093-4.067,2.828,2.828,0,0,1,1.871-1.119.939.939,0,0,1,.119.008c3.01.411,4.859,2.124,6.491,3.635,1.4,1.294,2.72,2.517,4.486,2.517a3.761,3.761,0,0,0,.853-.1c2.217-.513,3.543-3.234,4.946-6.115.7-1.426,2.14-4.394,2.868-4.394V6.962m0,0c-3.145,0-4.932,9.805-8.133,10.546a2.36,2.36,0,0,1-.533.062c-2.84,0-4.766-5.316-10.785-6.139a2.288,2.288,0,0,0-.311-.021c-2.208,0-4.981,3.026-4.361,6.83.586,3.6,8.8,7.875,15.12,7.875a9.939,9.939,0,0,0,3.654-.617c6.752-2.684,10.076-8.648,8.779-15.1A4.428,4.428,0,0,0,61.129,6.99a1.494,1.494,0,0,0-.288-.028Z"/><path class="cls-2" d="M53.413,50.336a1.317,1.317,0,1,1-1.878,1.845,1.316,1.316,0,1,1,1.878-1.845Z"/><path class="cls-1" d="M53.418,52.225s8.369,6.052,10.082,3.318c2.276-3.631-15.8-20.8-12.455-24.1,4.19-4.134,27.529,18.535,31.812,14.333,3.215-3.155-15.33-19.212-11.137-23.339,1.769-1.741,4.362-.65,7.129,1.011"/><path class="cls-2" d="M81.283,22.956a1.347,1.347,0,0,1-.044,1.907,1.294,1.294,0,0,1-1.862-.034,1.308,1.308,0,0,1-.013-1.874A1.36,1.36,0,0,1,81.283,22.956Z"/><path class="cls-2" d="M10.589,23.917c8.559,11.51,8.53,11.532,17.089,23.042"/><path class="cls-2" d="M7.088,26.52c8.559,11.51,8.728,11.385,17.287,22.9"/><path class="cls-2" d="M3.971,28.838C12.529,40.349,12.345,40.485,20.9,52"/><path class="cls-2" d="M.708,31.264c8.559,11.51,8.352,11.664,16.91,23.175"/></g></g></svg>