<svg xmlns="http://www.w3.org/2000/svg" viewBox="0 0 90.941 58.344"><defs><style>.cls-1{fill:#bbb;}.cls-2,.cls-3{fill:none;stroke:#bbb;stroke-linecap:round;stroke-linejoin:round;}.cls-2{stroke-width:1.361px;}.cls-3{stroke-width:1.488px;}</style></defs><g id="Layer_2" data-name="Layer 2"><g id="Layer_3" data-name="Layer 3"><path class="cls-1" d="M34.434,1.488a39.451,39.451,0,0,1,4.082.26c9.628,1,20.165,7.191,20.585,10.084.02.14.081.563-1.111,1.055a1.3,1.3,0,0,1-.494.079c-1.165,0-3-.822-4.94-1.693-1.251-.562-2.546-1.142-3.89-1.616a10.709,10.709,0,0,0-3.526-.662c-6.789,0-8.643,8.082-10.133,14.577-.9,3.938-1.928,8.4-3.686,8.994a2.053,2.053,0,0,1-.647.115c-.232,0-.935,0-1.873-1.161-3.643-4.514-4.747-18.169-3.483-24.029.9-4.151,3.708-6,9.116-6m0-1.488c-4.441,0-9.276,1.184-10.57,7.177-1.645,7.619.459,26.992,6.81,26.992a3.521,3.521,0,0,0,1.122-.193c5.951-2,3.544-23.493,13.344-23.493a9.16,9.16,0,0,1,3.032.578c3.536,1.245,6.993,3.393,9.324,3.393a2.757,2.757,0,0,0,1.061-.191C66.195,11.11,50.793,1.525,38.669.268A40.713,40.713,0,0,0,34.434,0Z"/><path class="cls-1" d="M41.353,25.478h0c2.86,0,7.806,3.353,8.425,4.947.694,1.785-.506,5.5-2.919,9.021-2.714,3.966-6.179,6.63-8.623,6.63-.045,0-.089,0-.134,0-3.631-.148-6.467-1.1-7.78-2.625a3.642,3.642,0,0,1-.843-2.915c.176-1.661,1.639-2.183,4.853-2.725,2.131-.36,4.335-.731,4.651-2.776a13.678,13.678,0,0,0,.047-2.193c-.051-2.172-.137-5.806,1.559-7.193a1.315,1.315,0,0,1,.764-.169m0-1.488a2.644,2.644,0,0,0-1.706.505c-2.982,2.439-1.864,8.56-2.134,10.31-.375,2.424-8.968.416-9.513,5.573-.5,4.757,4.264,6.948,10.042,7.183.064,0,.129,0,.194,0,6.4,0,14.908-12.585,12.929-17.678-.894-2.3-6.494-5.9-9.812-5.9Z"/><path class="cls-1" d="M65.127,7.611,65.161,9.1a2.793,2.793,0,0,1,2.063,2.119c1.225,6.1-1.948,11.446-8.282,13.964a9.308,9.308,0,0,1-3.42.562c-6.274,0-13.919-4.064-14.368-6.818a5.106,5.106,0,0,1,1.134-4.137,3.127,3.127,0,0,1,2.121-1.256.95.95,0,0,1,.131.008c3.163.432,5.114,2.221,6.834,3.8,1.474,1.353,2.867,2.63,4.72,2.63a3.989,3.989,0,0,0,.9-.1c2.325-.539,3.7-3.332,5.16-6.289C62.87,12.126,64.362,9.1,65.127,9.1V7.611m0,0c-3.3,0-5.107,10.031-8.469,10.809a2.455,2.455,0,0,1-.563.066c-2.985,0-5.029-5.551-11.352-6.415a2.451,2.451,0,0,0-.333-.022c-2.332,0-5.374,3.125-4.723,7.12.612,3.759,9.2,8.067,15.836,8.067a10.828,10.828,0,0,0,3.97-.667c7.1-2.821,10.553-8.863,9.19-15.64a4.259,4.259,0,0,0-3.246-3.288,1.652,1.652,0,0,0-.31-.03Z"/><path class="cls-1" d="M10.174,23.858h0c4.669,0,10.2,2.575,12.027,8.327a44.907,44.907,0,0,1,1.744,18.832A41.412,41.412,0,0,1,6.5,43.856a12.385,12.385,0,0,1-5.007-10.11c-.01-3.565,1.343-6.875,3.448-8.433a8.884,8.884,0,0,1,5.238-1.455m0-1.488A10.386,10.386,0,0,0,4.05,24.117C-.921,27.8-2.3,39.265,5.617,45.057a42.064,42.064,0,0,0,19.568,7.618,44.742,44.742,0,0,0-1.566-20.941C21.574,25.3,15.428,22.37,10.174,22.37Z"/><path class="cls-1" d="M13.493,30.538h0A9.344,9.344,0,0,1,22.554,36.8,34.768,34.768,0,0,1,23.942,51a31.948,31.948,0,0,1-13.123-5.468,9.274,9.274,0,0,1-3.768-7.616c-.007-2.637,1.019-5.172,2.554-6.308a6.694,6.694,0,0,1,3.888-1.069m0-1.488A8.094,8.094,0,0,0,8.72,30.411C4.845,33.279,3.769,42.218,9.941,46.732a32.781,32.781,0,0,0,15.252,5.937,34.871,34.871,0,0,0-1.221-16.321,10.825,10.825,0,0,0-10.479-7.3Z"/><path class="cls-1" d="M16.648,36.886h0a6.431,6.431,0,0,1,6.242,4.3,25.082,25.082,0,0,1,1.044,9.789,22.893,22.893,0,0,1-9-3.85,6.387,6.387,0,0,1-2.591-5.246,5.489,5.489,0,0,1,1.705-4.288,4.5,4.5,0,0,1,2.605-.7m0-1.488a5.915,5.915,0,0,0-3.489.995c-2.832,2.1-3.619,8.631.892,11.931a23.97,23.97,0,0,0,11.15,4.34,25.486,25.486,0,0,0-.893-11.931,7.912,7.912,0,0,0-7.66-5.335Z"/><path class="cls-1" d="M19.405,42.438a3.884,3.884,0,0,1,3.777,2.581,16.547,16.547,0,0,1,.73,5.912,14.913,14.913,0,0,1-5.389-2.416,3.862,3.862,0,0,1-1.561-3.172,3.247,3.247,0,0,1,.963-2.522,2.608,2.608,0,0,1,1.48-.383m0-1.488a4.012,4.012,0,0,0-2.366.675c-1.921,1.422-2.454,5.853.606,8.091a16.24,16.24,0,0,0,7.561,2.943,17.3,17.3,0,0,0-.605-8.091,5.369,5.369,0,0,0-5.2-3.618Z"/><line class="cls-2" x1="9.137" y1="11.777" x2="12.678" y2="12.677"/><line class="cls-2" x1="11.949" y1="7.37" x2="13.817" y2="10.511"/><line class="cls-2" x1="9.412" y1="16.922" x2="12.552" y2="15.054"/><line class="cls-3" x1="15.516" y1="16.902" x2="19.865" y2="14.143"/><line class="cls-3" x1="16.946" y1="9.809" x2="19.886" y2="14.037"/><path class="cls-3" d="M85.751,25.765a1.447,1.447,0,1,1,1.995-.19A1.41,1.41,0,0,1,85.751,25.765Z"/><path class="cls-2" d="M85.618,23.742s-9.292-5.607-10.848-2.594c-2.066,4,18.36,20.4,15.147,24.147-4.028,4.7-30.448-17.008-34.566-12.233-3.092,3.584,17.73,18.782,13.7,23.469-1.7,1.978-4.511,1.061-7.555-.436"/><path class="cls-3" d="M59.013,56.8a1.418,1.418,0,0,1-.17-2,1.465,1.465,0,0,1,2.037-.169,1.493,1.493,0,0,1,.16,2.062A1.446,1.446,0,0,1,59.013,56.8Z"/></g></g></svg>