<svg xmlns="http://www.w3.org/2000/svg" viewBox="0 0 86.759 55.885"><defs><style>.cls-1{fill:#bbb;}.cls-2,.cls-3{fill:none;stroke:#bbb;stroke-linecap:round;stroke-linejoin:round;}.cls-2{stroke-width:1.293px;}.cls-3{stroke-width:1.413px;}</style></defs><g id="Layer_2" data-name="Layer 2"><g id="Layer_3" data-name="Layer 3"><path class="cls-1" d="M9.665,21.354h0c4.436,0,9.688,2.445,11.424,7.909a42.635,42.635,0,0,1,1.657,17.889A39.329,39.329,0,0,1,6.17,40.35a11.763,11.763,0,0,1-4.756-9.6c-.01-3.386,1.276-6.53,3.275-8.009a8.433,8.433,0,0,1,4.976-1.382m0-1.414A9.863,9.863,0,0,0,3.848,21.6c-4.723,3.5-6.034,14.39,1.488,19.892a39.953,39.953,0,0,0,18.589,7.236,42.513,42.513,0,0,0-1.488-19.892c-1.943-6.114-7.781-8.895-12.772-8.895Z"/><path class="cls-1" d="M12.818,27.7h0a8.876,8.876,0,0,1,8.607,5.948,33.015,33.015,0,0,1,1.318,13.491,30.191,30.191,0,0,1-12.465-5.2A8.809,8.809,0,0,1,6.7,34.706c-.007-2.505.968-4.913,2.426-5.992A6.368,6.368,0,0,1,12.818,27.7m0-1.413a7.685,7.685,0,0,0-4.534,1.293c-3.68,2.724-4.7,11.215,1.16,15.5a31.138,31.138,0,0,0,14.488,5.64,33.128,33.128,0,0,0-1.159-15.5,10.283,10.283,0,0,0-9.955-6.933Z"/><path class="cls-1" d="M15.813,33.729a6.109,6.109,0,0,1,5.93,4.082,23.823,23.823,0,0,1,.992,9.3,21.733,21.733,0,0,1-8.553-3.657A6.069,6.069,0,0,1,11.72,38.47,5.216,5.216,0,0,1,13.34,34.4a4.266,4.266,0,0,1,2.473-.668m0-1.414a5.623,5.623,0,0,0-3.314.945c-2.69,1.992-3.437,8.2.848,11.334a22.761,22.761,0,0,0,10.591,4.123,24.2,24.2,0,0,0-.848-11.334,7.516,7.516,0,0,0-7.277-5.068Z"/><path class="cls-1" d="M18.434,39a3.691,3.691,0,0,1,3.588,2.451,15.743,15.743,0,0,1,.693,5.617A14.194,14.194,0,0,1,17.6,44.776a3.669,3.669,0,0,1-1.483-3.014,3.083,3.083,0,0,1,.914-2.4A2.481,2.481,0,0,1,18.434,39m0-1.414a3.813,3.813,0,0,0-2.247.641c-1.825,1.351-2.332,5.561.574,7.687a15.441,15.441,0,0,0,7.183,2.8,16.42,16.42,0,0,0-.575-7.686,5.1,5.1,0,0,0-4.935-3.437Z"/><line class="cls-2" x1="8.679" y1="9.877" x2="12.043" y2="10.732"/><line class="cls-2" x1="11.351" y1="5.691" x2="13.126" y2="8.674"/><line class="cls-2" x1="8.941" y1="14.764" x2="11.924" y2="12.99"/><line class="cls-3" x1="14.739" y1="14.745" x2="18.871" y2="12.124"/><line class="cls-3" x1="16.098" y1="8.007" x2="18.891" y2="12.024"/><path class="cls-1" d="M39.365,1.487c1.049.293,4.57,1.4,15.571,5.049-.015,1.962-.038,4.489-.127,6.106l-.139-.076C44.342,6.938,44.215,6.938,43.678,6.938a1.434,1.434,0,0,0-.57.119A32.92,32.92,0,0,0,39.767,8.7a30.211,30.211,0,0,1-3.093,1.526c-.932.4-.947.688-1.2,5.439-.139,2.589-.3,6.1-.475,10.162-.107,2.409-.221,4.973-.342,7.575-1.649.238-5.232.557-7.169.595C26,21.86,25.017,11.158,25.033,9.268c.693-.765,3.831-2.748,14.332-7.781M25.041,9.073h0M39.209,0l-.015,0C31.053,3.893,23.889,7.537,23.643,8.869c-.187,1.01.937,13.238,2.582,26.444.009.074.352.1.907.1,2.424,0,8.875-.6,8.887-.9.544-11.581.96-22.882,1.217-22.993C40.523,10.1,40.384,9.78,43.67,8.353h.008c.361,0,9.152,4.827,12.105,6.429a.09.09,0,0,0,.043.012c.464,0,.495-4.4.527-8.641-.018-.3-.155-.685-.436-.78C47.761,2.662,39.644,0,39.209,0Z"/><path class="cls-1" d="M40.511,24.273h0m-.256,1c2.118,1.149,3.314,1.787,4.511,2.425,1.214.648,2.43,1.3,4.616,2.482-2.581,3.733-3.959,5.752-5.293,7.709-1.323,1.94-2.689,3.942-5.232,7.62-1.652-.8-3.041-1.614-4.5-2.473-1.142-.67-2.312-1.357-3.619-2.035a82.543,82.543,0,0,1,7.6-4.533,1.762,1.762,0,0,0,.891-1.549l.013-.192a79.9,79.9,0,0,1,1.012-9.454m-.485-1.793a.635.635,0,0,0-.592.326c-.785,2.232-1.259,9.561-1.358,11.016-.011.161-.017.328-.158.405-1.22.666-7.063,3.853-8.963,5.566a.522.522,0,0,0,.11.827c3.714,1.771,6.172,3.645,9.942,5.4a1.5,1.5,0,0,0,.533.187.192.192,0,0,0,.17-.078c5.832-8.428,5.775-8.467,11.607-16.9a.728.728,0,0,0-.223-.875c-5.4-2.935-5.423-2.892-10.823-5.828a.523.523,0,0,0-.245-.054Z"/><path class="cls-1" d="M63.393,8.206h0m-.359.537a10.372,10.372,0,0,0,1.021.488c.151.065.292.125.453.2-2.812,4.317-4.3,6.569-5.745,8.749-1.408,2.129-2.861,4.325-5.551,8.451-3.252-1.764-5.064-2.642-6.822-3.493-1.733-.839-3.521-1.7-6.737-3.45.846-1.439,1.26-2.276,1.662-3.089s.777-1.571,1.578-2.931c2.6,1.487,3.953,2.234,5.257,2.957s2.665,1.476,5.31,2.988a2.256,2.256,0,0,0,1.121.282,2.215,2.215,0,0,0,1.869-.915c1.8-2.683,2.664-4.08,3.5-5.432.765-1.237,1.554-2.512,3.084-4.808M43.163,13.217h0M62.839,7.108a.752.752,0,0,0-.62.311c-3.569,5.323-3.374,5.454-6.943,10.777a.852.852,0,0,1-.7.289.871.871,0,0,1-.42-.1c-5.306-3.033-5.346-2.963-10.653-5.995a1.825,1.825,0,0,0-.864-.245.76.76,0,0,0-.693.341c-2.04,3.4-1.765,3.568-3.8,6.97-.2.333-.24.887.1,1.074,7.427,4.065,7.63,3.694,15.057,7.759a.691.691,0,0,0,.3.113c.108,0,.188-.076.3-.25,6-9.214,6.067-9.171,12.068-18.385.211-.323.372-.912.043-1.113-1.348-.825-1.468-.628-2.817-1.452a.687.687,0,0,0-.363-.1Z"/><path class="cls-3" d="M56.887,49.955a1.327,1.327,0,0,1,.075,1.888A1.294,1.294,0,0,1,55.107,52a1.371,1.371,0,0,1-.169-1.918A1.4,1.4,0,0,1,56.887,49.955Z"/><path class="cls-2" d="M57,51.877s8.794,5.381,10.29,2.528c1.986-3.788-17.32-19.489-14.246-23.027C56.9,26.942,81.868,47.715,85.808,43.2c2.958-3.386-16.731-17.946-12.875-22.375,1.627-1.869,4.292-.981,7.174.46"/><path class="cls-3" d="M82.5,20.6a1.337,1.337,0,0,1,.074,1.9,1.278,1.278,0,0,1-1.844.133,1.316,1.316,0,0,1-.152-1.874A1.374,1.374,0,0,1,82.5,20.6Z"/></g></g></svg>