<svg xmlns="http://www.w3.org/2000/svg" viewBox="0 0 73.602 56.31"><defs><style>.cls-1{fill:#bbb;}.cls-2,.cls-3{fill:none;stroke:#bbb;stroke-linecap:round;stroke-linejoin:round;}.cls-2{stroke-width:1.331px;}.cls-3{stroke-width:1.456px;}</style></defs><g id="Layer_2" data-name="Layer 2"><g id="Layer_3" data-name="Layer 3"><path class="cls-1" d="M34.676,1.456a34.474,34.474,0,0,1,3.534.217c9.438.979,19.8,7.267,20.227,10.225.024.162.086.591-1.078,1.071a1.085,1.085,0,0,1-.405.063c-1.092,0-2.935-.872-4.718-1.715a43.376,43.376,0,0,0-4.107-1.772,10.311,10.311,0,0,0-3.4-.638c-6.672,0-8.434,8.083-9.849,14.578-.86,3.946-1.835,8.42-3.552,9a1.95,1.95,0,0,1-.612.109c-.211,0-.853,0-1.705-1.055-1.551-1.922-2.782-6.055-3.376-11.339a44.374,44.374,0,0,1,.179-12.655c.909-4.21,3.641-6.087,8.859-6.087m0-1.456C30.37,0,25.7,1.2,24.394,7.236c-1.611,7.462.131,26.812,6.325,26.812a3.368,3.368,0,0,0,1.076-.185c5.833-1.963,3.316-23.5,12.937-23.5a8.8,8.8,0,0,1,2.913.555c3.5,1.234,7.006,3.571,9.309,3.571a2.5,2.5,0,0,0,.961-.174C65.388,11.23,50.224,1.455,38.36.225A35.734,35.734,0,0,0,34.676,0Z"/><path class="cls-1" d="M41.071,25.113h0c2.766,0,7.544,3.226,8.139,4.758.679,1.746-.494,5.372-2.851,8.817-2.654,3.878-6.043,6.484-8.436,6.484-.044,0-.087,0-.131,0-3.556-.144-6.33-1.078-7.611-2.561a3.552,3.552,0,0,1-.822-2.847c.189-1.783,1.909-2.231,4.512-2.71,1.911-.352,4.077-.751,4.384-2.735a15.793,15.793,0,0,0,.109-1.792c.061-2.165.164-5.789,1.937-7.238a1.318,1.318,0,0,1,.77-.173m0-1.456a2.623,2.623,0,0,0-1.692.5c-2.918,2.387-2.3,8.223-2.563,9.935-.367,2.373-8.371.469-8.905,5.515-.493,4.655,4.169,6.786,9.822,7.016.064,0,.127,0,.19,0,6.265,0,14.581-12.3,12.644-17.284-.872-2.246-6.265-5.687-9.5-5.687Z"/><path class="cls-1" d="M64.26,7.457l.026,1.458a3.253,3.253,0,0,1,2.329,2.1c1.172,5.831-2.081,11.035-8.49,13.582a9.334,9.334,0,0,1-3.426.563c-6.506,0-13.536-4.136-13.927-6.536a4.554,4.554,0,0,1,.984-3.762,3.113,3.113,0,0,1,2.131-1.2,1.071,1.071,0,0,1,.161.011c3.1.423,5.033,2.142,6.74,3.659,1.462,1.3,2.842,2.524,4.647,2.524a3.965,3.965,0,0,0,.89-.1c2.29-.531,3.63-3.345,5.05-6.324.643-1.351,2.15-4.513,2.885-4.514V7.457m0,0c-3.229,0-4.971,10.112-8.264,10.874a2.486,2.486,0,0,1-.561.065c-2.925,0-5.009-5.325-11.19-6.17a2.647,2.647,0,0,0-.358-.024c-2.274,0-5.185,2.763-4.552,6.654.6,3.662,8.891,7.758,15.364,7.758a10.8,10.8,0,0,0,3.964-.666c6.943-2.76,10.713-8.591,9.379-15.222a4.675,4.675,0,0,0-3.487-3.242,1.66,1.66,0,0,0-.3-.027Z"/><line class="cls-2" x1="8.24" y1="11.65" x2="11.705" y2="12.531"/><line class="cls-2" x1="10.992" y1="7.338" x2="12.82" y2="10.411"/><line class="cls-2" x1="8.509" y1="16.684" x2="11.583" y2="14.857"/><line class="cls-3" x1="14.483" y1="16.665" x2="18.738" y2="13.965"/><line class="cls-3" x1="15.882" y1="9.724" x2="18.759" y2="13.862"/><path class="cls-3" d="M10.749,23.591C19.7,35.315,19.588,35.4,28.538,47.123"/><path class="cls-3" d="M7.535,26.044c8.949,11.724,8.708,11.909,17.657,23.633"/><path class="cls-3" d="M4.046,28.707C13,40.431,12.89,40.512,21.839,52.236"/><path class="cls-3" d="M.728,31.24c8.95,11.724,9.008,11.679,17.958,23.4"/><path class="cls-3" d="M55.746,52.892a1.42,1.42,0,0,1,.651,1.881,1.386,1.386,0,1,1-2.514-1.17A1.424,1.424,0,0,1,55.746,52.892Z"/><path class="cls-3" d="M72.052,17.877a1.407,1.407,0,0,1,.7,1.853,1.366,1.366,0,0,1-1.846.615,1.333,1.333,0,0,1-.681-1.792A1.373,1.373,0,0,1,72.052,17.877Z"/><line class="cls-3" x1="55.729" y1="52.929" x2="70.88" y2="20.393"/></g></g></svg>