<svg xmlns="http://www.w3.org/2000/svg" viewBox="0 0 85.491 60.724"><defs><style>.cls-1,.cls-2{fill:none;stroke:#bbb;stroke-linecap:round;stroke-linejoin:round;}.cls-1{stroke-width:1.499px;}.cls-2{stroke-width:1.64px;}.cls-3{fill:#bbb;}</style></defs><g id="Layer_2" data-name="Layer 2"><g id="Layer_3" data-name="Layer 3"><line class="cls-1" x1="10.345" y1="14.814" x2="14.248" y2="15.806"/><line class="cls-1" x1="13.445" y1="9.958" x2="15.503" y2="13.419"/><line class="cls-1" x1="10.649" y1="20.483" x2="14.109" y2="18.425"/><line class="cls-2" x1="17.375" y1="20.461" x2="22.167" y2="17.421"/><line class="cls-2" x1="18.95" y1="12.645" x2="22.19" y2="17.304"/><path class="cls-3" d="M37.941,1.64a43.412,43.412,0,0,1,4.5.286c10.61,1.1,22.22,7.924,22.682,11.112.023.153.09.62-1.224,1.163a1.461,1.461,0,0,1-.545.086c-1.283,0-3.3-.906-5.443-1.866-1.379-.619-2.8-1.258-4.286-1.78a11.788,11.788,0,0,0-3.884-.73c-7.482,0-9.525,8.906-11.166,16.062-.995,4.339-2.124,9.258-4.061,9.91a2.231,2.231,0,0,1-.714.127c-.255,0-1.03,0-2.063-1.279-1.767-2.19-3.2-6.763-3.923-12.548-.653-5.2-.619-10.664.086-13.928C28.885,3.68,31.983,1.64,37.941,1.64m0-1.64C33.048,0,27.721,1.3,26.3,7.909c-1.812,8.4.5,29.741,7.5,29.741a3.86,3.86,0,0,0,1.237-.213c6.557-2.206,3.906-25.886,14.7-25.886a10.079,10.079,0,0,1,3.34.637c3.9,1.372,7.7,3.739,10.273,3.739a3.031,3.031,0,0,0,1.17-.211C72.938,12.242,55.968,1.68,42.608.3A45.28,45.28,0,0,0,37.941,0Z"/><path class="cls-3" d="M45.566,28.073h0c3.151,0,8.6,3.7,9.283,5.451.765,1.967-.558,6.055-3.217,9.94-2.99,4.37-6.808,7.306-9.5,7.306-.05,0-.1,0-.149,0-4-.162-7.125-1.216-8.572-2.891a4.018,4.018,0,0,1-.929-3.212c.194-1.831,1.806-2.406,5.347-3,2.348-.4,4.777-.806,5.125-3.059a15.078,15.078,0,0,0,.052-2.417c-.056-2.393-.151-6.4,1.718-7.925a1.446,1.446,0,0,1,.842-.187m0-1.639a2.91,2.91,0,0,0-1.879.556c-3.286,2.688-2.054,9.433-2.352,11.361-.413,2.671-9.881.458-10.482,6.14-.555,5.241,4.7,7.656,11.065,7.914.072,0,.142,0,.215,0,7.054,0,16.426-13.868,14.245-19.48-.985-2.536-7.155-6.5-10.812-6.5Z"/><path class="cls-3" d="M71.761,8.387,71.8,10.03a3.079,3.079,0,0,1,2.273,2.336c1.35,6.716-2.147,12.612-9.126,15.385a10.25,10.25,0,0,1-3.768.62c-6.913,0-15.337-4.478-15.831-7.513A5.622,5.622,0,0,1,46.6,16.3a3.44,3.44,0,0,1,2.336-1.385.982.982,0,0,1,.145.009c3.486.476,5.635,2.448,7.53,4.187,1.625,1.49,3.159,2.9,5.2,2.9a4.4,4.4,0,0,0,.991-.115c2.562-.593,4.079-3.671,5.685-6.93.791-1.6,2.435-4.938,3.278-4.938V8.387m0,0c-3.631,0-5.627,11.052-9.331,11.91a2.749,2.749,0,0,1-.621.072c-3.289,0-5.541-6.116-12.509-7.068a2.61,2.61,0,0,0-.367-.025c-2.569,0-5.92,3.444-5.2,7.846.674,4.141,10.133,8.888,17.449,8.888a11.909,11.909,0,0,0,4.374-.735C73.37,26.167,77.18,19.51,75.679,12.043A4.7,4.7,0,0,0,72.1,8.419a1.823,1.823,0,0,0-.342-.032Z"/><path class="cls-3" d="M11.211,26.289h0c5.145,0,11.237,2.837,13.251,9.175a49.453,49.453,0,0,1,1.922,20.75,45.62,45.62,0,0,1-19.227-7.89A13.646,13.646,0,0,1,1.64,37.183c-.011-3.928,1.48-7.575,3.8-9.291a9.785,9.785,0,0,1,5.772-1.6m0-1.64a11.442,11.442,0,0,0-6.748,1.925c-5.477,4.054-7,16.691,1.726,23.073a46.342,46.342,0,0,0,21.562,8.394,49.3,49.3,0,0,0-1.726-23.074C23.771,27.875,17,24.649,11.211,24.649Z"/><path class="cls-3" d="M14.867,33.648h0c3.879,0,8.47,2.134,9.984,6.9a38.311,38.311,0,0,1,1.53,15.647,35.189,35.189,0,0,1-14.46-6.025,10.218,10.218,0,0,1-4.152-8.392c-.008-2.905,1.123-5.7,2.815-6.95a7.375,7.375,0,0,1,4.283-1.179m0-1.639a8.913,8.913,0,0,0-5.259,1.5c-4.269,3.16-5.455,13.009,1.345,17.984a36.121,36.121,0,0,0,16.806,6.541,38.427,38.427,0,0,0-1.345-17.983c-1.757-5.528-7.035-8.042-11.547-8.042Z"/><path class="cls-3" d="M18.343,40.643h0a7.088,7.088,0,0,1,6.878,4.736,27.635,27.635,0,0,1,1.15,10.786,25.238,25.238,0,0,1-9.921-4.241A7.04,7.04,0,0,1,13.6,46.143a6.044,6.044,0,0,1,1.879-4.725,4.963,4.963,0,0,1,2.869-.775m0-1.639A6.517,6.517,0,0,0,14.5,40.1c-3.121,2.309-3.987,9.509.984,13.146a26.4,26.4,0,0,0,12.285,4.782,28.086,28.086,0,0,0-.984-13.146A8.718,8.718,0,0,0,18.343,39Z"/><path class="cls-3" d="M21.383,46.761h0a4.279,4.279,0,0,1,4.161,2.844,18.247,18.247,0,0,1,.8,6.515,16.468,16.468,0,0,1-5.938-2.662,4.257,4.257,0,0,1-1.72-3.5,3.576,3.576,0,0,1,1.06-2.779,2.884,2.884,0,0,1,1.633-.422m0-1.639a4.422,4.422,0,0,0-2.607.743c-2.116,1.567-2.7,6.449.667,8.916a17.907,17.907,0,0,0,8.331,3.243,19.052,19.052,0,0,0-.666-8.916,5.912,5.912,0,0,0-5.725-3.986Z"/><path class="cls-2" d="M65.387,56.878a1.594,1.594,0,1,1-2.059.8A1.553,1.553,0,0,1,65.387,56.878Z"/><path class="cls-2" d="M83.75,17.444a1.562,1.562,0,0,1,.778,2.069,1.612,1.612,0,0,1-2.109.789,1.643,1.643,0,0,1-.787-2.137A1.594,1.594,0,0,1,83.75,17.444Z"/><line class="cls-2" x1="65.375" y1="56.903" x2="82.436" y2="20.265"/></g></g></svg>