<svg xmlns="http://www.w3.org/2000/svg" viewBox="0 0 78.99 51.639"><defs><style>.cls-1,.cls-2{fill:none;stroke:#bbb;stroke-linecap:round;stroke-linejoin:round;}.cls-1{stroke-width:1.499px;}.cls-2{stroke-width:1.64px;}.cls-3{fill:#bbb;}</style></defs><g id="Layer_2" data-name="Layer 2"><g id="Layer_3" data-name="Layer 3"><line class="cls-1" x1="10.345" y1="5.715" x2="14.248" y2="6.707"/><line class="cls-1" x1="13.445" y1="0.859" x2="15.503" y2="4.32"/><line class="cls-1" x1="10.649" y1="11.384" x2="14.109" y2="9.326"/><line class="cls-2" x1="17.375" y1="11.362" x2="22.167" y2="8.322"/><line class="cls-2" x1="18.95" y1="3.546" x2="22.19" y2="8.205"/><path class="cls-3" d="M11.211,17.189h0c5.145,0,11.238,2.838,13.251,9.176a49.452,49.452,0,0,1,1.922,20.75,45.634,45.634,0,0,1-19.227-7.89A13.648,13.648,0,0,1,1.64,28.083c-.011-3.927,1.48-7.574,3.8-9.29a9.8,9.8,0,0,1,5.773-1.6m0-1.639a11.435,11.435,0,0,0-6.748,1.925c-5.477,4.054-7,16.691,1.726,23.073a46.347,46.347,0,0,0,21.562,8.393,49.3,49.3,0,0,0-1.726-23.073C23.772,18.776,17,15.55,11.211,15.55Z"/><path class="cls-3" d="M14.867,24.549h0c3.879,0,8.47,2.133,9.984,6.9a38.305,38.305,0,0,1,1.53,15.646,35.184,35.184,0,0,1-14.46-6.024,10.223,10.223,0,0,1-4.152-8.393c-.008-2.905,1.123-5.7,2.815-6.949a7.373,7.373,0,0,1,4.283-1.179m0-1.639a8.913,8.913,0,0,0-5.259,1.5c-4.269,3.159-5.455,13.009,1.345,17.983a36.117,36.117,0,0,0,16.806,6.542,38.432,38.432,0,0,0-1.345-17.984c-1.757-5.527-7.035-8.041-11.547-8.041Z"/><path class="cls-3" d="M18.343,31.544h0a7.087,7.087,0,0,1,6.878,4.736,27.635,27.635,0,0,1,1.15,10.786,25.228,25.228,0,0,1-9.921-4.242,7.037,7.037,0,0,1-2.855-5.78,6.043,6.043,0,0,1,1.879-4.725,4.955,4.955,0,0,1,2.869-.775m0-1.639A6.519,6.519,0,0,0,14.5,31c-3.121,2.31-3.987,9.51.984,13.146a26.4,26.4,0,0,0,12.285,4.782,28.086,28.086,0,0,0-.984-13.146,8.718,8.718,0,0,0-8.44-5.878Z"/><path class="cls-3" d="M21.382,37.662h0a4.28,4.28,0,0,1,4.162,2.844,18.242,18.242,0,0,1,.8,6.514,16.451,16.451,0,0,1-5.938-2.662,4.258,4.258,0,0,1-1.72-3.5,3.571,3.571,0,0,1,1.061-2.778,2.879,2.879,0,0,1,1.631-.422m0-1.64a4.423,4.423,0,0,0-2.607.744c-2.116,1.566-2.7,6.449.667,8.915a17.907,17.907,0,0,0,8.331,3.243,19.041,19.041,0,0,0-.667-8.915,5.912,5.912,0,0,0-5.724-3.987Z"/><path class="cls-2" d="M58.9,47.79a1.62,1.62,0,0,1,.8,2.113,1.639,1.639,0,0,1-2.139.772,1.557,1.557,0,0,1-.7-2.093A1.538,1.538,0,0,1,58.9,47.79Z"/><path class="cls-2" d="M77.292,8.292a1.584,1.584,0,0,1,.725,2.108,1.6,1.6,0,0,1-2.088.819,1.661,1.661,0,0,1-.78-2.154A1.644,1.644,0,0,1,77.292,8.292Z"/><line class="cls-2" x1="58.893" y1="47.804" x2="75.954" y2="11.166"/><path class="cls-3" d="M41.009,1.5c1.075.094,4.746.513,17.007,2.16.366,2.016.836,4.628,1.06,6.313l-.269-.087C48.007,6.406,47.262,6.244,46.8,6.244a1.561,1.561,0,0,0-.854.259,33.182,33.182,0,0,0-3.117,2.358,29.916,29.916,0,0,1-2.875,2.175c-.878.6-.839.888-.185,5.748.355,2.642.871,6.226,1.468,10.376.37,2.572.766,5.321,1.161,8.112-1.712.594-5.466,1.632-7.282,2.017-4.133-12.929-6.991-23.148-7.326-24.982.566-.93,3.412-3.59,13.221-10.8M40.636,0a.214.214,0,0,0-.092.01C32.925,5.6,26.274,10.75,26.28,12.168c0,1.076,3.523,13.443,7.789,26.71.008.027.061.04.151.04,1.254,0,9.848-2.415,9.8-2.77-1.7-12.021-3.475-23.722-3.232-23.887,3.1-2.108,2.889-2.425,5.992-4.533a.043.043,0,0,1,.023,0c.569,0,10.383,3.2,13.7,4.265a.118.118,0,0,0,.031,0c.51,0-.325-4.577-1.127-8.994-.076-.3-.29-.681-.6-.724C50.191,1.118,41.622,0,40.636,0Z"/><path class="cls-3" d="M46.633,24.732h0m-.069,1.078c2.4.766,3.749,1.189,5.1,1.612,1.379.431,2.756.861,5.242,1.658-1.928,4.341-2.952,6.687-3.943,8.96-.984,2.254-2,4.581-3.9,8.863-1.855-.5-3.441-1.069-5.112-1.667-1.3-.468-2.643-.947-4.121-1.391A92.128,92.128,0,0,1,46.772,37.7a1.846,1.846,0,0,0,.615-1.768l-.022-.191a83.324,83.324,0,0,1-.8-9.931m-.729-1.764a.692.692,0,0,0-.665.463c-.373,2.449.567,10.082.748,11.6.02.168.046.341-.085.448-1.124.923-6.515,5.341-8.137,7.473a.546.546,0,0,0,.275.829c4.166,1.1,7.06,2.55,11.281,3.625a2.167,2.167,0,0,0,.492.094.245.245,0,0,0,.25-.122c4.359-9.808,4.293-9.837,8.652-19.644a.759.759,0,0,0-.4-.855c-6.128-1.968-6.144-1.92-12.272-3.888a.458.458,0,0,0-.141-.021Z"/><path class="cls-3" d="M67.048,3.744h0m-.266.626c.483.159.817.236,1.122.307.175.042.34.08.532.134-2.05,4.98-3.141,7.586-4.2,10.108-1.034,2.469-2.1,5.017-4.068,9.793-3.7-1.186-5.732-1.745-7.7-2.286-1.947-.535-3.956-1.087-7.611-2.259.586-1.631.854-2.566,1.113-3.473s.509-1.774,1.075-3.343C50,14.369,51.526,14.875,53,15.365s3.029,1,6.047,2.044a2.226,2.226,0,0,0,.725.118,2.4,2.4,0,0,0,2.209-1.35c1.328-3.109,1.949-4.712,2.551-6.263.55-1.42,1.118-2.884,2.246-5.544M47.226,12.847h0M66.406,2.71a.792.792,0,0,0-.719.453c-2.635,6.172-2.428,6.26-5.063,12.433a.955.955,0,0,1-.848.451.755.755,0,0,1-.243-.037c-6.051-2.086-6.076-2.014-12.127-4.1a1.919,1.919,0,0,0-.616-.1.937.937,0,0,0-.953.529c-1.436,3.9-1.147,4-2.583,7.9-.141.382-.063.947.324,1.073,8.433,2.736,8.558,2.35,16.992,5.086a.949.949,0,0,0,.278.058c.158,0,.245-.095.342-.33,4.379-10.649,4.449-10.621,8.829-21.27.153-.374.185-.993-.193-1.136-1.547-.586-1.626-.378-3.174-.964a.69.69,0,0,0-.246-.044Z"/></g></g></svg>