<svg xmlns="http://www.w3.org/2000/svg" viewBox="0 0 87.769 103.945"><defs><style>.cls-1,.cls-2{fill:none;}.cls-1{stroke:#bbb;stroke-linecap:round;stroke-linejoin:round;stroke-width:2px;}</style></defs><g id="Layer_2" data-name="Layer 2"><g id="Layer_4" data-name="Layer 4"><path class="cls-1" d="M43.916,101.615c-.054-15.17.448-12.811.448-29.226,0-11.537-5.777-1.132-15.1-15.7-8.5-13.28-3.5-37.662,11.925-40.924A22.838,22.838,0,0,1,68.259,33.384c2.088,9.871-5.222,24.036-15.094,26.124-7.9,1.67-17.087-6.869-18.757-14.766-1.336-6.318,5.136-13.5,11.454-14.839A9.354,9.354,0,0,1,56.949,37.12a7.483,7.483,0,0,1-5.774,8.869,5.986,5.986,0,0,1-7.095-4.618c-.548-2.588-.616-32.225-.479-40.139"/><polyline class="cls-1" points="37.472 97.612 43.309 102.713 43.43 102.713 49.267 97.612"/></g><g id="Layer_3" data-name="Layer 3"><rect class="cls-2" width="87.769" height="103.945"/></g></g></svg>