<svg xmlns="http://www.w3.org/2000/svg" viewBox="0 0 61.395 62.981"><defs><style>.cls-1{fill:#bbb;}</style></defs><g id="Layer_2" data-name="Layer 2"><g id="Layer_3" data-name="Layer 3"><path class="cls-1" d="M21.9,2C34.625,2,46.434,6.741,47.4,9.835c.144.461-.251,1.018-1.173,1.655a2.928,2.928,0,0,1-1.638.325,31.867,31.867,0,0,1-5.909-.943c-1.848-.4-3.759-.814-5.7-1.059a17.015,17.015,0,0,0-2.114-.138c-5.207,0-8.689,2.7-10.351,8.018-1.312,4.2-1.342,9.436-1.371,14.5-.032,5.494-.067,11.722-2.206,13a2.378,2.378,0,0,1-1.237.377c-2.541,0-6.076-4.687-9.006-11.941C3.934,26.792,2,18.553,2,13.59,1.993,4.683,9.941,3.059,17.392,2.236A41.151,41.151,0,0,1,21.9,2m0-2a43.361,43.361,0,0,0-4.726.248C10.479.988-.008,2.55,0,13.592.008,23.714,7.666,47.566,15.7,47.566a4.366,4.366,0,0,0,2.262-.659c7.638-4.557-3.287-35.232,12.9-35.232a14.91,14.91,0,0,1,1.864.123c4.292.54,8.738,2.017,11.858,2.017a4.822,4.822,0,0,0,2.775-.68C55.643,7.412,37.495,0,21.9,0Z"/><path class="cls-1" d="M29.3,32.508h0c4.328,0,10.116,2.608,11.156,4.181,1.455,2.2.813,7.739-1.527,13.166-2.524,5.857-6.33,10.16-9.47,10.708a26.114,26.114,0,0,1-4.44.418c-1.828,0-7.393,0-7.958-5.222-.172-1.587.1-2.789,5.285-4.935,2.471-1.024,5.272-2.184,5.106-4.941A18.573,18.573,0,0,0,26.9,43c-.681-2.846-1.821-7.607.016-9.918.212-.265.964-.576,2.387-.576m0-2c-1.752,0-3.2.39-3.952,1.331-3.224,4.053-.035,11.787.108,14.163.2,3.292-11.134,3.044-10.384,9.973.542,5,4.56,7.006,9.947,7.006a28.085,28.085,0,0,0,4.783-.448c8.512-1.486,16.413-20.757,12.322-26.947-1.6-2.418-8.244-5.078-12.824-5.078Z"/><path class="cls-1" d="M54.555,3.933c1.7,0,3.048,1.763,3.4,2.567,3.358,7.688.652,15.932-6.893,21C49.015,28.877,45.8,29.635,42,29.635c-7.795,0-15.026-3.013-16.045-5.6a7.049,7.049,0,0,1,.5-6.3,3.348,3.348,0,0,1,2.205-1.764c.342-.027.686-.04,1.023-.04,3.749,0,6.553,1.656,9.027,3.118C40.674,20.2,42.528,21.3,44.534,21.3a5.278,5.278,0,0,0,2.272-.511c2.909-1.372,3.923-5.527,5-9.926.461-1.888,1.686-6.9,2.679-6.929h.073m0-2-.128,0c-4.78.13-4.15,15.005-8.474,17.045a3.267,3.267,0,0,1-1.419.32c-3.552,0-7.556-5.373-14.85-5.373q-.576,0-1.178.046c-3.194.248-6.5,5.482-4.412,10.789C25.62,28.641,34.173,31.635,42,31.635c3.886,0,7.595-.739,10.176-2.473C60.7,23.438,63.506,14.215,59.787,5.7c-.545-1.248-2.435-3.767-5.232-3.767Z"/></g></g></svg>