<svg xmlns="http://www.w3.org/2000/svg" viewBox="0 0 61.355 63.933"><defs><style>.cls-1{fill:#bbb;}</style></defs><g id="Layer_2" data-name="Layer 2"><g id="Layer_3" data-name="Layer 3"><path class="cls-1" d="M14.927,2a53.136,53.136,0,0,1,5.488.349c12.941,1.342,27.1,9.666,27.668,13.555.027.187.11.757-1.494,1.419a1.769,1.769,0,0,1-.664.105c-1.565,0-4.03-1.105-6.639-2.276-1.682-.755-3.422-1.535-5.229-2.171a14.372,14.372,0,0,0-4.739-.891c-9.126,0-11.618,10.864-13.62,19.593-1.214,5.294-2.591,11.3-4.954,12.09a2.762,2.762,0,0,1-.871.154c-.31,0-1.256,0-2.516-1.561C5.2,39.7,3.457,34.117,2.571,27.06c-.8-6.339-.755-13.008.1-16.991C3.88,4.489,7.659,2,14.927,2m0-2C8.958,0,2.46,1.591.721,9.647c-2.211,10.241.616,36.28,9.152,36.28a4.7,4.7,0,0,0,1.509-.259c8-2.691,4.764-31.578,17.936-31.578a12.321,12.321,0,0,1,4.075.777c4.754,1.674,9.4,4.561,12.532,4.561a3.7,3.7,0,0,0,1.428-.257C57.618,14.934,36.917,2.05,20.621.36A55.185,55.185,0,0,0,14.927,0Z"/><path class="cls-1" d="M24.228,34.245h0c3.844,0,10.492,4.508,11.325,6.65.932,2.4-.681,7.386-3.925,12.125-3.647,5.331-8.3,8.913-11.589,8.913-.061,0-.12,0-.181,0-4.88-.2-8.692-1.484-10.457-3.527a4.9,4.9,0,0,1-1.133-3.919c.237-2.233,2.2-2.934,6.523-3.663,2.864-.483,5.826-.983,6.252-3.731a18.531,18.531,0,0,0,.063-2.948c-.069-2.919-.184-7.8,2.095-9.668a1.767,1.767,0,0,1,1.027-.228m0-2a3.549,3.549,0,0,0-2.292.679c-4.008,3.279-2.5,11.507-2.869,13.859-.5,3.258-12.053.559-12.787,7.49-.676,6.394,5.733,9.339,13.5,9.654.088,0,.174.006.262.006,8.606,0,20.038-16.917,17.378-23.763-1.2-3.094-8.729-7.925-13.19-7.925Z"/><path class="cls-1" d="M56.183,10.231l.046,2.005A3.754,3.754,0,0,1,59,15.085c1.647,8.193-2.619,15.384-11.132,18.768a12.521,12.521,0,0,1-4.6.755c-8.433,0-18.709-5.462-19.312-9.164a6.859,6.859,0,0,1,1.524-5.56,4.2,4.2,0,0,1,2.85-1.689,1.153,1.153,0,0,1,.177.012c4.251.581,6.873,2.985,9.186,5.106,1.981,1.818,3.853,3.535,6.343,3.535a5.349,5.349,0,0,0,1.209-.14c3.126-.724,4.976-4.479,6.936-8.454.964-1.955,2.969-6.023,4-6.023v-2m0,0c-4.43,0-6.865,13.482-11.383,14.529a3.4,3.4,0,0,1-.758.088c-4.012,0-6.758-7.462-15.258-8.623a3.316,3.316,0,0,0-.448-.03c-3.134,0-7.222,4.2-6.348,9.571.823,5.052,12.361,10.842,21.286,10.842a14.542,14.542,0,0,0,5.335-.9C58.146,31.921,62.794,23.8,60.962,14.69A5.729,5.729,0,0,0,56.6,10.27a2.131,2.131,0,0,0-.417-.039Z"/></g></g></svg>