<?xml version="1.0" encoding="utf-8"?>
<!-- Generator: Adobe Illustrator 24.1.0, SVG Export Plug-In . SVG Version: 6.00 Build 0)  -->
<svg version="1.1" id="Layer_1" xmlns="http://www.w3.org/2000/svg" xmlns:xlink="http://www.w3.org/1999/xlink" x="0px" y="0px"
	 viewBox="0 0 18.4 29.5" style="enable-background:new 0 0 18.4 29.5;" xml:space="preserve">
<style type="text/css">
	.st0{opacity:0;fill:none;stroke:#231F20;stroke-width:1.000000e-02;stroke-miterlimit:10;}
	.st1{fill:none;stroke:#231F20;stroke-miterlimit:10;}
</style>
<rect x="0.1" y="0" class="st0" width="18.3" height="29.5"/>
<line class="st0" x1="9.2" y1="0" x2="9.2" y2="29.5"/>
<path class="st1" d="M9.2,0c0,0.5-0.1,1.3-0.1,2.1C9.2,3,16.3,1.4,16.3,3S1.5,3.1,1.5,4.3c0,1.4,14.6-0.2,14.9,1.2
	C16.7,6.9,1.8,6,2,7.2C2.1,8.5,17.2,7.2,17.2,8c-0.1,1.2-6,1-6,1.9c0,0.6-0.1,0.6-1.8,0.6c-1.8,0-4.2,0.2-4.2,3.1s0,2.3,0,3.9
	c0,1.6,1.9,1.9,3.8,1.9s4.3,0,5.9,0s3.1-0.6,3.1-3.1c0-2.5,0-1.3,0-2.7c0-1.4-2.8-2-6.7-2s-4.6-0.1-4.6,1.9s0,1.9,0,3.5s2.9,1,3.9,1
	s0.8,1.2,0.8,1.8c0,0.6-1.5,0.9-2.1,1.5C8.6,22,10.7,22,11.8,22c1.1,0,2.4,0.1,1.8-0.5s-1.9-0.9-2.3-0.7S8.9,22,7.1,22.2
	c-1.1,0.1-0.6,0.4-2.9,0.7c-2.3,0.3-2.1-1.3-1.3-1.8c0.7-0.4,3.5,0.8,3.3,2.1S0.6,24.4,0.6,23c0-1.4,2.7-3.3,2.2-6.3
	c-0.5-3-2.4-2.2-1.6-0.4s4.2,8.9,4.6,10.1s-2.3,2.4-2.4,1.2c-0.1-1.1,2-1.3,2.7-1.2c1.5,0.1,3.2,1.3,3.2,3.3"/>
</svg>
