<svg id="Layer_1" data-name="Layer 1" xmlns="http://www.w3.org/2000/svg" viewBox="0 0 18.263 29.546"><defs><style>.cls-1,.cls-2{fill:none;stroke:#231f20;stroke-miterlimit:10;}.cls-1{stroke-width:0.01px;opacity:0;}</style></defs><rect class="cls-1" x="0.005" y="0.005" width="18.253" height="29.536"/><line class="cls-1" x1="9.132" y1="0.005" x2="9.132" y2="29.541"/><path class="cls-2" d="M9.15,29.518c0-2.172-1.366-2.605-1.138-3.471.242-.923,3.067-1.215,3.859-1.475,1.226-.4,2.575-.858,3.146-2.129a.976.976,0,0,0,.088-.722,1.021,1.021,0,0,0-.5-.491c-2.853-1.586-5.048,1.022-7.031,2.722-.806.692-2.107,2.134-3.181,2.346-2.186.431-.9-2.975-.416-3.855.153-.283-.309-.489-.454-.636-.358-.364-.2-.545.02-.977a15.565,15.565,0,0,1,1.717-2.682,3.7,3.7,0,0,1,1.061-.993,1.488,1.488,0,0,1,1.4-.074c1.445.787-.612,3.157-1.2,3.887a5.117,5.117,0,0,1-1.464,1.513c-.262.132-.658.082-.749-.2a.714.714,0,0,1,.148-.56q1.29-2.135,2.76-4.154a1.859,1.859,0,0,0,.512-1.334,2.208,2.208,0,0,0-.505-.882,4.342,4.342,0,0,1-.9-2.477A3.627,3.627,0,0,1,9.68,9.07c2.646-.1,5.476,1.119,5.218,4.211a4.932,4.932,0,0,1-4.857,4.35,4.989,4.989,0,0,1-4.687-4.555A5.049,5.049,0,0,1,9.488,7.994c1.11-.17,2.257.042,3.359-.175s2.229-2.113,2.1-3.228a.576.576,0,0,0-.282-.482.688.688,0,0,0-.377-.013c-3.147.492-6.167,1.645-9.367,1.832-.3.017-.65,0-.809-.251a.758.758,0,0,1,.059-.727c.98-1.934,4.984-1.8,4.984-4.968" transform="translate(-0.018 0.023)"/></svg>