<svg id="Layer_1" data-name="Layer 1" xmlns="http://www.w3.org/2000/svg" viewBox="0 0 18.277 29.546"><defs><style>.cls-1,.cls-2{fill:none;stroke:#231f20;stroke-miterlimit:10;}.cls-1{stroke-width:0.01px;opacity:0;}</style></defs><rect class="cls-1" x="0.005" y="0.005" width="18.253" height="29.536"/><line class="cls-1" x1="9.132" y1="0.005" x2="9.132" y2="29.541"/><path class="cls-2" d="M9.139.005A3.454,3.454,0,0,1,7.527,3.2c-.818.557-1.774.855-2.618,1.366A8.09,8.09,0,0,0,2.661,6.484,10.186,10.186,0,0,0,.845,10.335,12.348,12.348,0,0,0,2.4,19.681a7.929,7.929,0,0,0,4.648,3.26,8.06,8.06,0,0,0,6.4-.938c2.607-1.7,3.738-4.76,4.161-7.715a15.016,15.016,0,0,0-.268-5.9,6.222,6.222,0,0,0-2.223-3.643,5.276,5.276,0,0,0-3.575-.772,12.61,12.61,0,0,0-3.562,1.08A4.925,4.925,0,0,0,6.061,6.3,4.541,4.541,0,0,0,5.237,8.36a17.316,17.316,0,0,0-.321,3.2,3.578,3.578,0,0,0,.452,2.067,3.422,3.422,0,0,0,1.273,1.013,2.7,2.7,0,0,0,2.019.4,1.94,1.94,0,0,0,1.115-1.076,4.434,4.434,0,0,0,.323-1.553c.107-1.67-.11-3.359.145-5.012.071-.457.212-1.294.6-1.539a1.725,1.725,0,0,1,.9-.186q.851-.017,1.7.019a2.242,2.242,0,0,1,.938.181,1.923,1.923,0,0,1,.637.594,6.418,6.418,0,0,1,1.029,4.412c-.1.671-.321,1.323-.376,2a1.585,1.585,0,0,1-.258.979,1.164,1.164,0,0,1-.4.254,5.217,5.217,0,0,1-2.732.414,1.754,1.754,0,0,1-.725-.215,1.165,1.165,0,0,1-.443-1.367,1.331,1.331,0,0,1,1.216-.819c.651-.005,1.36.425,1.9.069a.77.77,0,0,0-.376-1.414,2.49,2.49,0,0,0-.725.148,1.307,1.307,0,0,1-1.247-.28.777.777,0,0,1,.083-1.161,1.156,1.156,0,0,1,.472-.124A9.258,9.258,0,0,1,14.1,9.34a.879.879,0,0,0-.309-.941,3.448,3.448,0,0,0-.964-.408C10.34,6.958,9.835,6.9,7.357,8.027c-.155.071-.348.1-.432.247-.168.3.22.635.562.634s.671-.17,1.012-.141a.875.875,0,0,1,.541,1.5c-.629.621-1.941.128-2.416.874a.36.36,0,0,0-.068.235.353.353,0,0,0,.069.16A1.44,1.44,0,0,0,7.459,12a1.964,1.964,0,0,1,.882.4.6.6,0,0,1,.043.864.831.831,0,0,1-.441.133,9.885,9.885,0,0,1-1.746.01,3.809,3.809,0,0,0-1.848.091,2.123,2.123,0,0,0-.84.72,4.224,4.224,0,0,0-.7,1.845,2.32,2.32,0,0,0,.317,1.81,1.05,1.05,0,0,0,1.62.066c.374-.585-.059-1.563.521-1.944a.812.812,0,0,1,.849.043,2.382,2.382,0,0,1,.618.643L7.2,17.3a.393.393,0,0,1,.084.157.337.337,0,0,1-.069.236,3.713,3.713,0,0,1-.7.664.974.974,0,0,0-.391.839,1.05,1.05,0,0,0,.675.671,4.4,4.4,0,0,0,3.243.14,1.059,1.059,0,0,0,.666-.5,1.185,1.185,0,0,0,.019-.653l-.233-1.473c-.072-.449-.261-1.01-.715-1.027a.671.671,0,0,0-.363.1,1.439,1.439,0,0,0-.356,1.895,3.824,3.824,0,0,0,1.6,1.369,1.168,1.168,0,0,0,.562.2c.452,0,.733-.491.851-.927a4.45,4.45,0,0,0-.014-2.344c-.055-.192-.115-.423.016-.574a.5.5,0,0,1,.253-.137,2.1,2.1,0,0,1,1.11-.011.465.465,0,0,1,.22.108.523.523,0,0,1,.09.421,13.96,13.96,0,0,1-1.978,6.084,35.015,35.015,0,0,0-2.343,4.715,6.679,6.679,0,0,0-.282,2.293" transform="translate(-0.007 0)"/></svg>