<?xml version="1.0" encoding="utf-8"?>
<!-- Generator: Adobe Illustrator 24.1.0, SVG Export Plug-In . SVG Version: 6.00 Build 0)  -->
<svg version="1.1" id="Layer_1" xmlns="http://www.w3.org/2000/svg" xmlns:xlink="http://www.w3.org/1999/xlink" x="0px" y="0px"
	 viewBox="0 0 18.3 29.5" style="enable-background:new 0 0 18.3 29.5;" xml:space="preserve">
<style type="text/css">
	.st0{fill:none;stroke:#231F20;stroke-miterlimit:10;}
	.st1{opacity:0;}
	.st2{fill:none;stroke:#231F20;stroke-width:1.000000e-02;stroke-miterlimit:10;}
</style>
<path class="st0" d="M9.1,0c0,3.1,1.3,7.3,3.1,9.8c0.5,0.7,2.3,3.2,0.5,3.6c-0.6,0.1-1.2-0.2-1.7-0.6C8.7,10.7,9,5,8.2,4.3
	s-4.4,1.8-6.4,3C1.7,7.3,1.5,7.5,1.4,7.7c-0.1,0.2,0,0.4,0.1,0.6c2.9,6.4,6.4,12.6,10.4,18.4c0.2,0.3,0.4,0.6,0.7,0.7
	c0.7,0.3,1.5-0.5,1.7-1.3c0.3-1.4-0.4-3-1.6-3.8c-0.3-0.2-0.6-0.3-0.8-0.6c-0.2-0.3-0.2-0.8,0.2-0.9c0.2-0.1,0.5,0.1,0.7,0.2
	c0.7,0.4,1.4,0.9,2.1,1.3c0.3,0.2,0.9,0.3,1,0c0-0.2-0.1-0.3-0.1-0.5c-0.9-1.2-2.6-1.8-3.5-3c-0.2-0.3-0.3-1,0.1-1
	c0.1,0,0.3,0,0.4,0.1c1.1,0.5,2.3,2.2,3.2,1.6s-1-1.6-1.8-2.2c-0.8-0.6-1.8-1.6-1.5-2.4s2,1,3,1.5c0.2-0.2,0-0.5-0.1-0.7
	c-1.7-2.1-4-3.8-6.6-4.8c-0.8-0.3-1.6-0.5-2.3-0.2s-1.2,1.3-0.7,1.9C6,12.8,6.4,12.9,6.8,13c2.5,0.5,5.2,0.6,7.7,0.1
	c0.8-0.1,1.6-0.3,2.3,0c0.7,0.3,1.3,1.2,0.8,1.9c-0.4,0.5-1.2,0.5-1.8,0.2c-0.6-0.3-1-0.8-1.5-1.1C14.2,14,14.1,13.9,14,14
	c-0.3,0-0.3,0.4-0.3,0.6c0,3.3,0.9,6.6,0,9.7c-0.1,0.3-0.2,0.5-0.4,0.7c-0.5,0.3-1.1-0.3-1.4-0.9c-1.6-2.9-3.1-5.9-4.4-9
	c-0.4-1-1.9-6-3.2-6.1C2.8,8.9,1,9.5,1.4,11.4c0.5,2.1,7.7,13.1,7.7,18.2"/>
<g class="st1">
	<rect x="0" y="0" class="st2" width="18.3" height="29.5"/>
	<line class="st2" x1="9.1" y1="29.5" x2="9.1" y2="0"/>
</g>
</svg>
