<?xml version="1.0" encoding="utf-8"?>
<!-- Generator: Adobe Illustrator 24.1.0, SVG Export Plug-In . SVG Version: 6.00 Build 0)  -->
<svg version="1.1" id="Layer_1" xmlns="http://www.w3.org/2000/svg" xmlns:xlink="http://www.w3.org/1999/xlink" x="0px" y="0px"
	 viewBox="0 0 18.3 29.5" style="enable-background:new 0 0 18.3 29.5;" xml:space="preserve">
<style type="text/css">
	.st0{opacity:0;fill:none;stroke:#231F20;stroke-width:1.000000e-02;stroke-miterlimit:10;}
	.st1{fill:none;stroke:#231F20;stroke-miterlimit:10;}
</style>
<rect x="0" y="0" class="st0" width="18.3" height="29.5"/>
<line class="st0" x1="9.1" y1="0" x2="9.1" y2="29.5"/>
<path class="st1" d="M9.1,29.5c0-2.8-4-1.9-2.4-5.3c0.9-1.9,3.4,0.2,4.5,0.9c1.5,0.9,3.2,1.7,4.4,3c0,0,0.1,0.1,0.1,0.2
	c0,0-0.1,0.1-0.1,0.1c-0.4,0.3-1,0-1.4-0.2c-2.4-1.5-5.8-4.4-6.3-7.3c-0.2-1.4,0.3-3.1,1.1-4.4c0.6-1,1.8-2.1,2.8-2.6
	c1-0.5,0.8-0.6,1.8-1.1c2.5-1.3,2.3-4.3,2.6-6.6c0-0.1,0.1-0.3,0.2-0.4c0.1,0,0.1,0,0.2,0c0.3,0.2,0.8,0.5,0.9,0.8s0,0.7-0.1,1.1
	c-0.8,2.6-4.4,6.6-7.4,6.6c-2.9,0-3.2-6-0.8-6s2.1,5.7,0,5.7s-5.7-0.5-6.8-6.4c-0.6-3,3.6-3.9,5.4-5.1C8.7,2,9.1,1.7,9.1,0"/>
</svg>
