<?xml version="1.0" encoding="utf-8"?>
<!-- Generator: Adobe Illustrator 24.1.0, SVG Export Plug-In . SVG Version: 6.00 Build 0)  -->
<svg version="1.1" id="Layer_1" xmlns="http://www.w3.org/2000/svg" xmlns:xlink="http://www.w3.org/1999/xlink" x="0px" y="0px"
	 viewBox="0 0 18.3 29.5" style="enable-background:new 0 0 18.3 29.5;" xml:space="preserve">
<style type="text/css">
	.st0{opacity:0;fill:none;stroke:#231F20;stroke-width:1.000000e-02;stroke-miterlimit:10;}
	.st1{fill:none;stroke:#231F20;stroke-miterlimit:10;}
</style>
<rect x="0" y="0" class="st0" width="18.3" height="29.5"/>
<line class="st0" x1="9.1" y1="0" x2="9.1" y2="29.5"/>
<path class="st1" d="M9.1,0c0,2.5-2.8,2.4-5.1,4.7s-0.4,5.8,1.5,6.8s5.4,0,6.5-2.2S11.6,5,10.7,4.3s1.9,5.4,2.8,5.1
	c0.9-0.3,1.3-2,0.7-2.3c-0.6-0.3-1.3,0.7-1.3,4.2s0.5,8,0,8.8c-0.2,0.3-2.3,0.4-3.3,2c-0.5,0.7-0.4,6.9-0.4,7.5"/>
</svg>
