<?xml version="1.0" encoding="utf-8"?>
<!-- Generator: Adobe Illustrator 24.1.0, SVG Export Plug-In . SVG Version: 6.00 Build 0)  -->
<svg version="1.1" id="Layer_1" xmlns="http://www.w3.org/2000/svg" xmlns:xlink="http://www.w3.org/1999/xlink" x="0px" y="0px"
	 viewBox="0 0 18.3 29.5" style="enable-background:new 0 0 18.3 29.5;" xml:space="preserve">
<style type="text/css">
	.st0{opacity:0;fill:none;stroke:#231F20;stroke-width:1.000000e-02;stroke-miterlimit:10;}
	.st1{fill:none;stroke:#231F20;stroke-miterlimit:10;}
</style>
<rect x="0" y="0" class="st0" width="18.3" height="29.5"/>
<line class="st0" x1="9.1" y1="0" x2="9.1" y2="29.5"/>
<path class="st1" d="M9.1,0c0,2.8-3.8,4.2-6.3,5.5C-0.2,7.2,3.4,27,5,26.3c1.6-0.6,11.3-0.9,11.2-3.6C16,20,15.9,5.1,13.8,4.5
	S4.3,4.8,4.5,6.6s-0.9,4.9,1.1,4.7c2-0.2,5.1-0.3,5.3-1.5s0.3-4.1-0.7-4.1S0.9,7,0.9,8.3S0,12.7,1.3,13.1s15-4.8,15.6-3
	s1.3,14.3,0,15.1c-0.3,0.2-0.7,0.3-1.1,0.4c-1.3,0.3-2.6,0.4-3.8,0.8c-1,0.3-2.9,0.7-2.9,3.2"/>
</svg>
