<svg xmlns="http://www.w3.org/2000/svg" viewBox="0 0 550.25 543.498"><defs><style>.cls-1{opacity:0.8;}.cls-2{fill:#93315a;}.cls-3{fill:#e7c4a7;}.cls-4{fill:#bd6753;}.cls-5{opacity:0.85;}.cls-6{fill:#efd787;}.cls-7{fill:none;stroke:#bbb;stroke-miterlimit:10;}.cls-10,.cls-8,.cls-9{font-size:11.37px;fill:#4d4d4d;}.cls-8{font-family:Courier-Oblique, Courier;font-style:oblique;}.cls-9{font-family:Courier-Bold, Courier;font-weight:700;}.cls-10{font-family:Courier;}</style></defs><g id="Layer_2" data-name="Layer 2"><g id="Layer_1-2" data-name="Layer 1"><g class="cls-1"><path class="cls-2" d="M454.084,413.683c-1.993,28.7-12.693,54.129-28.333,72.3C409.694,504.646,386.1,515.129,360.21,523.5a242.248,242.248,0,0,1-74.884,11.865c-24.359,0-47.142-4.793-67.975-14.228-21.584-9.774-41.873-22.543-57.333-40.1-15.372-17.463-30.14-39.655-37.108-62.471,11.09,1.54,26.416,5.455,38.206,5.455,20.247,0,41.364-1.394,59.3-8.039,18.6-6.89,33.881-28.006,48.648-40.691,14.651,12.59,30.446,34.056,49.23,42.874,18.4,8.638,39.743,11.483,60.144,11.551C401.207,429.791,431.893,421.4,454.084,413.683Z"/></g><g class="cls-1"><path class="cls-3" d="M117.489,380.589c0,16.87,8.251,27.542,12.941,42.882-23.779-3.278-50.073-10.824-68.912-19.69C40.2,393.747,23.751,377.052,12.039,358.116,1.43,340.964,1.709,319.5,1.709,293.6c0-24.217-1.091-49.378,8.241-73A223.651,223.651,0,0,1,48.659,157c16.727-19.31,36.95-35.314,59.007-45.4-4.5,14.41-4.448,30.338-4.448,46.848,0,23.706,4.228,43.383,13.192,61.761,9.24,18.942,23.211,36,39.844,51.365-10.814,14.191-20.215,33.2-26.026,52.54C124.631,342.746,117.489,362.077,117.489,380.589Z"/></g><g class="cls-1"><path class="cls-4" d="M433.39,152.06c0,20.07-.273,40.032-6.809,57.838-6.776,18.462-19.291,37.436-31.783,52.147-20.32-21.53-42.451-42.372-69.411-50.2-9.03-31.56-28.1-57.876-52.339-78.7,14.762-12.685,30.432-23.808,49.028-30.7,17.936-6.645,37.8-11.139,58.039-11.139,16.2,0,30.843,6.273,45.643,12.053A148.8,148.8,0,0,1,433.39,152.06Z"/></g><g class="cls-5"><path class="cls-6" d="M331.221,258.814c0,17.37-1.275,35-6.225,50.728-16.76,5.711-35.608,6.349-54.3,6.349-16.05,0-31.8-.5-46.483-4.76-5.42-16.38-7.351-34.117-7.351-52.317,0-12.08-.787-25.3,1.673-36.641a171.146,171.146,0,0,1,71.621-15.661c12.08,0,23.564,3.531,34.9,6.831A163.918,163.918,0,0,1,331.221,258.814Z"/></g><path class="cls-7" d="M432.747,151.2c0,22.479-7.971,42.251-16.077,61.8-8.4,20.263-20.517,36.344-35.788,51.615s-30.691,28.978-50.954,37.381c-19.547,8.105-39.979,10.859-62.458,10.859s-44.867,1.964-64.414-6.142c-20.264-8.4-37.429-23.126-52.7-38.4s-22.485-35.55-30.888-55.813c-8.105-19.547-23.006-38.822-23.006-61.3,0-22.4,14.243-41.042,22.3-59.45C127.329,72.155,139.4,57.6,155.144,43.658c15.446-13.676,29.822-29,50.256-36.128,19.159-6.686,40.141-5.967,62.07-5.967s43.978-3.778,63.137,2.909c20.435,7.132,39.278,19.26,54.723,32.937,15.746,13.942,21.506,35.086,30.077,54.678C423.46,110.5,432.747,128.8,432.747,151.2Z"/><path class="cls-7" d="M328,258.352c0,22.479-7.971,42.25-16.077,61.8-8.4,20.264-20.517,36.344-35.788,51.615s-30.691,28.978-50.954,37.381c-19.547,8.105-39.979,10.86-62.458,10.86-28.736,0-56.66,1.907-80.222-7.172-26.508-10.213-47.6-28.574-62.829-50.2-14.368-20.405-17.1-45.779-17.1-76.277,0-22.727-5.958-47.925,2.318-70.239C12.987,194.287,33.439,178.4,47.8,160.237c14.8-18.716,31.585-32.517,51.291-43.864,20.392-11.743,39.929-23.952,63.631-23.952,22.479,0,42.321,8.453,61.869,16.559,20.263,8.4,42.482,14.48,57.753,29.75s27.335,35.007,35.738,55.27C326.192,213.547,328,235.873,328,258.352Z"/><path class="cls-7" d="M538.489,286.352c0,30.5.886,58.2-13.482,78.6-15.23,21.63-40.395,35.656-66.9,45.869-23.562,9.079-50.711,16.518-79.447,16.518-22.479,0-44.053-7.335-63.6-15.44-20.263-8.4-36.232-23.174-51.5-38.445s-25.512-33.118-33.914-53.381c-8.106-19.548-18.391-39.244-18.391-61.722s10.773-41.973,18.878-61.52c8.4-20.264,16.432-40.038,31.7-55.309s33.032-28.152,53.3-36.555c19.547-8.105,41.053-11.034,63.532-11.034,23.7,0,43.359,10.489,63.751,22.232,19.706,11.347,40.441,22.133,55.243,40.85a224.866,224.866,0,0,1,34.172,60.827C540.1,240.157,538.489,263.625,538.489,286.352Z"/><path class="cls-7" d="M456.24,401.338c0,30.5-14.255,54.207-28.623,74.613-15.23,21.63-36.993,33.773-63.5,43.986C340.554,529.016,315.667,543,286.931,543c-22.478,0-44.041-8.034-63.588-16.14-20.264-8.4-40.633-18.756-55.9-34.027s-25.653-35.629-34.055-55.892c-8.106-19.548-9.233-41.122-9.233-63.6s5.657-42.174,13.762-61.721c8.4-20.264,15.372-41.383,30.643-56.654s36.592-21.753,56.856-30.155c19.547-8.106,39.041-16.69,61.519-16.69a132.67,132.67,0,0,1,66.73,17.862c19.706,11.347,36.236,28.276,51.038,46.993,14.366,18.164,21.658,40.126,29.752,61.951C442.727,357.238,456.24,378.612,456.24,401.338Z"/><text class="cls-8" transform="translate(209.744 53.588)">what you’re good at</text><text class="cls-8" transform="translate(18.745 309.931)">what you love</text><text class="cls-8" transform="translate(413.782 309.932)">what the world needs</text><text class="cls-9" transform="translate(239.795 262.734)">zen master</text><text class="cls-9" transform="translate(32.397 285.095)">bohemians</text><text class="cls-9" transform="translate(337.331 162.166)">citizens</text><text class="cls-9" transform="translate(240.487 450.342)">profiteers</text><text class="cls-8" transform="translate(192.587 470.784)">what you can be paid for</text><text class="cls-10" transform="translate(257.508 68.063)">skill</text><text class="cls-10" transform="translate(39.224 325.51)">passion</text><text class="cls-10" transform="translate(441.077 325.509)">contribution</text><text class="cls-10" transform="translate(257.644 484.296)">money</text></g></g></svg>