<svg xmlns="http://www.w3.org/2000/svg" viewBox="0 0 85.197 69.479"><defs><style>.cls-1,.cls-2{fill:none;stroke:#bbb;stroke-linecap:round;stroke-linejoin:round;}.cls-1{stroke-width:1.535px;}.cls-2{stroke-width:1.403px;}.cls-3{fill:#bbb;}</style></defs><g id="Layer_2" data-name="Layer 2"><g id="Layer_3" data-name="Layer 3"><path class="cls-1" d="M53.693,58.246a1.55,1.55,0,0,1,.34,2.114,1.519,1.519,0,0,1-2.091.323,1.46,1.46,0,0,1-.3-2.045A1.491,1.491,0,0,1,53.693,58.246Z"/><path class="cls-2" d="M54,60.334s10.054,4.918,11.38,1.682c1.76-4.3-20.712-19.3-17.75-23.435,3.712-5.188,32.822,14.714,36.621,9.436,2.851-3.963-19.919-17.69-16.2-22.871,1.567-2.186,4.538-1.5,7.8-.236"/><path class="cls-1" d="M78.358,23.925a1.458,1.458,0,0,1,.293,2.046,1.419,1.419,0,0,1-2,.336,1.475,1.475,0,0,1-.373-2.046A1.514,1.514,0,0,1,78.358,23.925Z"/><line class="cls-2" x1="4.036" y1="27.164" x2="6.133" y2="30.295"/><line class="cls-2" x1="9.232" y1="25.721" x2="8.5" y2="29.418"/><line class="cls-2" x1="0.702" y1="31.301" x2="4.399" y2="32.032"/><path class="cls-1" d="M9.776,33.49a1.5,1.5,0,1,1-2.994,0,1.5,1.5,0,0,1,2.994,0Z"/><path class="cls-1" d="M7.486,42.738c13.74,7.273,13.806,7.148,27.546,14.421"/><path class="cls-1" d="M5.545,46.4c13.74,7.273,13.564,7.6,27.3,14.879"/><path class="cls-1" d="M3.311,50.623c13.74,7.274,13.754,7.247,27.494,14.52"/><path class="cls-1" d="M1.425,54.186c13.74,7.273,13.751,7.252,27.491,14.526"/><path class="cls-3" d="M28.845,1.535c9.753,0,18.845,3.772,19.613,6.233.045.142.18.575-.9,1.322a2.1,2.1,0,0,1-1.127.231,21.9,21.9,0,0,1-4.3-.74,44.689,44.689,0,0,0-4.554-.892,12.872,12.872,0,0,0-1.617-.106c-8.9,0-9.02,9.623-9.113,17.356-.051,4.226-.108,9.016-1.751,10a1.848,1.848,0,0,1-.954.293c-2.3,0-5-4.866-6.607-9.033-1.985-5.149-3.374-11.434-3.377-15.285,0-5.494,3.5-8.332,11.364-9.2a30.347,30.347,0,0,1,3.323-.174m0-1.535a31.836,31.836,0,0,0-3.491.184C20.218.751,12.617,2.438,12.623,10.911c.006,7.76,5.435,25.852,11.519,25.852a3.36,3.36,0,0,0,1.74-.51c5.862-3.5-2.363-27.136,10.078-27.136a11.491,11.491,0,0,1,1.426.094c3.339.421,6.7,1.644,9.043,1.644a3.467,3.467,0,0,0,2-.5C54.805,5.945,40.828,0,28.845,0Z"/><path class="cls-3" d="M34.533,25.317h0c3.421,0,7.986,2.044,8.8,3.277,1.112,1.683.613,5.935-1.187,10.109-1.953,4.532-4.89,7.86-7.307,8.282a19.859,19.859,0,0,1-3.387.318c-3.821,0-5.905-1.356-6.195-4.03-.188-1.739,1.029-2.541,4.015-3.787,1.882-.786,4.015-1.677,3.888-3.789a14.463,14.463,0,0,0-.428-2.226c-.531-2.227-1.421-5.954-.009-7.728.156-.2.724-.426,1.809-.426m0-1.535a3.77,3.77,0,0,0-3.01,1.006c-2.474,3.109,0,9.177.106,11,.152,2.526-8.472,2.334-7.9,7.651.416,3.843,3.554,5.4,7.72,5.4A21.391,21.391,0,0,0,35.1,48.5c6.531-1.14,12.649-16,9.51-20.75-1.233-1.866-6.5-3.965-10.081-3.965Z"/><path class="cls-3" d="M54.089,3.522c1.534,0,2.4,1.942,2.435,2.025,2.57,5.883.58,11.763-5.321,15.729a13.3,13.3,0,0,1-7.21,1.71c-5.817,0-11.013-2.161-11.774-4.094a5.231,5.231,0,0,1,.323-4.673A2.575,2.575,0,0,1,34.236,12.9c.267-.021.536-.032.8-.032a13.4,13.4,0,0,1,6.928,2.343,9.364,9.364,0,0,0,4.461,1.692,4.076,4.076,0,0,0,1.759-.395c2.236-1.054,3.006-4.259,3.821-7.652.349-1.453,1.277-5.315,2.033-5.336h.053m0-1.534h-.095c-3.668.1-3.149,11.569-6.467,13.135a2.548,2.548,0,0,1-1.1.248c-2.724,0-5.809-4.035-11.389-4.035-.3,0-.6.011-.917.036-2.451.19-4.928,4.009-3.326,8.081,1.149,2.921,7.371,5.067,13.2,5.067a14.79,14.79,0,0,0,8.065-1.972c6.537-4.392,8.726-11.083,5.873-17.616-.419-.958-1.7-2.945-3.842-2.945Z"/></g></g></svg>