<svg xmlns="http://www.w3.org/2000/svg" viewBox="0 0 98.544 57.57"><defs><style>.cls-1{fill:#bbb;}.cls-2,.cls-3{fill:none;stroke:#bbb;stroke-linecap:round;stroke-linejoin:round;}.cls-2{stroke-width:1.421px;}.cls-3{stroke-width:1.553px;}</style></defs><g id="Layer_2" data-name="Layer 2"><g id="Layer_3" data-name="Layer 3"><path class="cls-1" d="M40.5,1.553c9.886,0,19.058,3.683,19.807,6.086.112.358-.194.79-.911,1.286a2.277,2.277,0,0,1-1.272.252,24.814,24.814,0,0,1-4.59-.732c-1.435-.311-2.919-.633-4.426-.823a13.313,13.313,0,0,0-1.642-.108c-4.044,0-6.749,2.1-8.04,6.228-1.019,3.263-1.042,7.33-1.065,11.262-.024,4.267-.052,9.1-1.713,10.095a1.85,1.85,0,0,1-.961.292c-1.973,0-4.719-3.64-7-9.274-2.144-5.307-3.644-11.707-3.647-15.562,0-6.917,6.169-8.179,11.956-8.818a31.916,31.916,0,0,1,3.5-.184M40.5,0a33.533,33.533,0,0,0-3.67.193c-5.2.574-13.345,1.787-13.338,10.364.006,7.862,5.955,26.388,12.2,26.388a3.39,3.39,0,0,0,1.757-.512c5.933-3.539-2.553-27.365,10.022-27.365a11.673,11.673,0,0,1,1.448.1c3.334.42,6.787,1.568,9.21,1.568a3.751,3.751,0,0,0,2.156-.529C66.711,5.757,52.615,0,40.5,0Z"/><path class="cls-1" d="M46.25,25.25h0c3.361,0,7.857,2.025,8.664,3.247,1.131,1.71.632,6.011-1.185,10.226-1.961,4.549-4.917,7.891-7.356,8.317a20.2,20.2,0,0,1-3.448.325c-5.742,0-6.073-3.053-6.182-4.056-.206-1.9,1.492-2.751,4.1-3.833,1.92-.8,4.095-1.7,3.966-3.838a14.245,14.245,0,0,0-.431-2.238c-.529-2.21-1.414-5.909.013-7.7.164-.206.749-.447,1.854-.447m0-1.554a3.846,3.846,0,0,0-3.07,1.034c-2.5,3.148-.027,9.155.084,11,.153,2.556-8.648,2.363-8.065,7.745.42,3.882,3.542,5.442,7.726,5.442a21.718,21.718,0,0,0,3.715-.348c6.611-1.154,12.747-16.122,9.57-20.93-1.24-1.878-6.4-3.944-9.96-3.944Z"/><path class="cls-1" d="M65.866,3.055a3.4,3.4,0,0,1,2.64,1.994c2.609,5.971.507,12.374-5.353,16.313a13,13,0,0,1-7.037,1.656c-6.055,0-11.671-2.341-12.463-4.353a5.478,5.478,0,0,1,.388-4.893,2.6,2.6,0,0,1,1.713-1.37c.266-.021.533-.031.8-.031,2.912,0,5.09,1.286,7.011,2.421,1.525.9,2.965,1.752,4.523,1.752a4.1,4.1,0,0,0,1.765-.4c2.259-1.066,3.047-4.293,3.881-7.709.358-1.467,1.309-5.361,2.081-5.382h.056m0-1.554-.1,0c-3.713.1-3.224,11.654-6.582,13.239a2.528,2.528,0,0,1-1.1.248c-2.759,0-5.869-4.173-11.534-4.173q-.447,0-.915.036c-2.481.193-5.048,4.258-3.427,8.38,1.185,3.013,7.828,5.338,13.909,5.338a14.479,14.479,0,0,0,7.9-1.92c6.617-4.447,8.8-11.61,5.911-18.224C69.507,3.458,68.039,1.5,65.866,1.5Z"/><line class="cls-2" x1="14.327" y1="10.47" x2="16.449" y2="13.639"/><line class="cls-2" x1="19.586" y1="9.009" x2="18.846" y2="12.752"/><line class="cls-2" x1="10.951" y1="14.658" x2="14.694" y2="15.398"/><path class="cls-3" d="M20.059,16.874a1.422,1.422,0,0,1-1.443,1.45,1.447,1.447,0,1,1,0-2.891A1.414,1.414,0,0,1,20.059,16.874Z"/><path class="cls-3" d="M66.617,51.979a1.449,1.449,0,0,1,.319,2.044,1.494,1.494,0,0,1-2.069.392,1.561,1.561,0,0,1-.353-2.132A1.517,1.517,0,0,1,66.617,51.979Z"/><path class="cls-2" d="M66.961,54.041s10.178,4.979,11.52,1.7c1.781-4.35-20.966-19.533-17.968-23.722,3.758-5.252,33.225,14.894,37.07,9.551,2.886-4.011-20.163-17.906-16.4-23.151,1.587-2.213,4.594-1.517,7.9-.239"/><path class="cls-3" d="M91.627,17.178a1.525,1.525,0,1,1-2.044.4A1.473,1.473,0,0,1,91.627,17.178Z"/><path class="cls-1" d="M10.467,21.616V23.17c5.034,0,11.186,2.983,12.8,9.532a46.843,46.843,0,0,1,.516,19.74A43.087,43.087,0,0,1,6.1,43.777,12.935,12.935,0,0,1,1.582,32.9c.236-3.714,1.874-7.068,4.173-8.546a8.857,8.857,0,0,1,4.711-1.182V21.616m0,0a10.336,10.336,0,0,0-5.55,1.429c-5.432,3.49-7.662,15.342.187,21.922a43.912,43.912,0,0,0,19.859,9.285,46.7,46.7,0,0,0-.187-21.922c-1.785-7.246-8.626-10.714-14.309-10.714Z"/><path class="cls-1" d="M13.672,30.364h0c3.794,0,8.431,2.243,9.644,7.168a36.312,36.312,0,0,1,.467,14.888,33.344,33.344,0,0,1-13.293-6.6,9.681,9.681,0,0,1-3.4-8.195c.174-2.747,1.418-5.317,3.1-6.394a6.563,6.563,0,0,1,3.487-.867m0-1.554a8.057,8.057,0,0,0-4.325,1.114c-4.234,2.72-5.972,11.957.146,17.086A34.223,34.223,0,0,0,24.97,54.247a36.408,36.408,0,0,0-.145-17.086C23.433,31.513,18.1,28.81,13.671,28.81Z"/><path class="cls-1" d="M16.719,37.2h0a6.726,6.726,0,0,1,6.644,4.922,26.2,26.2,0,0,1,.413,10.27,23.905,23.905,0,0,1-9.115-4.632,6.666,6.666,0,0,1-2.337-5.644A5.726,5.726,0,0,1,14.4,37.769a4.382,4.382,0,0,1,2.323-.568m0-1.554a5.89,5.89,0,0,0-3.162.815c-3.095,1.988-4.365,8.74.107,12.49a25.023,25.023,0,0,0,11.315,5.29,26.6,26.6,0,0,0-.107-12.49,8.312,8.312,0,0,0-8.153-6.105Z"/><path class="cls-1" d="M19.384,43.181h0a4.136,4.136,0,0,1,4.02,2.958,17.3,17.3,0,0,1,.352,6.209,15.58,15.58,0,0,1-5.447-2.889A4.033,4.033,0,0,1,16.9,46.047a3.384,3.384,0,0,1,1.176-2.56,2.509,2.509,0,0,1,1.306-.306m0-1.554a3.993,3.993,0,0,0-2.144.552c-2.1,1.349-2.961,5.928.072,8.471a16.979,16.979,0,0,0,7.674,3.588,18.048,18.048,0,0,0-.073-8.471,5.636,5.636,0,0,0-5.529-4.14Z"/></g></g></svg>