<svg xmlns="http://www.w3.org/2000/svg" viewBox="0 0 87.194 67.692"><defs><style>.cls-1,.cls-2{fill:none;stroke:#bbb;stroke-linecap:round;stroke-linejoin:round;}.cls-1{stroke-width:1.535px;}.cls-2{stroke-width:1.403px;}.cls-3{fill:#bbb;}</style></defs><g id="Layer_2" data-name="Layer 2"><g id="Layer_3" data-name="Layer 3"><path class="cls-1" d="M55.966,57.423a1.467,1.467,0,0,1,.314,2.049,1.431,1.431,0,0,1-2,.421,1.479,1.479,0,0,1-.384-2.047A1.514,1.514,0,0,1,55.966,57.423Z"/><path class="cls-2" d="M56.322,59.5s10.171,4.672,11.418,1.4c1.654-4.339-21.175-18.787-18.316-23C53.009,32.632,82.6,51.82,86.264,46.45c2.754-4.03-20.343-17.2-16.754-22.469,1.514-2.223,4.5-1.609,7.793-.425"/><path class="cls-1" d="M79.784,22.518a1.517,1.517,0,0,1,.414,2.073,1.534,1.534,0,0,1-2.093.388,1.457,1.457,0,0,1-.327-2.039A1.439,1.439,0,0,1,79.784,22.518Z"/><line class="cls-2" x1="4.036" y1="25.377" x2="6.133" y2="28.508"/><line class="cls-2" x1="9.232" y1="23.934" x2="8.5" y2="27.631"/><line class="cls-2" x1="0.702" y1="29.514" x2="4.399" y2="30.245"/><path class="cls-1" d="M9.775,31.7a1.483,1.483,0,0,1-1.5,1.447A1.5,1.5,0,0,1,6.754,31.7a1.511,1.511,0,1,1,3.021,0Z"/><path class="cls-3" d="M29.192,1.56c1.114.1,4.921.531,17.633,2.239.378,2.088.866,4.8,1.1,6.545l-.3-.1C36.446,6.641,35.674,6.474,35.194,6.474a1.611,1.611,0,0,0-.886.269,34.155,34.155,0,0,0-3.231,2.444A31.161,31.161,0,0,1,28.1,11.442c-.91.619-.869.92-.191,5.961.369,2.74.9,6.456,1.523,10.76.384,2.666.793,5.514,1.2,8.406-1.776.616-5.668,1.692-7.55,2.091-4.285-13.4-7.248-24-7.6-25.9.587-.964,3.538-3.722,13.708-11.2M28.805,0a.235.235,0,0,0-.1.01c-7.9,5.8-14.794,11.135-14.788,12.605,0,1.116,3.655,13.944,8.076,27.693.008.028.062.041.156.041,1.3,0,10.21-2.5,10.156-2.871-1.759-12.464-3.6-24.6-3.351-24.766,3.218-2.185,2.994-2.515,6.212-4.7a.057.057,0,0,1,.024,0c.59,0,10.765,3.321,14.2,4.422a.132.132,0,0,0,.033.005c.528,0-.338-4.745-1.169-9.324-.079-.313-.3-.707-.62-.751C38.712,1.159,29.827,0,28.805,0Z"/><path class="cls-3" d="M35.023,25.642h0m-.072,1.117c2.486.8,3.891,1.235,5.3,1.673,1.427.447,2.855.893,5.428,1.717-2,4.5-3.06,6.935-4.089,9.292-1.02,2.337-2.072,4.748-4.042,9.187-1.923-.519-3.568-1.108-5.3-1.729-1.352-.484-2.739-.981-4.271-1.441a95.246,95.246,0,0,1,7.2-6.373,1.912,1.912,0,0,0,.638-1.832l-.024-.2a86.774,86.774,0,0,1-.83-10.3M34.2,24.93a.718.718,0,0,0-.689.48c-.387,2.539.587,10.454.775,12.025.021.174.048.354-.087.465-1.167.956-6.756,5.537-8.437,7.747a.566.566,0,0,0,.285.86c4.319,1.139,7.319,2.643,11.7,3.758a2.258,2.258,0,0,0,.511.1.254.254,0,0,0,.259-.127c4.519-10.168,4.451-10.2,8.97-20.367a.788.788,0,0,0-.413-.886c-6.354-2.04-6.37-1.99-12.723-4.031a.467.467,0,0,0-.147-.022Z"/><path class="cls-3" d="M56.189,3.881h0m-.276.65c.5.164.847.245,1.163.318.182.043.353.083.552.139-2.123,5.158-3.254,7.857-4.349,10.471-1.073,2.561-2.18,5.2-4.221,10.161-3.833-1.229-5.943-1.808-7.988-2.37-2.019-.554-4.1-1.126-7.891-2.342.607-1.69.885-2.659,1.155-3.6s.526-1.839,1.113-3.466c3.065,1.055,4.648,1.58,6.181,2.088s3.141,1.041,6.269,2.119a2.3,2.3,0,0,0,.753.122,2.482,2.482,0,0,0,2.29-1.4c1.376-3.223,2.02-4.885,2.643-6.492.571-1.472,1.16-2.991,2.33-5.749M35.638,13.319h0M55.523,2.809a.821.821,0,0,0-.745.47c-2.732,6.4-2.518,6.491-5.249,12.89a.991.991,0,0,1-.879.468A.785.785,0,0,1,48.4,16.6c-6.273-2.162-6.3-2.087-12.573-4.25a2,2,0,0,0-.639-.108.968.968,0,0,0-.987.549c-1.49,4.041-1.19,4.151-2.679,8.192-.146.4-.065.982.336,1.112,8.744,2.837,8.873,2.437,17.617,5.274a.991.991,0,0,0,.288.06c.164,0,.254-.1.355-.342,4.541-11.042,4.613-11.012,9.154-22.053.159-.387.191-1.029-.2-1.177-1.605-.608-1.686-.393-3.291-1a.715.715,0,0,0-.255-.046Z"/><path class="cls-1" d="M7.546,40.838c13.739,7.273,13.819,7.123,27.558,14.4"/><path class="cls-1" d="M5.385,44.919c13.74,7.273,13.817,7.127,27.557,14.4"/><path class="cls-1" d="M3.459,48.558C17.2,55.831,17.052,56.107,30.792,63.381"/><path class="cls-1" d="M1.323,52.593c13.739,7.273,13.853,7.059,27.593,14.332"/></g></g></svg>