<svg xmlns="http://www.w3.org/2000/svg" viewBox="0 0 13.686 13.982"><defs><style>.cls-1,.cls-3{fill:none;stroke:#bbb;stroke-linecap:round;stroke-linejoin:round;}.cls-1{stroke-width:1.829px;}.cls-2{fill:#fff;}.cls-3{stroke-width:2px;}</style></defs><g id="Layer_2" data-name="Layer 2"><g id="Layer_3" data-name="Layer 3"><line class="cls-1" x1="5.26" y1="2.795" x2="7.993" y2="6.876"/><line class="cls-1" x1="12.031" y1="0.914" x2="11.078" y2="5.733"/><line class="cls-1" x1="0.914" y1="8.186" x2="5.733" y2="9.139"/><path class="cls-2" d="M12.686,11.04a1.933,1.933,0,0,1-1.9,1.942A1.877,1.877,0,0,1,8.946,11.04a1.831,1.831,0,0,1,1.836-1.888A1.887,1.887,0,0,1,12.686,11.04Z"/><path class="cls-3" d="M12.686,11.04a1.933,1.933,0,0,1-1.9,1.942A1.877,1.877,0,0,1,8.946,11.04a1.831,1.831,0,0,1,1.836-1.888A1.887,1.887,0,0,1,12.686,11.04Z"/></g></g></svg>