<svg xmlns="http://www.w3.org/2000/svg" viewBox="0 0 61.062 47.762"><defs><style>.cls-1{fill:#fff;}.cls-2,.cls-3{fill:none;stroke:#bbb;stroke-linecap:round;stroke-linejoin:round;}.cls-2{stroke-width:2px;}.cls-3{stroke-width:1.829px;}</style></defs><g id="Layer_2" data-name="Layer 2"><g id="Layer_3" data-name="Layer 3"><path class="cls-1" d="M4.811,22.292A1.848,1.848,0,0,1,2.97,24.2a1.9,1.9,0,1,1,0-3.8A1.844,1.844,0,0,1,4.811,22.292Z"/><path class="cls-2" d="M4.811,22.292A1.848,1.848,0,0,1,2.97,24.2a1.9,1.9,0,1,1,0-3.8A1.844,1.844,0,0,1,4.811,22.292Z"/><path class="cls-3" d="M2.97,24.2S5.413,38.582,9.846,37.524c5.886-1.406,4.669-36.6,11.3-36.61C29.462.9,30.539,46.842,39.014,46.848c6.362,0,3.572-34.534,11.882-34.542,3.505,0,5.037,3.663,6.182,8.077"/><path class="cls-1" d="M60.062,22.292a1.934,1.934,0,0,1-1.972,1.873,1.878,1.878,0,1,1,0-3.755A1.941,1.941,0,0,1,60.062,22.292Z"/><path class="cls-2" d="M60.062,22.292a1.934,1.934,0,0,1-1.972,1.873,1.878,1.878,0,1,1,0-3.755A1.941,1.941,0,0,1,60.062,22.292Z"/></g></g></svg>