<svg xmlns="http://www.w3.org/2000/svg" viewBox="0 0 49.175 52.106"><defs><style>.cls-1,.cls-2{fill:none;stroke:#bbb;stroke-linecap:round;stroke-linejoin:round;}.cls-1{stroke-width:2px;}.cls-2{stroke-width:1.829px;}</style></defs><g id="Layer_2" data-name="Layer 2"><g id="Layer_3" data-name="Layer 3"><path class="cls-1" d="M42.2,8.315a1.9,1.9,0,0,1-.139-2.685A1.864,1.864,0,1,1,42.2,8.315Z"/><path class="cls-2" d="M42.021,5.6S29.53-1.94,27.439,2.11C24.662,7.487,52.117,29.533,47.8,34.567,42.385,40.877,6.873,11.705,1.337,18.123-2.818,22.941,25.169,43.369,19.752,49.67,17.466,52.328,13.688,51.1,9.6,49.082"/><path class="cls-1" d="M6.26,50.032a1.905,1.905,0,0,1-.228-2.687,1.968,1.968,0,0,1,2.738-.227,2.006,2.006,0,0,1,.214,2.771A1.943,1.943,0,0,1,6.26,50.032Z"/></g></g></svg>