<svg xmlns="http://www.w3.org/2000/svg" viewBox="0 0 67.316 69.479"><defs><style>.cls-1,.cls-2{fill:none;stroke:#bbb;stroke-linecap:round;stroke-linejoin:round;}.cls-1{stroke-width:1.403px;}.cls-2{stroke-width:1.535px;}.cls-3{fill:#bbb;}</style></defs><g id="Layer_2" data-name="Layer 2"><g id="Layer_3" data-name="Layer 3"><line class="cls-1" x1="4.036" y1="27.164" x2="6.133" y2="30.295"/><line class="cls-1" x1="9.232" y1="25.721" x2="8.5" y2="29.418"/><line class="cls-1" x1="0.702" y1="31.301" x2="4.399" y2="32.032"/><path class="cls-2" d="M9.791,33.49A1.549,1.549,0,0,1,8.273,35,1.518,1.518,0,0,1,6.791,33.49a1.459,1.459,0,0,1,1.482-1.441A1.491,1.491,0,0,1,9.791,33.49Z"/><path class="cls-2" d="M48.469,51.609a1.459,1.459,0,0,1,.669,1.956,1.419,1.419,0,0,1-1.907.7,1.474,1.474,0,0,1-.748-1.941A1.515,1.515,0,0,1,48.469,51.609Z"/><path class="cls-2" d="M65.68,14.649a1.5,1.5,0,1,1-1.264,2.714,1.5,1.5,0,0,1,1.264-2.714Z"/><line class="cls-2" x1="48.458" y1="51.632" x2="64.427" y2="17.339"/><path class="cls-2" d="M7.486,42.737c13.74,7.274,13.806,7.149,27.546,14.422"/><path class="cls-2" d="M5.545,46.4c13.74,7.274,13.564,7.606,27.3,14.88"/><path class="cls-2" d="M3.311,50.623c13.74,7.274,13.754,7.247,27.494,14.52"/><path class="cls-2" d="M1.425,54.186c13.74,7.273,13.751,7.252,27.491,14.526"/><path class="cls-3" d="M28.846,1.535c9.753,0,18.844,3.771,19.612,6.233.045.142.18.574-.9,1.322a2.1,2.1,0,0,1-1.127.231,21.879,21.879,0,0,1-4.3-.74,44.763,44.763,0,0,0-4.555-.892,12.872,12.872,0,0,0-1.617-.106c-8.9,0-9.02,9.623-9.113,17.355-.051,4.227-.108,9.017-1.751,10a1.848,1.848,0,0,1-.954.293c-2.3,0-5-4.866-6.607-9.033-1.986-5.149-3.374-11.434-3.377-15.285,0-5.495,3.5-8.332,11.364-9.2a30.352,30.352,0,0,1,3.324-.174m0-1.535a31.841,31.841,0,0,0-3.492.184C20.218.751,12.617,2.438,12.623,10.911c.006,7.76,5.435,25.852,11.519,25.852a3.36,3.36,0,0,0,1.74-.51c5.862-3.5-2.363-27.136,10.078-27.136a11.491,11.491,0,0,1,1.426.094c3.339.421,6.7,1.644,9.043,1.644a3.459,3.459,0,0,0,2-.5C54.805,5.945,40.829,0,28.846,0Z"/><path class="cls-3" d="M34.533,25.316h0c3.421,0,7.986,2.045,8.8,3.277,1.112,1.684.613,5.935-1.187,10.11-1.953,4.532-4.89,7.86-7.307,8.282a19.852,19.852,0,0,1-3.387.317c-3.821,0-5.905-1.355-6.195-4.029-.188-1.739,1.029-2.541,4.015-3.788,1.882-.786,4.015-1.676,3.888-3.789a14.454,14.454,0,0,0-.428-2.225c-.531-2.227-1.421-5.954-.009-7.728.156-.2.724-.427,1.809-.427m0-1.534a3.77,3.77,0,0,0-3.01,1.006c-2.474,3.109,0,9.177.106,11,.152,2.525-8.472,2.334-7.9,7.65.416,3.844,3.554,5.4,7.72,5.4A21.391,21.391,0,0,0,35.1,48.5c6.531-1.14,12.649-16,9.51-20.75-1.233-1.866-6.5-3.965-10.081-3.965Z"/><path class="cls-3" d="M54.089,3.522c1.534,0,2.4,1.942,2.435,2.025,2.57,5.882.58,11.762-5.321,15.728a13.292,13.292,0,0,1-7.21,1.711c-5.817,0-11.013-2.161-11.773-4.094a5.228,5.228,0,0,1,.322-4.673A2.577,2.577,0,0,1,34.236,12.9c.267-.02.536-.031.8-.031a13.4,13.4,0,0,1,6.928,2.343,9.364,9.364,0,0,0,4.461,1.692,4.091,4.091,0,0,0,1.759-.395c2.236-1.055,3.006-4.259,3.821-7.652.349-1.453,1.277-5.315,2.033-5.336h.053m0-1.534h-.095c-3.668.1-3.149,11.569-6.467,13.135a2.548,2.548,0,0,1-1.1.248c-2.724,0-5.809-4.036-11.389-4.036q-.447,0-.917.036c-2.451.191-4.928,4.009-3.326,8.082,1.149,2.921,7.371,5.067,13.2,5.067a14.8,14.8,0,0,0,8.066-1.972c6.536-4.392,8.725-11.083,5.872-17.617-.419-.958-1.7-2.944-3.842-2.944Z"/></g></g></svg>