<svg xmlns="http://www.w3.org/2000/svg" viewBox="0 0 77.952 53.383"><defs><style>.cls-1,.cls-2{fill:none;stroke:#bbb;stroke-linecap:round;stroke-linejoin:round;}.cls-1{stroke-width:1.374px;}.cls-2{stroke-width:1.503px;}.cls-3{fill:#bbb;}</style></defs><g id="Layer_2" data-name="Layer 2"><g id="Layer_3" data-name="Layer 3"><line class="cls-1" x1="12.063" y1="10.873" x2="14.117" y2="13.94"/><line class="cls-1" x1="17.151" y1="9.46" x2="16.435" y2="13.081"/><line class="cls-1" x1="8.797" y1="14.925" x2="12.418" y2="15.641"/><path class="cls-2" d="M17.681,17.07a1.423,1.423,0,0,1-1.468,1.385,1.361,1.361,0,0,1-1.4-1.385,1.4,1.4,0,0,1,1.4-1.431A1.46,1.46,0,0,1,17.681,17.07Z"/><path class="cls-3" d="M38.812,1.5A41.893,41.893,0,0,1,51.756,3.628c4.009,1.361,6.11,2.951,6.414,3.923.041.133.166.535-.873,1.253a1.408,1.408,0,0,1-.738.146,17.723,17.723,0,0,1-4.128-.906,33.936,33.936,0,0,0-5.145-1.207,12.724,12.724,0,0,0-1.572-.1c-8.733,0-8.854,9.506-8.951,17.145-.053,4.174-.114,8.9-1.723,9.865a1.816,1.816,0,0,1-.94.287c-4.411,0-10.043-16.151-10.049-23.827,0-6.7,5.91-7.915,11.455-8.528A30.233,30.233,0,0,1,38.812,1.5m0-1.5a31.682,31.682,0,0,0-3.471.182c-5.031.556-12.8,1.725-12.793,10.024.006,7.6,5.553,25.328,11.552,25.328a3.3,3.3,0,0,0,1.71-.5c5.743-3.426-2.3-26.8,9.9-26.8a11.189,11.189,0,0,1,1.385.091c3.462.436,7.092,2.125,9.46,2.125a2.748,2.748,0,0,0,1.593-.412C64.389,5.729,50.57,0,38.812,0Z"/><path class="cls-3" d="M44.312,24.379h0c3.271,0,7.672,2.009,8.472,3.22,1.084,1.64.645,5.562-1.069,9.536-1.893,4.394-4.786,7.628-7.2,8.049a22.393,22.393,0,0,1-3.811.364c-5.478,0-5.772-2.715-5.869-3.607-.2-1.839,1.453-2.669,3.995-3.724,1.862-.773,3.973-1.65,3.848-3.721a15.492,15.492,0,0,0-.327-1.963c-.452-2.217-1.21-5.928.231-7.739.152-.191.7-.415,1.728-.415m0-1.5a3.63,3.63,0,0,0-2.9.983c-2.422,3.045-.334,8.942-.227,10.727.148,2.474-8.4,2.31-7.837,7.517.393,3.625,3.426,4.948,7.363,4.948a23.973,23.973,0,0,0,4.069-.386c6.4-1.117,12.337-15.243,9.263-19.895-1.209-1.829-6.276-3.895-9.727-3.894Z"/><path class="cls-3" d="M63.431,2.866a3.556,3.556,0,0,1,2.717,1.941c2.474,5.664.359,11.637-5.519,15.587a13.153,13.153,0,0,1-7.129,1.68c-5.756,0-10.887-2.11-11.629-4a4.86,4.86,0,0,1,.326-4.416A2.723,2.723,0,0,1,44,12.275c.257-.02.516-.03.769-.03,2.824,0,4.963,1.247,6.85,2.347a9.25,9.25,0,0,0,4.422,1.7,3.985,3.985,0,0,0,1.711-.383c2.2-1.04,2.931-4.264,3.7-7.677.33-1.461,1.206-5.341,1.927-5.361h.054m0-1.5-.095,0c-3.593.1-2.98,11.647-6.23,13.18a2.453,2.453,0,0,1-1.069.24c-2.689,0-5.781-4.043-11.272-4.043-.288,0-.584.011-.885.035-2.4.186-4.977,3.862-3.408,7.851,1.124,2.857,7.274,4.949,13.028,4.949a14.646,14.646,0,0,0,7.968-1.936c6.4-4.3,8.852-11.037,6.057-17.436a5.018,5.018,0,0,0-4.094-2.842Z"/><path class="cls-3" d="M10.127,20.75v1.5c4.871,0,10.824,2.886,12.385,9.223a45.356,45.356,0,0,1,.5,19.1A41.69,41.69,0,0,1,5.9,42.192,12.512,12.512,0,0,1,1.531,31.667c.228-3.594,1.813-6.84,4.038-8.27a8.569,8.569,0,0,1,4.557-1.144v-1.5m0,0a10,10,0,0,0-5.37,1.383C-.5,25.509-2.657,36.977,4.938,43.344a42.488,42.488,0,0,0,19.215,8.983,45.206,45.206,0,0,0-.181-21.211c-1.728-7.01-8.347-10.366-13.846-10.366Z"/><path class="cls-3" d="M13.229,29.214h0c3.671,0,8.157,2.17,9.331,6.936a35.124,35.124,0,0,1,.451,14.408,32.126,32.126,0,0,1-12.862-6.39A9.366,9.366,0,0,1,6.86,36.24c.168-2.658,1.372-5.145,3-6.187a6.349,6.349,0,0,1,3.374-.839m0-1.5a7.8,7.8,0,0,0-4.185,1.077c-4.1,2.632-5.778,11.57.141,16.532a33.112,33.112,0,0,0,14.976,7,35.208,35.208,0,0,0-.141-16.532c-1.346-5.464-6.5-8.08-10.791-8.079Z"/><path class="cls-3" d="M16.177,35.829h0a6.508,6.508,0,0,1,6.428,4.763,25.323,25.323,0,0,1,.4,9.936,23.131,23.131,0,0,1-8.819-4.481,6.453,6.453,0,0,1-2.261-5.461,5.546,5.546,0,0,1,2.005-4.207,4.234,4.234,0,0,1,2.248-.55m0-1.5a5.7,5.7,0,0,0-3.059.788c-3,1.924-4.224,8.457.1,12.085a24.207,24.207,0,0,0,10.948,5.118,25.748,25.748,0,0,0-.1-12.085,8.044,8.044,0,0,0-7.889-5.906Z"/><path class="cls-3" d="M18.755,41.615h0a4,4,0,0,1,3.89,2.862,16.743,16.743,0,0,1,.341,6.008,15.08,15.08,0,0,1-5.271-2.8,3.9,3.9,0,0,1-1.361-3.3,3.276,3.276,0,0,1,1.138-2.477,2.434,2.434,0,0,1,1.263-.3m0-1.5a3.864,3.864,0,0,0-2.075.534c-2.031,1.3-2.865,5.736.07,8.2a16.412,16.412,0,0,0,7.424,3.471,17.447,17.447,0,0,0-.07-8.2,5.454,5.454,0,0,0-5.349-4Z"/><path class="cls-2" d="M59.555,49.9a1.431,1.431,0,1,1-1.9.69A1.434,1.434,0,0,1,59.555,49.9Z"/><path class="cls-2" d="M76.42,13.684a1.411,1.411,0,0,1,.634,1.906,1.375,1.375,0,0,1-1.849.7,1.457,1.457,0,0,1-.74-1.91A1.493,1.493,0,0,1,76.42,13.684Z"/><line class="cls-2" x1="59.557" y1="49.896" x2="75.198" y2="16.308"/></g></g></svg>