<svg xmlns="http://www.w3.org/2000/svg" viewBox="0 0 67.303 67.553"><defs><style>.cls-1,.cls-2{fill:none;stroke:#bbb;stroke-linecap:round;stroke-linejoin:round;}.cls-1{stroke-width:1.403px;}.cls-2{stroke-width:1.535px;}.cls-3{fill:#bbb;}</style></defs><g id="Layer_2" data-name="Layer 2"><g id="Layer_3" data-name="Layer 3"><line class="cls-1" x1="4.036" y1="25.253" x2="6.133" y2="28.384"/><line class="cls-1" x1="9.232" y1="23.81" x2="8.5" y2="27.507"/><line class="cls-1" x1="0.702" y1="29.39" x2="4.399" y2="30.121"/><path class="cls-2" d="M9.791,31.579A1.478,1.478,0,0,1,8.273,33,1.443,1.443,0,0,1,6.8,31.579a1.52,1.52,0,0,1,1.478-1.515A1.555,1.555,0,0,1,9.791,31.579Z"/><path class="cls-3" d="M29.276,1.563c1.585.152,6.951.881,12.159,1.588,1.8.245,3.682.5,5.571.755.524,2.969.818,5.2.94,6.584L46.7,10.084C36.954,6.919,35.9,6.637,35.389,6.637a1.616,1.616,0,0,0-.886.269c-1.622,1.1-2.435,1.679-3.221,2.238s-1.573,1.117-3.168,2.2c-.908.616-.842,1.1-.218,5.722.351,2.6.864,6.15,1.458,10.26.414,2.865.862,5.962,1.309,9.113-1.732.6-5.477,1.625-7.31,2.011C21.844,33.776,20.36,29.29,19.04,25.3c-1.9-5.749-3.7-11.2-4.04-12.641,1.014-1.424,6.775-5.622,11.442-9.023.928-.677,1.877-1.368,2.834-2.069M28.886,0A.191.191,0,0,0,28.8.01C20.9,5.8,13.413,11.022,13.419,12.493c0,1.116,4.431,13.854,8.852,27.6.009.029.064.042.161.042,1.3,0,9.964-2.422,9.909-2.789-1.758-12.463-3.617-24.563-3.365-24.734,3.218-2.186,3.171-2.254,6.389-4.44a.057.057,0,0,1,.024,0c.583,0,10.494,3.275,13.929,4.375a.087.087,0,0,0,.031.005c.54,0-.121-5.006-.953-9.589-.079-.313-.465-.479-.785-.523C38.658,1.234,29.854,0,28.886,0Z"/><path class="cls-3" d="M35,25.515h0m-.056,1.275c2.5.786,3.939,1.181,5.341,1.565,1.351.371,2.743.752,5.116,1.5-2.012,4.532-3.077,6.972-4.11,9.336-1.024,2.345-2.08,4.765-4.063,9.232-1.787-.5-3.344-1.061-4.978-1.651-1.308-.473-2.649-.957-4.122-1.407a91.1,91.1,0,0,1,6.943-6.108l.2-.162a2.438,2.438,0,0,0,.822-2c-.035-.289-.105-.788-.2-1.425-.292-2.055-.908-6.392-.951-8.88m-.9-1.853c-.26,0-.53.111-.566.346-.387,2.539.9,10.422,1.084,11.994a.965.965,0,0,1-.27.628c-1.167.956-6.755,5.489-8.436,7.7-.22.289-.169.666.183.759,4.319,1.139,7.314,2.664,11.69,3.779a.939.939,0,0,0,.221.037c.113,0,.192-.05.258-.2,4.519-10.168,4.453-10.2,8.972-20.366.124-.279.193-.745-.1-.838-6.354-2.041-6.442-1.765-12.8-3.806a.809.809,0,0,0-.244-.035Z"/><path class="cls-3" d="M56.533,3.769h0m-.354.82c.123.068.235.135.356.208a9.465,9.465,0,0,0,.946.518c-2.009,4.907-3.025,7.576-4.01,10.162-.991,2.6-2.015,5.292-4.064,10.294-4.044-1.313-6.142-2-8.24-2.695-2.078-.684-4.156-1.369-8.12-2.656.538-1.439.875-2.282,1.2-3.1.387-.967.786-1.966,1.5-3.9,2.933,1.011,4.444,1.543,5.956,2.075,1.567.551,3.134,1.1,6.275,2.185a3.132,3.132,0,0,0,1,.175,2.026,2.026,0,0,0,1.942-1.213c1.361-3.189,2.077-4.8,2.769-6.358C54.337,8.834,55,7.339,56.179,4.589m-20.37,8.67h0M55.611,2.7c-.263,0-.41.278-.541.584-2.732,6.4-2.826,6.36-5.558,12.759a.526.526,0,0,1-.53.282,1.591,1.591,0,0,1-.5-.091c-6.274-2.163-6.26-2.2-12.534-4.365a.9.9,0,0,0-.3-.048,1.478,1.478,0,0,0-1.282.912c-1.49,4.041-1.6,4-3.089,8.042-.146.395.268.777.669.907,8.743,2.837,8.731,2.875,17.474,5.713a1.4,1.4,0,0,0,.417.064.677.677,0,0,0,.669-.33c4.541-11.042,4.25-11.162,8.791-22.2.159-.387-.033-.535-.424-.683-1.605-.607-1.493-.9-3.1-1.509a.478.478,0,0,0-.168-.034Z"/><path class="cls-2" d="M48.482,49.672a1.555,1.555,0,0,1,.73,2.016,1.512,1.512,0,0,1-2.741-1.276A1.553,1.553,0,0,1,48.482,49.672Z"/><path class="cls-2" d="M65.675,12.749a1.5,1.5,0,0,1-1.263,2.713,1.5,1.5,0,0,1,1.263-2.713Z"/><line class="cls-2" x1="48.458" y1="49.722" x2="64.427" y2="15.428"/><path class="cls-2" d="M7.517,40.767c13.74,7.274,13.675,7.4,27.415,14.67"/><path class="cls-2" d="M5.511,44.558c13.739,7.273,13.683,7.38,27.423,14.653"/><path class="cls-2" d="M3.36,48.62C17.1,55.894,17.19,55.724,30.929,63"/><path class="cls-2" d="M1.363,52.392c13.74,7.273,13.821,7.12,27.561,14.394"/></g></g></svg>