<svg xmlns="http://www.w3.org/2000/svg" viewBox="0 0 28.909 28.477"><defs><style>.cls-1{fill:#bbb;stroke-width:2.268px;}.cls-1,.cls-2{stroke:#bbb;stroke-miterlimit:10;}.cls-2{fill:none;stroke-width:2.892px;}</style></defs><g id="Layer_2" data-name="Layer 2"><g id="Layer_3" data-name="Layer 3"><circle class="cls-1" cx="14.153" cy="13.985" r="3.402"/><path class="cls-2" d="M27.463,13.985a13.671,13.671,0,0,1-1.769,6.665c-1.133,1.96-3.353,3-5.312,4.129-1.9,1.1-3.877,2.252-6.229,2.252a13.407,13.407,0,0,1-6.63-1.574,13.6,13.6,0,0,1-4.775-4.895,12.989,12.989,0,0,1-1.3-6.577A12.847,12.847,0,0,1,2.814,7.451,13.618,13.618,0,0,1,7.479,2.443c1.9-1.1,4.324-1,6.674-1a12.2,12.2,0,0,1,6.294,1.64,12.544,12.544,0,0,1,4.786,4.5C26.332,9.488,27.463,11.634,27.463,13.985Z"/></g></g></svg>