<svg xmlns="http://www.w3.org/2000/svg" viewBox="0 0 58.991 5.841"><defs><style>.cls-1{fill:#fff;}.cls-2{fill:none;stroke:#bbb;stroke-linecap:round;stroke-linejoin:round;stroke-width:2px;}</style></defs><g id="Layer_2" data-name="Layer 2"><g id="Layer_3" data-name="Layer 3"><path class="cls-1" d="M4.815,2.908A1.929,1.929,0,0,1,2.906,4.841,1.927,1.927,0,0,1,1,2.908,1.868,1.868,0,0,1,2.906,1.045,1.87,1.87,0,0,1,4.815,2.908Z"/><path class="cls-2" d="M4.815,2.908A1.929,1.929,0,0,1,2.906,4.841,1.927,1.927,0,0,1,1,2.908,1.868,1.868,0,0,1,2.906,1.045,1.87,1.87,0,0,1,4.815,2.908Z"/><path class="cls-1" d="M57.991,2.908a1.951,1.951,0,0,1-1.965,1.9,1.9,1.9,0,1,1,0-3.809A1.957,1.957,0,0,1,57.991,2.908Z"/><path class="cls-2" d="M57.991,2.908a1.951,1.951,0,0,1-1.965,1.9,1.9,1.9,0,1,1,0-3.809A1.957,1.957,0,0,1,57.991,2.908Z"/><line class="cls-2" x1="4.815" y1="2.908" x2="54.117" y2="2.908"/></g></g></svg>