<svg xmlns="http://www.w3.org/2000/svg" viewBox="0 0 28.249 54.041"><defs><style>.cls-1{fill:none;stroke:#bbb;stroke-linecap:round;stroke-linejoin:round;stroke-width:2px;}</style></defs><g id="Layer_2" data-name="Layer 2"><g id="Layer_3" data-name="Layer 3"><path class="cls-1" d="M3.76,49.373a1.865,1.865,0,0,1,.894,2.509,1.923,1.923,0,0,1-2.524.991,2.01,2.01,0,0,1-.957-2.612A1.952,1.952,0,0,1,3.76,49.373Z"/><path class="cls-1" d="M26.208,1.166a1.9,1.9,0,0,1,.847,2.551,1.9,1.9,0,0,1-2.5,1,1.9,1.9,0,0,1-.834-2.556A1.887,1.887,0,0,1,26.208,1.166Z"/><line class="cls-1" x1="3.765" y1="49.362" x2="24.577" y2="4.669"/></g></g></svg>