<svg xmlns="http://www.w3.org/2000/svg" viewBox="0 0 31.891 47.753"><defs><style>.cls-1{fill:#bbb;}</style></defs><g id="Layer_2" data-name="Layer 2"><g id="Layer_3" data-name="Layer 3"><path class="cls-1" d="M15.89,2c3.605,0,7.946,2.685,10.8,6.68a15.871,15.871,0,0,1,2.356,14.55A60.34,60.34,0,0,1,15.875,44.97,55.664,55.664,0,0,1,2.748,23.282,16.649,16.649,0,0,1,5.423,8.354C8.263,4.494,12.371,2,15.89,2m0-2C7.577,0-3.085,11.287.838,23.877A56.532,56.532,0,0,0,15.89,47.753,60.138,60.138,0,0,0,30.941,23.877C35.207,11.4,24.2,0,15.89,0Z"/><path class="cls-1" d="M15.9,12.534c2.674,0,5.914,2.018,8.061,5.022A11.937,11.937,0,0,1,25.741,28.5a46.734,46.734,0,0,1-9.854,16.451,42.923,42.923,0,0,1-9.807-16.4A12.466,12.466,0,0,1,8.1,17.306c2.1-2.854,5.236-4.772,7.8-4.772m0-2c-6.479,0-14.789,8.8-11.731,18.61A44.061,44.061,0,0,0,15.9,47.753,46.872,46.872,0,0,0,27.633,29.144c3.326-9.726-5.252-18.61-11.731-18.61Z"/><path class="cls-1" d="M15.914,22.545c1.761,0,4.005,1.417,5.455,3.446A8.2,8.2,0,0,1,22.6,33.5a33.717,33.717,0,0,1-6.7,11.411,30.76,30.76,0,0,1-6.65-11.359,8.584,8.584,0,0,1,1.4-7.739c1.439-1.956,3.557-3.27,5.271-3.27m0-2c-4.736,0-10.811,6.431-8.576,13.6a32.206,32.206,0,0,0,8.576,13.6,34.267,34.267,0,0,0,8.576-13.6c2.43-7.109-3.84-13.6-8.576-13.6Z"/><path class="cls-1" d="M15.924,31.3A4.565,4.565,0,0,1,19.1,33.369a4.929,4.929,0,0,1,.747,4.511,22.286,22.286,0,0,1-3.939,6.972,20.062,20.062,0,0,1-3.89-6.92,5.19,5.19,0,0,1,.85-4.675A4.358,4.358,0,0,1,15.924,31.3m0-2c-3.212,0-7.332,4.361-5.816,9.225a21.848,21.848,0,0,0,5.816,9.226,23.228,23.228,0,0,0,5.816-9.226c1.648-4.821-2.6-9.225-5.816-9.225Z"/></g></g></svg>