<svg xmlns="http://www.w3.org/2000/svg" viewBox="0 0 60.063 65.589"><defs><style>.cls-1{fill:#bbb;}</style></defs><g id="Layer_2" data-name="Layer 2"><g id="Layer_3" data-name="Layer 3"><path class="cls-1" d="M21.091,1.582h0m-.636.468c1.316.153,4.578.631,8,1.134,4.189.615,9.337,1.371,14.6,2.087.3,1.607.629,3.206.922,4.64.228,1.116.484,2.365.682,3.424-14.7-4.723-15.778-4.956-16.4-4.956a2.108,2.108,0,0,0-1.155.351A50.815,50.815,0,0,0,22.9,11.873,46.974,46.974,0,0,1,18.977,14.8c-1.185.8-1.256.852.036,12.093.711,6.188,1.673,13.693,2.667,20.821-2.188.772-6.891,2.106-9.225,2.62-6.423-20-9.919-31.329-10.406-33.731,1.416-2.1,10.67-8.884,17.491-13.885l.915-.67M19.942,0a.2.2,0,0,0-.089.011C9.56,7.562-.008,14.479,0,16.4c.006,1.454,5.286,18.177,11.047,36.1.012.037.082.054.2.054,1.649,0,12.684-3.181,12.613-3.659C21.572,32.65,19.772,16.679,20.1,16.456c4.194-2.848,3.939-3.223,8.133-6.071a.056.056,0,0,1,.031-.006c.771,0,14.047,4.306,18.525,5.741a.132.132,0,0,0,.042.007c.671,0-.876-6.078-1.958-12.044-.1-.407-.023-.586-.439-.644C32.693,1.86,21.089,0,19.942,0Z"/><path class="cls-1" d="M27.975,33.359h0m-.1,1.4c3.247,1.062,5.062,1.731,6.825,2.382,1.806.666,3.667,1.353,7.008,2.444-2.5,5.6-3.941,8.648-5.335,11.6-1.439,3.049-2.924,6.2-5.562,12.109-2.3-.642-4.309-1.362-6.419-2.118-1.75-.627-3.546-1.271-5.527-1.868,2.732-2.9,7.818-7.3,9.293-8.505a2.281,2.281,0,0,0,.787-2.287,120.274,120.274,0,0,1-1.07-13.759M26.991,32.4c-.4,0-.94.306-.993.655-.505,3.31.722,13.649.966,15.7.027.227.107.36-.069.5-1.52,1.247-8.647,7.369-10.838,10.25-.286.377-.2,1.037.259,1.158,5.629,1.484,9.54,3.446,15.243,4.9a.715.715,0,0,0,.172.024c.2,0,.309-.125.415-.363,5.889-13.252,6.191-13.118,12.081-26.37.161-.363-.228-.633-.607-.755-8.28-2.66-8.166-3.013-16.446-5.673a.591.591,0,0,0-.183-.026Z"/><path class="cls-1" d="M55.881,5.094h0m-.331.774c.184.1.344.21.518.325a10.375,10.375,0,0,0,1.608.9c-2.639,6.381-4.165,9.76-5.643,13.035-1.536,3.4-3.123,6.917-5.936,13.736-4.849-1.595-7.455-2.592-9.981-3.558-2.6-.994-5.277-2.018-10.31-3.671.661-1.765,1.082-2.828,1.492-3.862.5-1.26,1.017-2.562,1.947-5.083,3.668,1.264,5.606,1.924,7.544,2.584,2.045.7,4.089,1.393,8.174,2.8a4.3,4.3,0,0,0,1.41.266,2.527,2.527,0,0,0,2.414-1.533c1.782-4.174,2.664-6.266,3.546-8.356.824-1.955,1.648-3.909,3.217-7.585M29.383,17.384h0M54.967,3.459c-.406,0-.759.457-.935.868-3.561,8.34-3.523,8.356-7.084,16.7a.563.563,0,0,1-.575.319,2.469,2.469,0,0,1-.758-.156c-8.176-2.819-8.186-2.789-16.362-5.607a1.03,1.03,0,0,0-.337-.058,1.8,1.8,0,0,0-1.471,1.273c-1.941,5.267-2.07,5.219-4.011,10.486-.19.515.145.734.667.9,11.4,3.7,11.2,4.286,22.6,7.984a.48.48,0,0,0,.151.024c.4,0,.67-.532.841-.949,5.918-14.39,6.406-14.19,12.324-28.579.208-.5-.337-.923-.847-1.116-2.091-.791-1.915-1.259-4.006-2.051a.562.562,0,0,0-.2-.037Z"/></g></g></svg>