<svg xmlns="http://www.w3.org/2000/svg" viewBox="0 0 60.255 66.799"><defs><style>.cls-1{fill:#bbb;}</style></defs><g id="Layer_2" data-name="Layer 2"><g id="Layer_3" data-name="Layer 3"><path class="cls-1" d="M22.275,2.105c1.4.394,6.171,1.874,22.033,7.143-.021,2.774-.054,6.351-.18,8.64l-.172-.094C29.319,9.818,29.138,9.818,28.378,9.818a2.053,2.053,0,0,0-.807.167,46.723,46.723,0,0,0-4.727,2.331,42.739,42.739,0,0,1-4.376,2.159c-1.318.571-1.34.974-1.7,7.7-.2,3.663-.417,8.627-.672,14.376-.152,3.411-.313,7.04-.484,10.722-2.334.337-7.4.788-10.143.842-2.111-17.175-3.5-32.318-3.473-35C2.978,12.03,7.427,9.22,22.275,2.105M2.007,12.839h0M22.055,0a.057.057,0,0,0-.022,0C10.516,5.508.378,10.664.029,12.549c-.265,1.43,1.327,18.74,3.654,37.418.012.1.5.148,1.282.148,3.431,0,12.559-.848,12.576-1.271.77-16.379,1.358-32.376,1.722-32.534,4.651-2.018,4.454-2.472,9.1-4.49l.011,0c.511,0,12.95,6.83,17.128,9.1a.129.129,0,0,0,.061.016c.657,0,.7-6.222.745-12.226-.025-.42-.218-.969-.617-1.1C34.156,3.766,22.669,0,22.055,0Z"/><path class="cls-1" d="M23.9,34.346h0m-.363,1.413c3,1.624,4.709,2.537,6.372,3.424,1.692.9,3.436,1.833,6.541,3.518-3.651,5.281-5.6,8.138-7.488,10.907-1.872,2.745-3.8,5.577-7.4,10.783-2.339-1.131-4.3-2.285-6.374-3.5-1.614-.947-3.27-1.919-5.12-2.879A124.436,124.436,0,0,1,20.824,51.6a2.491,2.491,0,0,0,1.26-2.192l.018-.264a112.746,112.746,0,0,1,1.433-13.383m-.687-2.539a.9.9,0,0,0-.837.462C20.9,36.84,20.23,47.211,20.089,49.269c-.016.227-.023.464-.224.574-1.725.942-9.993,5.451-12.681,7.875a.738.738,0,0,0,.155,1.171c5.255,2.506,8.734,5.156,14.067,7.645a2.172,2.172,0,0,0,.754.265.273.273,0,0,0,.241-.112c8.252-11.925,8.171-11.981,16.424-23.906a1.029,1.029,0,0,0-.316-1.237C30.869,37.39,30.836,37.451,23.2,33.3a.736.736,0,0,0-.347-.078Z"/><path class="cls-1" d="M56.274,11.611h0m-.507.76a14.645,14.645,0,0,0,1.444.691c.213.092.414.177.641.287-3.98,6.108-6.088,9.295-8.129,12.38-1.992,3.011-4.048,6.119-7.855,11.958-4.6-2.5-7.165-3.739-9.652-4.943-2.452-1.187-4.983-2.412-9.533-4.882,1.2-2.036,1.783-3.221,2.352-4.372s1.1-2.222,2.233-4.146c3.685,2.105,5.592,3.161,7.437,4.184s3.771,2.089,7.514,4.228a3.2,3.2,0,0,0,1.587.4,3.137,3.137,0,0,0,2.645-1.294c2.545-3.8,3.768-5.774,4.951-7.686,1.082-1.75,2.2-3.556,4.365-6.8M27.649,18.7h0m27.842-8.645a1.064,1.064,0,0,0-.878.439c-5.05,7.533-4.774,7.718-9.824,15.25a1.205,1.205,0,0,1-.983.408,1.223,1.223,0,0,1-.594-.136c-7.509-4.29-7.566-4.191-15.074-8.482a2.588,2.588,0,0,0-1.224-.347,1.073,1.073,0,0,0-.98.484c-2.887,4.814-2.5,5.047-5.384,9.861-.282.471-.34,1.256.142,1.519C31.2,34.807,31.488,34.281,42,40.034a.994.994,0,0,0,.43.159c.153,0,.266-.108.426-.353C51.345,26.8,51.437,26.863,59.929,13.825c.3-.457.526-1.29.061-1.574C58.082,11.084,57.912,11.363,56,10.2a.978.978,0,0,0-.513-.138Z"/></g></g></svg>