<svg xmlns="http://www.w3.org/2000/svg" viewBox="0 0 87.769 103.945"><defs><style>.cls-1,.cls-2{fill:none;}.cls-1{stroke:#bbb;stroke-linecap:round;stroke-linejoin:round;stroke-width:2px;}</style></defs><g id="Layer_2" data-name="Layer 2"><g id="Layer_4" data-name="Layer 4"><path class="cls-1" d="M45.149,1.5S2.679,14.332,6.425,19.607c6.864,9.667,31.961-11.023,42.386-5.378,7,3.791,5.239,27.464-1.28,32.032C33.943,55.782,3.284,18.073,1.506,35.778c-3.769,37.507,74.852-20.694,81.931-8.785C93.166,43.363,5.674,82.42,11.208,67.236c6.908-18.956,65.5,2.4,35.515,6.887-15.239,2.279-8.178,11.71-3.029,17.358,2.547,2.793,1.455,10.105,1.455,10.105"/><polyline class="cls-1" points="39.614 97.659 45.092 102.446 45.206 102.446 50.683 97.659"/></g><g id="Layer_3" data-name="Layer 3"><rect class="cls-2" width="87.769" height="103.945"/></g></g></svg>