<svg xmlns="http://www.w3.org/2000/svg" viewBox="0 0 208.846 206.73"><defs><style>.cls-1{fill:#bbb;stroke-width:9.582px;}.cls-1,.cls-2{stroke:#bbb;stroke-miterlimit:10;}.cls-2{fill:none;stroke-width:12.217px;}</style></defs><g id="Layer_2" data-name="Layer 2"><g id="Layer_3" data-name="Layer 3"><circle class="cls-1" cx="105.165" cy="101.749" r="14.372"/><path class="cls-2" d="M161.392,101.749a57.769,57.769,0,0,1-7.472,28.157c-4.787,8.279-14.166,12.651-22.44,17.445-8.023,4.648-16.379,9.514-26.315,9.514s-19.962-2.006-28.009-6.653a57.442,57.442,0,0,1-20.175-20.679c-4.673-8.031-5.5-17.842-5.5-27.784s1.107-19.584,5.78-27.6c4.815-8.264,11.41-16.377,19.706-21.156,8.046-4.635,18.267-4.2,28.2-4.2a51.56,51.56,0,0,1,26.587,6.925c8.277,4.783,15.434,10.75,20.223,19.022C156.617,82.751,161.392,91.815,161.392,101.749Z"/><path class="cls-2" d="M202.737,101.749a97.949,97.949,0,0,1-18.056,57.725c-5.924,8.114-15.711,12.933-23.843,18.838-8.051,5.845-15.295,14.765-24.958,17.9a102.906,102.906,0,0,1-30.715,4.411c-10.327,0-20.563-3.887-29.881-6.912-9.657-3.135-20.089-6.273-28.127-12.122-8.118-5.908-15.392-14.1-21.3-22.218-5.849-8.038-5.792-19.292-8.926-28.95C13.907,121.1,6.108,112.076,6.108,101.749s8.106-19.241,11.129-28.544c3.136-9.652,4.126-20.011,9.979-28.034A96.981,96.981,0,0,1,48.694,24.1c8.038-5.827,16.73-11.725,26.387-14.845C84.392,6.249,94.846,6.54,105.165,6.54s21.211-1.613,30.534,1.4c9.663,3.119,18.8,9.147,26.851,14.971,8.138,5.886,12.2,16,18.133,24.1A90.328,90.328,0,0,1,194.254,72.86C197.291,82.169,202.737,91.418,202.737,101.749Z"/></g></g></svg>