<svg width="390" height="900" viewBox="0 0 390 900" fill="none" xmlns="http://www.w3.org/2000/svg">
<path d="M207.886 -56C207.886 27.6149 114.238 24.2703 37.3136 101.196C-39.6112 178.122 23.9353 295.182 87.4819 328.628C151.028 362.074 268.088 328.628 304.878 255.047C341.668 181.466 291.5 111.23 261.399 87.8176C231.298 64.4054 324.945 268.426 355.046 258.392C385.147 248.358 398.525 191.5 378.458 181.466C358.391 171.432 334.979 204.878 334.979 321.939C334.979 439 351.702 589.507 334.979 616.264C328.29 626.297 258.054 629.642 224.609 683.155C207.886 706.568 211.23 913.932 211.23 934" stroke="#484848" stroke-width="3" stroke-miterlimit="10"/>
</svg>
