<svg width="470" height="900" viewBox="0 0 470 900" fill="none" xmlns="http://www.w3.org/2000/svg">
<path d="M209.196 900C209.196 814.292 86.5613 841.841 135.615 737.766C163.208 679.607 239.855 743.888 273.58 765.315C319.568 792.864 371.688 817.353 408.478 857.146C408.478 857.146 411.544 860.207 411.544 863.268L408.478 866.329C396.215 875.512 377.82 866.329 365.556 860.207C291.975 814.292 187.735 725.522 172.406 636.753C166.274 593.898 181.604 541.861 206.131 502.068C224.526 471.458 261.316 437.786 291.975 422.481C322.634 407.176 316.502 404.115 347.161 388.81C423.808 349.017 417.676 257.186 426.874 186.783C426.874 183.722 429.94 177.6 433.005 174.539C436.071 174.539 436.071 174.539 439.137 174.539C448.335 180.661 463.664 189.844 466.73 199.027C469.796 208.21 466.73 220.454 463.664 232.698C439.137 312.285 328.766 434.725 236.789 434.725C147.879 434.725 138.681 251.064 212.262 251.064C285.843 251.064 276.646 425.542 212.262 425.542C147.879 425.542 37.5073 410.237 3.78264 229.637C-14.6126 137.807 114.154 110.258 169.34 73.5254C196.933 58.2203 209.196 49.0373 209.196 -3" stroke="#484848" stroke-width="3" stroke-miterlimit="10"/>
</svg>
